<svg preserveAspectRatio="none" width="100%" height="100%" overflow="visible" style="display: block;" viewBox="0 0 16 13.9999" fill="none" xmlns="http://www.w3.org/2000/svg">
<g id="Icon">
<path d="M0 5.85492C0 5.47251 0.411829 5.23165 0.745131 5.41914L7.01948 8.94846C7.6283 9.29092 8.3717 9.29092 8.98052 8.94846L15.2549 5.41914C15.5882 5.23165 16 5.47251 16 5.85492V10.9999C16 12.6568 14.6569 13.9999 13 13.9999H3C1.34315 13.9999 0 12.6568 0 10.9999V5.85492Z" fill="#DE7AFF"/>
<path d="M1.93435 0H14.0656C15.134 0 16 0.866038 16 1.93435C16 2.28376 15.8115 2.60601 15.507 2.77732L8.49026 6.72423C8.18585 6.89546 7.81415 6.89546 7.50974 6.72423L0.493007 2.77732C0.188465 2.60601 0 2.28376 0 1.93435C0 0.866038 0.866038 0 1.93435 0Z" fill="#DE7AFF"/>
</g>
</svg>
