<svg width="100%" height="100%" overflow="visible" viewBox="0 0 22.9926 9" fill="none" xmlns="http://www.w3.org/2000/svg">
<path id="Icon" d="M18.187 0H19.5458C19.9537 0 20.1577 0 20.3219 0.0181341C21.8931 0.191675 23.06 1.55458 22.9896 3.13374C22.9822 3.29873 22.9508 3.50026 22.888 3.90328L22.888 3.90341C22.8643 4.0556 22.9236 3.67511 22.8733 3.89107C22.5263 5.3836 20.4307 7.7069 18.9818 8.20556C18.7721 8.27771 19.9455 7.96861 19.4761 8.09225C17.7018 8.55968 15.0794 9 11.4963 9C7.91323 9 5.29085 8.55968 3.51648 8.09225C3.04715 7.96861 4.22048 8.27771 4.01084 8.20556C2.56189 7.7069 0.466323 5.3836 0.119262 3.89107C0.069047 3.67512 0.128344 4.0556 0.104625 3.90341C0.0418033 3.5003 0.0103925 3.29875 0.00302911 3.13374C-0.0674374 1.55458 1.09952 0.191675 2.67069 0.0181341C2.83487 0 3.03886 0 3.44683 0H4.80565C6.05418 0 7.15861 0.809421 7.53458 2C7.91055 3.19058 9.01498 4 10.2635 4H12.7291C13.9776 4 15.0821 3.19058 15.458 2C15.834 0.809421 16.9384 0 18.187 0Z" fill="var(--fill-0, #C925FF)"/>
</svg>
