<svg width="100%" height="100%" overflow="visible" viewBox="0 0 24.2635 24.2635" fill="none" xmlns="http://www.w3.org/2000/svg">
<g id="Writing 4">
<rect width="24.2635" height="24.2635" rx="6" fill="var(--fill-0, #F9EBFF)"/>
<path id="Icon" d="M14.6058 6.12135L14.9594 5.76779C15.9356 4.79152 17.5186 4.79159 18.4949 5.76779C19.4712 6.7441 19.4712 8.32701 18.4949 9.30333L18.1413 9.65688L14.6058 6.12135ZM5.76835 18.4957C5.54747 18.2748 5.45159 17.9582 5.51285 17.6519L6.00313 15.2005C6.08056 14.8133 6.27086 14.4577 6.55003 14.1785L13.193 7.53556L16.7285 11.0711L10.0856 17.714C9.80637 17.9932 9.45073 18.1835 9.06357 18.2609L6.61218 18.7512C6.30588 18.8125 5.98922 18.7166 5.76835 18.4957Z" fill="var(--fill-0, #DE7AFF)"/>
</g>
</svg>
