<svg width="100%" height="100%" overflow="visible" viewBox="0 0 16 16" fill="none" xmlns="http://www.w3.org/2000/svg">
<g id="Trash Bin">
<g id="Icon">
<path d="M2 7H14L13.4744 11.7301C13.3067 13.24 13.2228 13.995 12.8745 14.5647C12.5677 15.0666 12.1201 15.4672 11.5874 15.7168C10.9826 16 10.223 16 8.70379 16H7.29621C5.77697 16 5.01735 16 4.41263 15.7168C3.87993 15.4672 3.43233 15.0666 3.12552 14.5647C2.77722 13.995 2.69333 13.24 2.52556 11.7301L2 7Z" fill="var(--fill-0, #DE7AFF)"/>
<path d="M1 3.5C1 2.67157 1.67157 2 2.5 2C3.32843 2 3.97177 1.24281 4.53657 0.636766C4.90168 0.244995 5.42223 0 6 0H10C10.5778 0 11.0983 0.244995 11.4634 0.636766C12.0282 1.24281 12.6716 2 13.5 2C14.3284 2 15 2.67157 15 3.5C15 4.32843 14.3284 5 13.5 5H2.5C1.67157 5 1 4.32843 1 3.5Z" fill="#DE7AFF"/>
</g>
</g>
</svg>
