<svg preserveAspectRatio="none" width="100%" height="100%" overflow="visible" style="display: block;" viewBox="0 0 12 11.5059" fill="none" xmlns="http://www.w3.org/2000/svg">
<path id="Icon" d="M5.10715 0.634885C5.4014 -0.211629 6.59857 -0.211628 6.89282 0.634885L7.6381 2.77897C7.81118 3.27688 8.27584 3.61448 8.80287 3.62522L11.0723 3.67147C11.9683 3.68973 12.3383 4.8283 11.6241 5.36974L9.81528 6.7411C9.39522 7.05957 9.21773 7.60582 9.37038 8.11037L10.0277 10.283C10.2872 11.1408 9.31868 11.8445 8.58306 11.3326L6.71985 10.0361C6.28717 9.735 5.71281 9.735 5.28012 10.0361L3.41691 11.3326C2.68129 11.8445 1.71276 11.1408 1.97228 10.283L2.62959 8.11037C2.78224 7.60582 2.60475 7.05957 2.18469 6.7411L0.375854 5.36974C-0.338301 4.8283 0.0316457 3.68973 0.927656 3.67147L3.1971 3.62522C3.72413 3.61448 4.1888 3.27688 4.36187 2.77897L5.10715 0.634885Z" fill="var(--fill-0, #6636FF)"/>
</svg>
