<svg preserveAspectRatio="none" width="100%" height="100%" overflow="visible" style="display: block;" viewBox="0 0 51.2236 27.0625" fill="none" xmlns="http://www.w3.org/2000/svg">
<g id="Vector">
<path fill-rule="evenodd" clip-rule="evenodd" d="M10.329 0L23.9926 7.71665L13.6757 13.5312L23.9926 19.3578L10.329 27.0625V15.4213L0 21.2599V5.82661L10.317 11.6532V0H10.329ZM13.6757 21.4044L17.2872 19.3578L13.6757 17.3233V21.4044ZM3.34669 15.5778L6.95823 13.5433L3.34669 11.5088V15.5778ZM13.6757 9.76319L17.2872 7.71665L13.6757 5.68215V9.76319Z" fill="var(--fill-0, #04121B)" fill-opacity="0.24"/>
<path fill-rule="evenodd" clip-rule="evenodd" d="M41.4364 9.703H39.1852C38.6314 9.67892 38.0897 9.87153 37.6563 10.2207C37.2349 10.5698 36.9581 11.0633 36.8738 11.6051C37.572 11.0152 38.4749 10.7022 39.4019 10.7142C40.2325 10.7263 41.0391 11.0513 41.629 11.6291C42.2189 12.195 42.568 12.9775 42.6041 13.784V14.1572C42.4235 15.975 40.8224 17.2391 38.6073 17.2391C36.3682 17.2391 34.4781 15.9148 34.4781 12.6885C34.4781 9.9558 36.2719 7.69257 38.9083 7.65646H42.5921L41.4243 9.71503L41.4364 9.703ZM38.3545 12.4839C38.0656 12.532 37.8008 12.6645 37.5841 12.8691C37.3674 13.0738 37.2229 13.3266 37.1627 13.6035C37.1025 13.8803 37.1266 14.1813 37.2229 14.4461C37.3313 14.711 37.5118 14.9518 37.7526 15.1083C37.9934 15.2768 38.2823 15.3731 38.5712 15.3731C38.7638 15.3731 38.9685 15.349 39.1491 15.2768C39.3296 15.2046 39.5102 15.1083 39.6547 14.9638C39.7991 14.8314 39.9075 14.6628 39.9918 14.4823C40.064 14.3017 40.1121 14.1091 40.1121 13.9165C40.1121 13.6275 40.0279 13.3506 39.8714 13.1099C39.7149 12.8691 39.4861 12.6765 39.2093 12.5681C38.9444 12.4598 38.6434 12.4237 38.3545 12.4718V12.4839Z" fill="var(--fill-0, #04121B)" fill-opacity="0.24"/>
<path d="M30.7462 9.87153C31.7454 9.87153 32.7085 10.1725 33.491 10.7744L32.552 12.4117C31.9621 12.0625 31.288 11.8699 30.6018 11.882C30.1684 11.906 29.7591 12.0866 29.4701 12.3996C29.1692 12.7006 29.0006 13.1099 29.0006 13.5312C29.0006 13.9526 29.1692 14.3619 29.4701 14.6628C29.7711 14.9638 30.1684 15.1564 30.6018 15.1805C31.288 15.1805 31.9741 14.9999 32.552 14.6508L33.491 16.3001C32.7085 16.902 31.7213 17.227 30.7221 17.227C28.5071 17.227 26.617 15.5537 26.617 13.5433C26.617 11.8218 28.2904 9.88357 30.7342 9.88357L30.7462 9.87153Z" fill="var(--fill-0, #04121B)" fill-opacity="0.24"/>
<path d="M48.7317 17.0224V12.1348H46.324V17.0224H43.82V10.0762H51.2236V17.0224H48.7317Z" fill="var(--fill-0, #04121B)" fill-opacity="0.24"/>
</g>
</svg>
