<svg viewBox="0 0 17.3621 14.3975" fill="none" xmlns="http://www.w3.org/2000/svg">
<path id="Vector" d="M10.5241 2.19C8.96407 2.84 5.85407 4.18 1.19407 6.21C0.434071 6.51 0.0440712 6.81 0.00407119 7.09C-0.0558014 7.57896 0.551485 7.76919 1.37879 8.02835L1.38407 8.03C1.49407 8.07 1.61407 8.1 1.73407 8.14C2.55407 8.41 3.65407 8.72 4.22407 8.73C4.74407 8.74 5.32407 8.53 5.96407 8.09C10.3241 5.15 12.5741 3.66 12.7141 3.63L12.72 3.62882C12.8195 3.60887 12.9558 3.58156 13.0441 3.66C13.1341 3.74 13.1241 3.9 13.1141 3.94C13.0541 4.2 10.6641 6.42 9.42407 7.57C9.03407 7.93 8.76407 8.18 8.70407 8.24C8.57407 8.37 8.45407 8.49 8.32407 8.61C7.56407 9.34 6.99407 9.89 8.35407 10.79C9.00407 11.22 9.53407 11.58 10.0541 11.93C10.6241 12.32 11.1941 12.7 11.9241 13.19C12.1141 13.31 12.2941 13.44 12.4641 13.56L12.4731 13.5665C13.1296 14.0339 13.7274 14.4597 14.4541 14.39C14.8841 14.35 15.3241 13.95 15.5441 12.75C16.0741 9.92 17.1141 3.78 17.3541 1.25C17.3741 1.03 17.3541 0.74 17.3241 0.62C17.3041 0.5 17.2541 0.320001 17.0941 0.190001C16.9041 0.0300005 16.6041 0 16.4741 0C15.8741 0.01 14.9441 0.33 10.5041 2.18L10.5241 2.19Z" fill="var(--fill-0, #DE7AFF)"/>
</svg>
