<svg preserveAspectRatio="none" width="100%" height="100%" overflow="visible" style="display: block;" viewBox="0 0 14.9544 13.459" fill="none" xmlns="http://www.w3.org/2000/svg">
<g id="Icon">
<path fill-rule="evenodd" clip-rule="evenodd" d="M1.49544 0C0.669533 0 0 0.669532 0 1.49544V10.4681C0 12.1199 1.33907 13.459 2.99089 13.459H10.4681V1.49544C10.4681 0.669533 9.79857 0 8.97266 0H1.49544ZM8.22493 2.99089H2.24316V4.48633H8.22493V2.99089ZM2.24316 5.98177H6.72949V7.47721H2.24316V5.98177Z" fill="var(--fill-0, #DE7AFF)"/>
<path d="M13.459 4.48633C14.2849 4.48633 14.9544 5.15586 14.9544 5.98177V10.4681C14.9544 12.1199 13.6154 13.459 11.9635 13.459V5.23405C11.9635 4.82109 12.2983 4.48633 12.7113 4.48633H13.459Z" fill="var(--fill-0, #DE7AFF)"/>
</g>
</svg>
