<svg preserveAspectRatio="none" width="100%" height="100%" overflow="visible" style="display: block;" viewBox="0 0 166.538 144.784" fill="none" xmlns="http://www.w3.org/2000/svg">
<g id="Container">
<path id="Vector 240 (Stroke)" d="M108.732 1.0011C109.372 0.944342 110.535 0.866795 111.799 0.935669C113.434 1.02472 116.552 1.40206 119.748 3.40051L120.058 3.59876L120.422 3.8468C122.213 5.10197 123.516 6.59283 124.271 7.52551C125.313 8.8136 126.352 10.355 127.365 12.173C129.39 15.8087 131.433 20.7667 133.209 27.5109C133.7 29.3727 134.22 31.509 134.724 33.7042C136.76 32.2538 139.202 31.319 141.875 31.1075C149.738 30.4857 156.617 36.3558 157.239 44.2189C157.323 45.2839 157.441 46.7507 157.488 47.8556C157.509 48.3731 157.57 49.7368 157.347 51.3605C157.101 53.1553 156.612 54.6187 156.161 55.7286L155.995 56.1359L155.806 56.5333C154.062 60.1678 150.747 64.7247 145.527 67.42C144.451 67.9755 141.779 69.4988 137.487 70.2111C137.299 74.5479 137.069 78.8881 136.83 81.9972C136.437 87.1295 135.975 91.3285 133.786 95.1798C132.781 96.9463 130.534 100.367 126.108 102.353C120.453 104.89 112.934 104.424 103.759 100.996C103.245 100.804 102.71 100.597 102.154 100.375C102.062 101.503 101.952 102.59 101.819 103.592C101.435 106.474 100.88 110.499 99.8139 114.045C99.2723 115.846 98.3884 118.272 96.8461 120.633C95.2776 123.034 92.4484 126.229 87.8119 127.85C83.9706 129.193 78.0153 130.142 69.4662 127.317C68.709 127.066 67.8887 126.789 67.0131 126.472C65.2777 128.649 63.0612 130.699 60.1967 132.258C58.3178 133.28 55.5752 134.622 51.1517 135.223C47.4795 135.722 43.0574 135.658 37.39 135.163C33.6284 134.835 30.0181 134.316 24.9906 132.682C20.7065 131.289 17.1224 130.161 14.5805 129.383C13.3023 128.992 12.3316 128.703 11.6859 128.518C11.5076 128.467 11.3735 128.43 11.2787 128.403C4.33712 126.919 -0.574085 120.463 0.0540837 113.208C0.734544 105.35 7.65664 99.5306 15.515 100.211C16.6138 100.306 17.5215 100.524 17.5629 100.533C17.8527 100.598 18.1157 100.665 18.3041 100.714C18.6938 100.815 19.1275 100.936 19.556 101.059C20.4317 101.31 21.5826 101.653 22.9398 102.068C25.6695 102.904 29.4132 104.085 33.8197 105.517C36.2637 106.311 37.6415 106.513 39.8754 106.708C40.2507 106.741 40.609 106.767 40.9506 106.793C40.8436 106.585 40.7375 106.37 40.6361 106.148C40.1028 104.977 36.4453 96.1062 44.1156 89.2423L44.6215 88.7999C45.8837 87.7234 47.699 86.37 49.9584 85.2872C52.3083 84.1612 56.6987 82.5893 61.9574 83.7335L62.4691 83.8536L62.9105 83.9601C64.5725 84.3956 70.3651 86.2825 73.1732 92.6329L73.3226 92.9845L73.474 93.3595C73.616 93.7231 73.7563 94.1158 73.893 94.5363C73.9964 92.0384 74.0471 89.2762 74.0912 86.7736C74.1115 85.6203 74.0952 84.688 74.0609 83.9298C73.053 83.2074 72.1467 82.5476 71.3842 81.9738C69.7063 80.7111 67.7522 79.1827 66.2582 77.4933C65.4926 76.6276 63.8618 74.6501 62.9496 71.6759C61.8018 67.9335 62.462 64.8587 62.7328 63.754L62.889 63.1564C63.1016 62.398 63.4961 61.1941 64.1859 59.8898C65.0818 58.1959 67.2625 54.8491 71.6849 52.9972L72.1547 52.8087C74.6489 51.8518 80.2919 50.3476 86.2504 53.4581L86.8676 53.796L87.518 54.1779C89.1564 55.1585 91.5948 56.7942 94.0043 59.4347C95.7281 61.3238 97.2553 63.5231 98.5355 66.0655C100.152 67.1183 101.771 68.1405 103.277 69.0411C105.393 70.3071 107.227 71.2965 108.807 72.0792C108.907 70.0229 108.999 67.8675 109.078 65.7833C108.037 64.9695 105.762 63.1243 103.561 60.1085C101.132 56.7811 99.1429 52.6137 97.4056 47.2345C95.5332 41.4366 93.6296 35.2104 93.5199 29.046C93.4642 25.9152 93.3915 22.8886 93.39 20.6671C93.3893 19.5592 93.4044 18.3345 93.4769 17.215C93.5127 16.6632 93.577 15.8882 93.7152 15.0392C93.7988 14.526 94.1123 12.5412 95.2152 10.3771C95.6087 9.60505 96.5707 7.78777 98.2621 6.0011C100.064 4.09828 103.386 1.52736 108.283 1.04504L108.732 1.0011ZM12.5521 128.615C12.5692 128.617 12.5864 128.62 12.6039 128.622C12.5866 128.62 12.5694 128.617 12.5521 128.615Z" fill="var(--fill-0, #FF00A9)"/>
</g>
</svg>
