<svg preserveAspectRatio="none" width="100%" height="100%" overflow="visible" style="display: block;" viewBox="0 0 115.919 115.919" fill="none" xmlns="http://www.w3.org/2000/svg">
<g id="Container">
<path id="Summertime Sadness" d="M69.8504 5.45261C59.5645 -2.97403 44.3949 -1.46673 35.9682 8.81925C27.5415 19.1054 29.0489 34.2748 39.3349 42.7015C29.0489 34.2748 13.8794 35.782 5.45266 46.0681C-2.97411 56.3543 -1.46668 71.5237 8.81931 79.9503C19.1055 88.3771 34.2748 86.8698 42.7015 76.5837C34.2748 86.8698 35.782 102.039 46.0682 110.466C56.3543 118.893 71.5236 117.385 79.9504 107.099C88.3772 96.8131 86.8699 81.6438 76.5837 73.217C86.8699 81.6438 102.039 80.1365 110.466 69.8504C118.893 59.5644 117.385 44.3949 107.099 35.9682C96.8132 27.5414 81.6437 29.0488 73.2171 39.3348C81.6437 29.0488 80.1366 13.8794 69.8504 5.45261Z" fill="var(--fill-0, #F94A4F)"/>
<path id="Star 5" d="M70.2645 14.7376C73.3477 11.3099 78.3943 10.4759 82.4164 12.7295V12.7295C83.2834 13.2153 84.219 13.5673 85.1913 13.7734V13.7734C89.7013 14.7297 92.9469 18.6832 93.0063 23.2932V23.2932C93.0191 24.287 93.1821 25.2732 93.4897 26.2182V26.2182C94.9166 30.6022 93.1155 35.3898 89.1529 37.7462V37.7462C88.2986 38.2542 87.526 38.8884 86.8614 39.6273V39.6273C83.7782 43.0551 78.7315 43.889 74.7095 41.6355V41.6355C73.8424 41.1497 72.9069 40.7977 71.9346 40.5916V40.5916C67.4245 39.6353 64.1789 35.6818 64.1195 31.0718V31.0718C64.1067 30.078 63.9438 29.0918 63.6362 28.1467V28.1467C62.2092 23.7627 64.0103 18.9752 67.973 16.6188V16.6188C68.8273 16.1108 69.5998 15.4766 70.2645 14.7376V14.7376Z" fill="var(--fill-0, #02D892)"/>
</g>
</svg>
