<svg preserveAspectRatio="none" width="100%" height="100%" overflow="visible" style="display: block;" viewBox="0 0 16.0001 12.7204" fill="none" xmlns="http://www.w3.org/2000/svg">
<path id="Vector" fill-rule="evenodd" clip-rule="evenodd" d="M14.4509 6.638L13.5979 12.6095L2.45683 12.7204L1.50139 6.90415L0.0221799 5.59384L0 4.55993L16.0001 4.53775L15.9011 5.83782L14.4509 6.638ZM5.7599 7.60878C5.7599 6.51857 4.33869 6.52368 4.34551 7.54054C4.34551 7.85276 4.36428 10.4512 4.36769 10.7378C4.36769 11.7206 5.76843 11.6898 5.7616 10.6628C5.7599 10.3864 5.76331 7.97048 5.7599 7.60878ZM8.72686 7.60878C8.72686 6.51857 7.30565 6.52368 7.31248 7.54054C7.31248 7.85276 7.33124 10.4512 7.33465 10.7378C7.33465 11.7206 8.73539 11.6898 8.72856 10.6628C8.72686 10.3864 8.73027 7.97048 8.72686 7.60878ZM11.6938 7.60878C11.6938 6.51857 10.2726 6.52368 10.2794 7.54054C10.2794 7.85276 10.2982 10.4512 10.3016 10.7378C10.3016 11.7206 11.7023 11.6898 11.6955 10.6628C11.6938 10.3864 11.6972 7.97048 11.6938 7.60878ZM8.67909 1.41041C7.87379 0.613649 8.93501 -0.493629 9.713 0.272423L13.1253 3.64886L10.9073 3.64544L8.67909 1.41041ZM4.99043 3.65397H2.79635C3.72278 2.72584 5.98169 0.47204 6.16254 0.287778C6.95589 -0.517516 8.06659 0.543697 7.30736 1.31146L4.99043 3.65397Z" fill="var(--fill-0, #DE7AFF)"/>
</svg>
