<svg preserveAspectRatio="none" width="100%" height="100%" overflow="visible" style="display: block;" viewBox="0 0 16 16" fill="none" xmlns="http://www.w3.org/2000/svg">
<path id="Icon" fill-rule="evenodd" clip-rule="evenodd" d="M16 8C16 12.4183 12.4183 16 8 16C3.58172 16 0 12.4183 0 8C0 3.58172 3.58172 0 8 0C12.4183 0 16 3.58172 16 8ZM12.8 10.8571C12.8 12.1826 10.651 13.6 8 13.6C5.34903 13.6 3.2 12.1826 3.2 10.8571C3.2 9.53166 5.34903 8.8 8 8.8C10.651 8.8 12.8 9.53166 12.8 10.8571ZM8 7.2C9.32548 7.2 10.4 6.12548 10.4 4.8C10.4 3.47452 9.32548 2.4 8 2.4C6.67452 2.4 5.6 3.47452 5.6 4.8C5.6 6.12548 6.67452 7.2 8 7.2Z" fill="var(--fill-0, #FCF4FF)"/>
</svg>
