<svg width="16" height="17" viewBox="0 0 15.381 16.421" fill="none" xmlns="http://www.w3.org/2000/svg">
  <path d="M7.69 14.631c-1.873 0-2.81 0-3.565-.251A5.503 5.503 0 0 1 1.001 11.256c-.17-.515-.225-1.113-.243-2.033A71.69 71.69 0 0 1 .75 7.69c0-1.872 0-2.809.251-3.565A5.503 5.503 0 0 1 4.125 1.001C4.881.75 5.818.75 7.69.75s2.81 0 3.566.251a5.503 5.503 0 0 1 3.124 3.124c.251.756.251 1.693.251 3.565 0 .598 0 1.101-.008 1.533-2.997 0-5.2-1.177-7.631-1.177s-5.157.785-6.234 1.177" stroke="currentColor" stroke-width="1.5" stroke-linecap="round"/>
  <circle cx="10.874" cy="3.917" r="1.256" fill="currentColor" fill-opacity="0.67"/>
  <path d="M12.448 11.306v4.365M10.266 13.488h4.365" stroke="currentColor" stroke-opacity="0.67" stroke-width="1.5" stroke-linecap="round"/>
  <path d="M6.808 5.615 5.265 3.712a.469.469 0 0 0-.799.029L1.094 8.58h11.42L9.198 5.142a.469.469 0 0 0-.616-.083l-1.13.671a.469.469 0 0 1-.644-.115Z" fill="currentColor" fill-opacity="0.67"/>
</svg>
