<svg preserveAspectRatio="none" width="100%" height="100%" overflow="visible" style="display: block;" viewBox="0 0 12 16" fill="none" xmlns="http://www.w3.org/2000/svg">
<g id="Icon">
<path d="M0 9C0 7.34315 1.34315 6 3 6H9C10.6569 6 12 7.34315 12 9V13C12 14.6569 10.6569 16 9 16H3C1.34315 16 0 14.6569 0 13V9Z" fill="var(--fill-0, #0ABD5D)"/>
<path fill-rule="evenodd" clip-rule="evenodd" d="M6 2C4.89543 2 4 2.89543 4 4V7H2V4C2 1.79086 3.79086 0 6 0C8.20914 0 10 1.79086 10 4V7H8V4C8 2.89543 7.10457 2 6 2Z" fill="#0ABD5D"/>
</g>
</svg>
