<svg preserveAspectRatio="none" width="100%" height="100%" overflow="visible" style="display: block;" viewBox="0 0 220 220" fill="none" xmlns="http://www.w3.org/2000/svg">
<g id="Clip path group">
<mask id="mask0_5022_16676" style="mask-type:luminance" maskUnits="userSpaceOnUse" x="0" y="0" width="220" height="220">
<g id="clip-path-dot-color-30">
<path id="Vector" d="M94.2861 10.4762V5.72205e-06H89.048C87.6588 5.72205e-06 86.3265 0.551875 85.3441 1.53421C84.3618 2.51654 83.8099 3.84887 83.8099 5.2381C83.8099 6.62733 84.3618 7.95966 85.3441 8.94199C86.3265 9.92433 87.6588 10.4762 89.048 10.4762" fill="var(--fill-0, white)"/>
<path id="Vector_2" d="M94.2861 0V10.4762H104.762C104.762 7.69773 103.659 5.03307 101.694 3.06841C99.7292 1.10374 97.0646 0 94.2861 0Z" fill="var(--fill-0, white)"/>
<path id="Vector_3" d="M125.714 10.4762V5.72205e-06H120.476C119.087 5.72205e-06 117.754 0.551875 116.772 1.53421C115.79 2.51654 115.238 3.84887 115.238 5.2381C115.238 6.62733 115.79 7.95966 116.772 8.94199C117.754 9.92433 119.087 10.4762 120.476 10.4762" fill="var(--fill-0, white)"/>
<path id="Vector_4" d="M125.714 0V10.4762H136.19C136.19 7.69773 135.086 5.03307 133.122 3.06841C131.157 1.10374 128.492 0 125.714 0Z" fill="var(--fill-0, white)"/>
<path id="Vector_5" d="M104.762 10.4762H94.2857V15.7143C94.2857 17.1035 94.8376 18.4358 95.8199 19.4182C96.8022 20.4005 98.1346 20.9524 99.5238 20.9524C100.913 20.9524 102.245 20.4005 103.228 19.4182C104.21 18.4358 104.762 17.1035 104.762 15.7143" fill="var(--fill-0, white)"/>
<path id="Vector_6" d="M136.19 10.4762H125.714V15.7143C125.714 17.1035 126.266 18.4359 127.248 19.4182C128.231 20.4005 129.563 20.9524 130.952 20.9524C132.342 20.9524 133.674 20.4005 134.656 19.4182C135.639 18.4359 136.19 17.1035 136.19 15.7143" fill="var(--fill-0, white)"/>
<path id="Vector_7" d="M115.238 31.4286V20.9524H110C108.611 20.9524 107.278 21.5043 106.296 22.4866C105.314 23.4689 104.762 24.8012 104.762 26.1905C104.762 27.5797 105.314 28.912 106.296 29.8944C107.278 30.8767 108.611 31.4286 110 31.4286" fill="var(--fill-0, white)"/>
<path id="Vector_8" d="M115.238 20.9524V31.4286H120.476C121.865 31.4286 123.198 30.8767 124.18 29.8944C125.162 28.912 125.714 27.5797 125.714 26.1905C125.714 24.8012 125.162 23.4689 124.18 22.4866C123.198 21.5043 121.865 20.9524 120.476 20.9524" fill="var(--fill-0, white)"/>
<path id="Vector_9" d="M99.5242 41.9048C102.417 41.9048 104.762 39.5596 104.762 36.6667C104.762 33.7738 102.417 31.4286 99.5242 31.4286C96.6313 31.4286 94.2861 33.7738 94.2861 36.6667C94.2861 39.5596 96.6313 41.9048 99.5242 41.9048Z" fill="var(--fill-0, white)"/>
<path id="Vector_10" d="M83.8095 52.381H94.2857V47.1429C94.2857 45.7536 93.7338 44.4213 92.7515 43.439C91.7692 42.4566 90.4368 41.9048 89.0476 41.9048C87.6584 41.9048 86.3261 42.4566 85.3437 43.439C84.3614 44.4213 83.8095 45.7536 83.8095 47.1429" fill="var(--fill-0, white)"/>
<path id="Vector_11" d="M130.952 52.381C133.845 52.381 136.19 50.0358 136.19 47.1429C136.19 44.25 133.845 41.9048 130.952 41.9048C128.059 41.9048 125.714 44.25 125.714 47.1429C125.714 50.0358 128.059 52.381 130.952 52.381Z" fill="var(--fill-0, white)"/>
<path id="Vector_12" d="M94.2857 52.381H83.8095V62.8571H94.2857V52.381Z" fill="var(--fill-0, white)"/>
<path id="Vector_13" d="M120.476 62.8571C123.369 62.8571 125.714 60.512 125.714 57.619C125.714 54.7261 123.369 52.381 120.476 52.381C117.583 52.381 115.238 54.7261 115.238 57.619C115.238 60.512 117.583 62.8571 120.476 62.8571Z" fill="var(--fill-0, white)"/>
<path id="Vector_14" d="M94.2861 62.8571H83.8099V68.0952C83.8099 69.4844 84.3618 70.8168 85.3441 71.7991C86.3265 72.7814 87.6588 73.3333 89.048 73.3333C90.4373 73.3333 91.7696 72.7814 92.7519 71.7991C93.7343 70.8168 94.2861 69.4844 94.2861 68.0952" fill="var(--fill-0, white)"/>
<path id="Vector_15" d="M110 73.3333C112.893 73.3333 115.238 70.9882 115.238 68.0952C115.238 65.2023 112.893 62.8571 110 62.8571C107.107 62.8571 104.762 65.2023 104.762 68.0952C104.762 70.9882 107.107 73.3333 110 73.3333Z" fill="var(--fill-0, white)"/>
<path id="Vector_16" d="M125.714 73.3333H136.19V68.0952C136.19 66.706 135.638 65.3736 134.656 64.3913C133.674 63.409 132.341 62.8571 130.952 62.8571C129.563 62.8571 128.23 63.409 127.248 64.3913C126.266 65.3736 125.714 66.706 125.714 68.0952" fill="var(--fill-0, white)"/>
<path id="Vector_17" d="M99.5242 83.8095C102.417 83.8095 104.762 81.4643 104.762 78.5714C104.762 75.6785 102.417 73.3333 99.5242 73.3333C96.6313 73.3333 94.2861 75.6785 94.2861 78.5714C94.2861 81.4643 96.6313 83.8095 99.5242 83.8095Z" fill="var(--fill-0, white)"/>
<path id="Vector_18" d="M136.19 73.3333H125.714V83.8095H136.19V73.3333Z" fill="var(--fill-0, white)"/>
<path id="Vector_19" d="M20.9524 94.2857V83.8095H15.7143C14.3251 83.8095 12.9927 84.3614 12.0104 85.3437C11.0281 86.3261 10.4762 87.6584 10.4762 89.0476C10.4762 90.4368 11.0281 91.7692 12.0104 92.7515C12.9927 93.7338 14.3251 94.2857 15.7143 94.2857" fill="var(--fill-0, white)"/>
<path id="Vector_20" d="M31.4286 83.8095H20.9524V94.2857H31.4286V83.8095Z" fill="var(--fill-0, white)"/>
<path id="Vector_21" d="M41.9048 83.8095H31.4286V94.2857H41.9048V83.8095Z" fill="var(--fill-0, white)"/>
<path id="Vector_22" d="M52.381 83.8095H41.9048V94.2857H52.381V83.8095Z" fill="var(--fill-0, white)"/>
<path id="Vector_23" d="M62.8571 83.8095H52.381V94.2857H62.8571V83.8095Z" fill="var(--fill-0, white)"/>
<path id="Vector_24" d="M73.3336 83.8095H62.8574V94.2857H73.3336V83.8095Z" fill="var(--fill-0, white)"/>
<path id="Vector_25" d="M73.333 83.8095V94.2857H78.5711C79.9603 94.2857 81.2927 93.7338 82.275 92.7515C83.2573 91.7692 83.8092 90.4368 83.8092 89.0476C83.8092 87.6584 83.2573 86.326 82.275 85.3437C81.2927 84.3614 79.9603 83.8095 78.5711 83.8095" fill="var(--fill-0, white)"/>
<path id="Vector_26" d="M110 94.2857C112.893 94.2857 115.238 91.9405 115.238 89.0476C115.238 86.1547 112.893 83.8095 110 83.8095C107.107 83.8095 104.762 86.1547 104.762 89.0476C104.762 91.9405 107.107 94.2857 110 94.2857Z" fill="var(--fill-0, white)"/>
<path id="Vector_27" d="M136.19 83.8095H125.714V94.2857H136.19V83.8095Z" fill="var(--fill-0, white)"/>
<path id="Vector_28" d="M167.619 94.2857V83.8095H162.381C160.992 83.8095 159.659 84.3614 158.677 85.3437C157.695 86.3261 157.143 87.6584 157.143 89.0476C157.143 90.4368 157.695 91.7692 158.677 92.7515C159.659 93.7338 160.992 94.2857 162.381 94.2857" fill="var(--fill-0, white)"/>
<path id="Vector_29" d="M167.619 83.8095V94.2857H178.095C178.095 91.5073 176.992 88.8426 175.027 86.8779C173.062 84.9133 170.398 83.8095 167.619 83.8095Z" fill="var(--fill-0, white)"/>
<path id="Vector_30" d="M209.523 94.2857H220V89.0476C220 87.6584 219.448 86.326 218.465 85.3437C217.483 84.3614 216.151 83.8095 214.762 83.8095C213.372 83.8095 212.04 84.3614 211.058 85.3437C210.075 86.326 209.523 87.6584 209.523 89.0476" fill="var(--fill-0, white)"/>
<path id="Vector_31" d="M62.8571 94.2857H52.381V104.762H62.8571V94.2857Z" fill="var(--fill-0, white)"/>
<path id="Vector_32" d="M136.19 94.2857H125.714V99.5238C125.714 100.913 126.266 102.245 127.248 103.228C128.231 104.21 129.563 104.762 130.952 104.762C132.342 104.762 133.674 104.21 134.656 103.228C135.639 102.245 136.19 100.913 136.19 99.5238" fill="var(--fill-0, white)"/>
<path id="Vector_33" d="M151.905 104.762C154.798 104.762 157.143 102.417 157.143 99.5238C157.143 96.6309 154.798 94.2857 151.905 94.2857C149.012 94.2857 146.667 96.6309 146.667 99.5238C146.667 102.417 149.012 104.762 151.905 104.762Z" fill="var(--fill-0, white)"/>
<path id="Vector_34" d="M178.096 104.762V94.2857H167.62C167.62 97.0642 168.723 99.7288 170.688 101.693C172.653 103.658 175.317 104.762 178.096 104.762Z" fill="var(--fill-0, white)"/>
<path id="Vector_35" d="M188.572 94.2857H178.096V104.762H188.572V94.2857Z" fill="var(--fill-0, white)"/>
<path id="Vector_36" d="M199.048 94.2857H188.571V104.762H199.048V94.2857Z" fill="var(--fill-0, white)"/>
<path id="Vector_37" d="M209.524 94.2857H199.048V104.762H209.524V94.2857Z" fill="var(--fill-0, white)"/>
<path id="Vector_38" d="M220 94.2857H209.524V104.762C212.302 104.762 214.967 103.658 216.932 101.693C218.896 99.7288 220 97.0642 220 94.2857Z" fill="var(--fill-0, white)"/>
<path id="Vector_39" d="M20.9524 115.238H31.4286V104.762C30.0528 104.762 28.6905 105.033 27.4195 105.559C26.1485 106.086 24.9936 106.858 24.0208 107.83C23.048 108.803 22.2763 109.958 21.7498 111.229C21.2234 112.5 20.9524 113.862 20.9524 115.238Z" fill="var(--fill-0, white)"/>
<path id="Vector_40" d="M41.9048 104.762H31.4286V115.238H41.9048V104.762Z" fill="var(--fill-0, white)"/>
<path id="Vector_41" d="M52.381 104.762H41.9048V115.238H52.381V104.762Z" fill="var(--fill-0, white)"/>
<path id="Vector_42" d="M62.8571 104.762H52.381V115.238H62.8571V104.762Z" fill="var(--fill-0, white)"/>
<path id="Vector_43" d="M73.3336 104.762H62.8574V115.238H73.3336V104.762Z" fill="var(--fill-0, white)"/>
<path id="Vector_44" d="M73.333 104.762V115.238H83.8092C83.8092 113.862 83.5382 112.5 83.0117 111.229C82.4853 109.958 81.7136 108.803 80.7408 107.83C79.768 106.858 78.6131 106.086 77.3421 105.559C76.071 105.033 74.7088 104.762 73.333 104.762Z" fill="var(--fill-0, white)"/>
<path id="Vector_45" d="M110 115.238C112.893 115.238 115.238 112.893 115.238 110C115.238 107.107 112.893 104.762 110 104.762C107.107 104.762 104.762 107.107 104.762 110C104.762 112.893 107.107 115.238 110 115.238Z" fill="var(--fill-0, white)"/>
<path id="Vector_46" d="M141.429 115.238C144.321 115.238 146.667 112.893 146.667 110C146.667 107.107 144.321 104.762 141.429 104.762C138.536 104.762 136.19 107.107 136.19 110C136.19 112.893 138.536 115.238 141.429 115.238Z" fill="var(--fill-0, white)"/>
<path id="Vector_47" d="M162.381 115.238C165.274 115.238 167.619 112.893 167.619 110C167.619 107.107 165.274 104.762 162.381 104.762C159.488 104.762 157.143 107.107 157.143 110C157.143 112.893 159.488 115.238 162.381 115.238Z" fill="var(--fill-0, white)"/>
<path id="Vector_48" d="M188.572 104.762H178.096V115.238H188.572V104.762Z" fill="var(--fill-0, white)"/>
<path id="Vector_49" d="M199.048 104.762H188.571V115.238H199.048V104.762Z" fill="var(--fill-0, white)"/>
<path id="Vector_50" d="M2.86102e-06 125.714H10.4762V115.238C7.69773 115.238 5.03307 116.342 3.06841 118.306C1.10374 120.271 2.86102e-06 122.936 2.86102e-06 125.714Z" fill="var(--fill-0, white)"/>
<path id="Vector_51" d="M20.9524 115.238H10.4762V125.714H20.9524V115.238Z" fill="var(--fill-0, white)"/>
<path id="Vector_52" d="M31.4286 115.238H20.9524V125.714C23.7308 125.714 26.3955 124.611 28.3602 122.646C30.3248 120.681 31.4286 118.017 31.4286 115.238Z" fill="var(--fill-0, white)"/>
<path id="Vector_53" d="M62.8574 115.238H52.3812V120.476C52.3812 121.865 52.9331 123.198 53.9154 124.18C54.8978 125.162 56.2301 125.714 57.6193 125.714C59.0086 125.714 60.3409 125.162 61.3232 124.18C62.3056 123.198 62.8574 121.865 62.8574 120.476" fill="var(--fill-0, white)"/>
<path id="Vector_54" d="M83.8092 115.238H73.333V125.714H83.8092V115.238Z" fill="var(--fill-0, white)"/>
<path id="Vector_55" d="M99.5242 125.714C102.417 125.714 104.762 123.369 104.762 120.476C104.762 117.583 102.417 115.238 99.5242 115.238C96.6313 115.238 94.2861 117.583 94.2861 120.476C94.2861 123.369 96.6313 125.714 99.5242 125.714Z" fill="var(--fill-0, white)"/>
<path id="Vector_56" d="M125.714 125.714H136.19V120.476C136.19 119.087 135.638 117.755 134.656 116.772C133.674 115.79 132.341 115.238 130.952 115.238C129.563 115.238 128.23 115.79 127.248 116.772C126.266 117.755 125.714 119.087 125.714 120.476" fill="var(--fill-0, white)"/>
<path id="Vector_57" d="M167.619 125.714H178.095V115.238C175.317 115.238 172.652 116.342 170.687 118.306C168.723 120.271 167.619 122.936 167.619 125.714Z" fill="var(--fill-0, white)"/>
<path id="Vector_58" d="M188.572 115.238H178.096V125.714H188.572V115.238Z" fill="var(--fill-0, white)"/>
<path id="Vector_59" d="M199.048 115.238H188.571V125.714H199.048V115.238Z" fill="var(--fill-0, white)"/>
<path id="Vector_60" d="M214.762 125.714C217.654 125.714 220 123.369 220 120.476C220 117.583 217.654 115.238 214.762 115.238C211.869 115.238 209.523 117.583 209.523 120.476C209.523 123.369 211.869 125.714 214.762 125.714Z" fill="var(--fill-0, white)"/>
<path id="Vector_61" d="M10.4762 136.19L10.4762 125.714H0C0 128.493 1.10374 131.157 3.06841 133.122C5.03307 135.087 7.69773 136.19 10.4762 136.19Z" fill="var(--fill-0, white)"/>
<path id="Vector_62" d="M20.9524 125.714H10.4762V136.19C11.8519 136.19 13.2142 135.919 14.4853 135.393C15.7563 134.867 16.9112 134.095 17.884 133.122C18.8568 132.149 19.6285 130.994 20.1549 129.723C20.6814 128.452 20.9524 127.09 20.9524 125.714Z" fill="var(--fill-0, white)"/>
<path id="Vector_63" d="M47.1429 136.19C50.0358 136.19 52.381 133.845 52.381 130.952C52.381 128.059 50.0358 125.714 47.1429 125.714C44.2499 125.714 41.9048 128.059 41.9048 130.952C41.9048 133.845 44.2499 136.19 47.1429 136.19Z" fill="var(--fill-0, white)"/>
<path id="Vector_64" d="M73.333 136.19V125.714H68.0949C66.7057 125.714 65.3733 126.266 64.391 127.248C63.4087 128.231 62.8568 129.563 62.8568 130.952C62.8568 132.342 63.4087 133.674 64.391 134.656C65.3733 135.639 66.7057 136.19 68.0949 136.19" fill="var(--fill-0, white)"/>
<path id="Vector_65" d="M83.8095 125.714H73.3333V136.19C74.7091 136.19 76.0714 135.92 77.3424 135.393C78.6134 134.867 79.7683 134.095 80.7411 133.122C81.7139 132.149 82.4856 130.994 83.0121 129.723C83.5386 128.452 83.8095 127.09 83.8095 125.714Z" fill="var(--fill-0, white)"/>
<path id="Vector_66" d="M136.19 125.714H125.714V130.952C125.714 132.342 126.266 133.674 127.248 134.656C128.231 135.639 129.563 136.19 130.952 136.19C132.342 136.19 133.674 135.639 134.656 134.656C135.639 133.674 136.19 132.342 136.19 130.952" fill="var(--fill-0, white)"/>
<path id="Vector_67" d="M157.143 136.19V125.714H151.904C150.515 125.714 149.183 126.266 148.201 127.248C147.218 128.231 146.666 129.563 146.666 130.952C146.666 132.342 147.218 133.674 148.201 134.656C149.183 135.639 150.515 136.19 151.904 136.19" fill="var(--fill-0, white)"/>
<path id="Vector_68" d="M167.619 125.714H157.143V136.19H167.619V125.714Z" fill="var(--fill-0, white)"/>
<path id="Vector_69" d="M178.096 125.714H167.62V136.19C170.398 136.19 173.063 135.087 175.027 133.122C176.992 131.157 178.096 128.493 178.096 125.714Z" fill="var(--fill-0, white)"/>
<path id="Vector_70" d="M199.048 125.714H188.571V136.19H199.048V125.714Z" fill="var(--fill-0, white)"/>
<path id="Vector_71" d="M83.8095 146.667H94.2857V136.19C91.5073 136.19 88.8426 137.294 86.8779 139.259C84.9133 141.224 83.8095 143.888 83.8095 146.667Z" fill="var(--fill-0, white)"/>
<path id="Vector_72" d="M104.762 136.19H94.2861V146.667H104.762V136.19Z" fill="var(--fill-0, white)"/>
<path id="Vector_73" d="M104.762 136.19V146.667H115.238C115.238 143.888 114.134 141.224 112.17 139.259C110.205 137.294 107.54 136.19 104.762 136.19Z" fill="var(--fill-0, white)"/>
<path id="Vector_74" d="M167.619 136.19H157.143V141.429C157.143 142.818 157.695 144.15 158.677 145.132C159.659 146.115 160.992 146.667 162.381 146.667C163.77 146.667 165.103 146.115 166.085 145.132C167.067 144.15 167.619 142.818 167.619 141.429" fill="var(--fill-0, white)"/>
<path id="Vector_75" d="M199.048 136.19H188.571V146.667H199.048V136.19Z" fill="var(--fill-0, white)"/>
<path id="Vector_76" d="M214.762 146.667C217.654 146.667 220 144.322 220 141.429C220 138.536 217.654 136.19 214.762 136.19C211.869 136.19 209.523 138.536 209.523 141.429C209.523 144.322 211.869 146.667 214.762 146.667Z" fill="var(--fill-0, white)"/>
<path id="Vector_77" d="M94.2857 146.667H83.8095V157.143H94.2857V146.667Z" fill="var(--fill-0, white)"/>
<path id="Vector_78" d="M115.238 146.667H104.762V157.143H115.238V146.667Z" fill="var(--fill-0, white)"/>
<path id="Vector_79" d="M125.714 146.667H115.238V157.143H125.714V146.667Z" fill="var(--fill-0, white)"/>
<path id="Vector_80" d="M125.714 146.667V157.143H136.19C136.19 155.767 135.919 154.405 135.393 153.134C134.866 151.863 134.094 150.708 133.122 149.735C132.149 148.762 130.994 147.991 129.723 147.464C128.452 146.938 127.09 146.667 125.714 146.667Z" fill="var(--fill-0, white)"/>
<path id="Vector_81" d="M178.096 157.143H188.572V146.667C187.196 146.667 185.834 146.938 184.563 147.464C183.292 147.991 182.137 148.762 181.164 149.735C180.191 150.708 179.42 151.863 178.893 153.134C178.367 154.405 178.096 155.767 178.096 157.143Z" fill="var(--fill-0, white)"/>
<path id="Vector_82" d="M199.048 146.667H188.571V157.143H199.048V146.667Z" fill="var(--fill-0, white)"/>
<path id="Vector_83" d="M94.2857 157.143H83.8095V167.619H94.2857V157.143Z" fill="var(--fill-0, white)"/>
<path id="Vector_84" d="M104.762 157.143H94.2861V167.619H104.762V157.143Z" fill="var(--fill-0, white)"/>
<path id="Vector_85" d="M115.238 157.143H104.762V167.619C107.54 167.619 110.205 166.515 112.17 164.551C114.134 162.586 115.238 159.921 115.238 157.143Z" fill="var(--fill-0, white)"/>
<path id="Vector_86" d="M136.19 167.619V157.143H125.714C125.714 159.921 126.818 162.586 128.783 164.551C130.747 166.515 133.412 167.619 136.19 167.619Z" fill="var(--fill-0, white)"/>
<path id="Vector_87" d="M136.19 157.143V167.619H146.667C146.667 166.243 146.396 164.881 145.869 163.61C145.343 162.339 144.571 161.184 143.598 160.211C142.625 159.238 141.471 158.467 140.2 157.94C138.929 157.414 137.566 157.143 136.19 157.143Z" fill="var(--fill-0, white)"/>
<path id="Vector_88" d="M157.143 167.619H167.619V157.143C164.84 157.143 162.176 158.247 160.211 160.211C158.246 162.176 157.143 164.841 157.143 167.619Z" fill="var(--fill-0, white)"/>
<path id="Vector_89" d="M178.095 157.143H167.619V167.619H178.095V157.143Z" fill="var(--fill-0, white)"/>
<path id="Vector_90" d="M188.572 157.143H178.096V167.619H188.572V157.143Z" fill="var(--fill-0, white)"/>
<path id="Vector_91" d="M199.048 157.143H188.571V167.619H199.048V157.143Z" fill="var(--fill-0, white)"/>
<path id="Vector_92" d="M209.524 157.143H199.048V167.619H209.524V157.143Z" fill="var(--fill-0, white)"/>
<path id="Vector_93" d="M209.523 157.143V167.619H220C220 164.841 218.896 162.176 216.931 160.211C214.967 158.247 212.302 157.143 209.523 157.143Z" fill="var(--fill-0, white)"/>
<path id="Vector_94" d="M94.2857 167.619H83.8095V178.095H94.2857V167.619Z" fill="var(--fill-0, white)"/>
<path id="Vector_95" d="M104.762 167.619H94.2861V178.095H104.762V167.619Z" fill="var(--fill-0, white)"/>
<path id="Vector_96" d="M120.476 178.095C123.369 178.095 125.714 175.75 125.714 172.857C125.714 169.964 123.369 167.619 120.476 167.619C117.583 167.619 115.238 169.964 115.238 172.857C115.238 175.75 117.583 178.095 120.476 178.095Z" fill="var(--fill-0, white)"/>
<path id="Vector_97" d="M146.667 178.095V167.619H136.191C136.191 168.995 136.462 170.357 136.988 171.628C137.515 172.899 138.286 174.054 139.259 175.027C140.232 176 141.387 176.771 142.658 177.298C143.929 177.824 145.291 178.095 146.667 178.095Z" fill="var(--fill-0, white)"/>
<path id="Vector_98" d="M157.143 167.619H146.667V178.095H157.143V167.619Z" fill="var(--fill-0, white)"/>
<path id="Vector_99" d="M167.619 167.619H157.143V178.095C158.519 178.095 159.881 177.824 161.152 177.298C162.423 176.771 163.578 176 164.551 175.027C165.523 174.054 166.295 172.899 166.822 171.628C167.348 170.357 167.619 168.995 167.619 167.619Z" fill="var(--fill-0, white)"/>
<path id="Vector_100" d="M199.048 167.619H188.571V178.095H199.048V167.619Z" fill="var(--fill-0, white)"/>
<path id="Vector_101" d="M220 167.619H209.524V172.857C209.524 174.246 210.076 175.579 211.058 176.561C212.04 177.543 213.373 178.095 214.762 178.095C216.151 178.095 217.483 177.543 218.466 176.561C219.448 175.579 220 174.246 220 172.857" fill="var(--fill-0, white)"/>
<path id="Vector_102" d="M94.2857 178.095H83.8095V188.571H94.2857V178.095Z" fill="var(--fill-0, white)"/>
<path id="Vector_103" d="M104.762 178.095H94.2861V188.571H104.762V178.095Z" fill="var(--fill-0, white)"/>
<path id="Vector_104" d="M104.762 178.095V188.571H110C111.389 188.571 112.722 188.02 113.704 187.037C114.686 186.055 115.238 184.723 115.238 183.333C115.238 181.944 114.686 180.612 113.704 179.629C112.722 178.647 111.389 178.095 110 178.095" fill="var(--fill-0, white)"/>
<path id="Vector_105" d="M125.714 188.571H136.19V183.333C136.19 181.944 135.638 180.612 134.656 179.629C133.674 178.647 132.341 178.095 130.952 178.095C129.563 178.095 128.23 178.647 127.248 179.629C126.266 180.612 125.714 181.944 125.714 183.333" fill="var(--fill-0, white)"/>
<path id="Vector_106" d="M172.857 188.571C175.75 188.571 178.095 186.226 178.095 183.333C178.095 180.44 175.75 178.095 172.857 178.095C169.964 178.095 167.619 180.44 167.619 183.333C167.619 186.226 169.964 188.571 172.857 188.571Z" fill="var(--fill-0, white)"/>
<path id="Vector_107" d="M199.048 178.095H188.572V183.333C188.572 184.723 189.124 186.055 190.106 187.037C191.088 188.02 192.421 188.571 193.81 188.571C195.199 188.571 196.531 188.02 197.514 187.037C198.496 186.055 199.048 184.723 199.048 183.333" fill="var(--fill-0, white)"/>
<path id="Vector_108" d="M94.2857 188.571H83.8095V199.048H94.2857V188.571Z" fill="var(--fill-0, white)"/>
<path id="Vector_109" d="M104.762 188.571H94.2861V199.048H104.762V188.571Z" fill="var(--fill-0, white)"/>
<path id="Vector_110" d="M136.19 199.048V188.571H125.714C125.714 191.35 126.818 194.015 128.783 195.979C130.747 197.944 133.412 199.048 136.19 199.048Z" fill="var(--fill-0, white)"/>
<path id="Vector_111" d="M136.19 188.571V199.048H146.667C146.667 197.672 146.396 196.31 145.869 195.039C145.343 193.768 144.571 192.613 143.598 191.64C142.625 190.667 141.471 189.895 140.2 189.369C138.929 188.842 137.566 188.571 136.19 188.571Z" fill="var(--fill-0, white)"/>
<path id="Vector_112" d="M157.143 199.048H167.619V193.81C167.619 192.42 167.067 191.088 166.085 190.106C165.102 189.123 163.77 188.571 162.381 188.571C160.991 188.571 159.659 189.123 158.677 190.106C157.694 191.088 157.143 192.42 157.143 193.81" fill="var(--fill-0, white)"/>
<path id="Vector_113" d="M94.2861 209.524V199.048H83.8099C83.8099 201.826 84.9137 204.491 86.8783 206.455C88.843 208.42 91.5077 209.524 94.2861 209.524Z" fill="var(--fill-0, white)"/>
<path id="Vector_114" d="M104.762 199.048H94.2861V209.524H104.762V199.048Z" fill="var(--fill-0, white)"/>
<path id="Vector_115" d="M146.667 199.048H136.19V209.524H146.667V199.048Z" fill="var(--fill-0, white)"/>
<path id="Vector_116" d="M167.619 209.524V199.048H157.143C157.143 201.826 158.247 204.491 160.211 206.455C162.176 208.42 164.841 209.524 167.619 209.524Z" fill="var(--fill-0, white)"/>
<path id="Vector_117" d="M167.619 199.048V209.524H178.095C178.095 206.745 176.992 204.081 175.027 202.116C173.062 200.151 170.398 199.048 167.619 199.048Z" fill="var(--fill-0, white)"/>
<path id="Vector_118" d="M193.81 209.524C196.702 209.524 199.048 207.179 199.048 204.286C199.048 201.393 196.702 199.048 193.81 199.048C190.917 199.048 188.571 201.393 188.571 204.286C188.571 207.179 190.917 209.524 193.81 209.524Z" fill="var(--fill-0, white)"/>
<path id="Vector_119" d="M104.762 209.524H94.2857V214.762C94.2857 216.151 94.8376 217.483 95.8199 218.466C96.8022 219.448 98.1346 220 99.5238 220C100.913 220 102.245 219.448 103.228 218.466C104.21 217.483 104.762 216.151 104.762 214.762" fill="var(--fill-0, white)"/>
<path id="Vector_120" d="M136.19 220V209.524H130.952C129.563 209.524 128.231 210.076 127.248 211.058C126.266 212.04 125.714 213.373 125.714 214.762C125.714 216.151 126.266 217.483 127.248 218.466C128.231 219.448 129.563 220 130.952 220" fill="var(--fill-0, white)"/>
<path id="Vector_121" d="M146.667 209.524H136.19V220H146.667V209.524Z" fill="var(--fill-0, white)"/>
<path id="Vector_122" d="M146.667 209.524V220H151.905C153.294 220 154.627 219.448 155.609 218.466C156.591 217.483 157.143 216.151 157.143 214.762C157.143 213.373 156.591 212.04 155.609 211.058C154.627 210.076 153.294 209.524 151.905 209.524" fill="var(--fill-0, white)"/>
<path id="Vector_123" d="M178.096 220V209.524H167.62C167.62 212.302 168.723 214.967 170.688 216.932C172.653 218.896 175.317 220 178.096 220Z" fill="var(--fill-0, white)"/>
<path id="Vector_124" d="M178.096 209.524V220H183.334C184.723 220 186.055 219.448 187.038 218.466C188.02 217.483 188.572 216.151 188.572 214.762C188.572 213.373 188.02 212.04 187.038 211.058C186.055 210.076 184.723 209.524 183.334 209.524" fill="var(--fill-0, white)"/>
<path id="Vector_125" d="M204.286 220C207.179 220 209.524 217.655 209.524 214.762C209.524 211.869 207.179 209.524 204.286 209.524C201.393 209.524 199.048 211.869 199.048 214.762C199.048 217.655 201.393 220 204.286 220Z" fill="var(--fill-0, white)"/>
</g>
</mask>
<g mask="url(#mask0_5022_16676)">
<path id="Vector_126" d="M225 -5H-5V225H225V-5Z" fill="var(--fill-0, black)"/>
</g>
</g>
</svg>
