<svg preserveAspectRatio="none" width="100%" height="100%" overflow="visible" style="display: block;" viewBox="0 0 80 28.9655" fill="none" xmlns="http://www.w3.org/2000/svg">
<g id="vtb_logo" clip-path="url(#clip0_5022_16816)">
<path id="Vector" fill-rule="evenodd" clip-rule="evenodd" d="M6.0271 0.698074L4.69191 4.36134H23.1947L24.5299 0.698074H6.0271ZM4.02389 6.19213L2.6887 9.85456H21.1915L22.5267 6.19213H4.02389ZM2.02485 11.6862L0.689655 15.3486H19.1925L20.5268 11.6862H2.02485Z" fill="var(--fill-0, #00AAFF)"/>
<path id="Vector_2" fill-rule="evenodd" clip-rule="evenodd" d="M40.0249 16.7447V16.822C40.8704 17.1329 41.6781 17.6765 42.1014 18.0256C43.4089 19.1128 43.9861 20.549 43.9861 22.4126C43.9861 25.4805 42.3706 27.6931 39.7169 28.3921C38.9092 28.6248 38.0637 28.703 36.4861 28.703H28.4492V6.2627H35.5639C37.0255 6.2627 38.025 6.33999 38.9092 6.57269C41.4864 7.27173 43.1784 9.05797 43.1784 11.8914C43.1784 13.4059 42.6399 14.6876 41.7557 15.5412C41.3712 15.9293 40.8327 16.3956 40.0249 16.7447ZM32.9102 19.1128V25.0142H35.9871C36.9092 25.0142 37.7557 24.9369 38.3718 24.3542C38.9867 23.7716 39.256 23.0343 39.256 22.0635C39.256 21.3262 39.0632 20.6272 38.6787 20.1227C38.025 19.3073 37.2172 19.1128 35.8332 19.1128H32.9102ZM32.8715 15.2303H35.3713C36.1403 15.2303 36.5248 15.2303 36.9092 15.1139C37.9485 14.8031 38.6022 13.8722 38.6022 12.5905C38.6022 11.0769 37.9097 10.4161 36.9092 10.1061C36.4861 9.98971 36.0637 9.95065 35.2173 9.95065H32.8715V15.2303ZM50.6775 28.703V10.0279H44.2554V6.2627H62.1001L60.8314 10.0279H55.1388V28.703H50.6775ZM63.4841 28.703V6.2627H77.9449L76.6762 10.0279H67.9073V14.9976H71.484C74.3682 14.9976 75.8684 15.6966 76.9067 16.5893C77.7144 17.2883 79.0987 18.841 79.0987 21.9089C79.0987 24.9369 77.6756 26.6059 76.4834 27.4603C75.0995 28.4303 73.638 28.703 70.6762 28.703H63.4841ZM67.9073 24.9369H71.2535C72.5222 24.9369 73.2912 24.626 73.8297 23.927C74.0989 23.5779 74.4834 22.9562 74.4834 21.7917C74.4834 20.6272 74.0989 19.8118 73.33 19.2291C72.869 18.88 72.253 18.6864 71.2147 18.6864H67.9073V24.9369Z" fill="var(--fill-0, #0A2896)"/>
</g>
<defs>
<clipPath id="clip0_5022_16816">
<rect width="80" height="28.9655" fill="white"/>
</clipPath>
</defs>
</svg>
