<svg preserveAspectRatio="none" width="100%" height="100%" overflow="visible" style="display: block;" viewBox="0 0 116.955 44.3493" fill="none" xmlns="http://www.w3.org/2000/svg">
<g id="Vector">
<path d="M32.9211 25.176V32.1558H27.8382V13.6656H32.9211V20.6455H40.0852V13.6656H45.1865V32.1558H40.0852V25.176H32.9211Z" fill="var(--fill-0, white)"/>
<path d="M102.627 22.9291C102.627 24.3104 103.069 25.4706 103.972 26.4099C104.856 27.3491 105.924 27.8095 107.158 27.8095C108.373 27.8095 109.441 27.3491 110.344 26.4099C111.228 25.4706 111.688 24.3104 111.688 22.9291C111.688 21.5479 111.228 20.3877 110.344 19.43C109.441 18.4908 108.373 18.0119 107.158 18.0119C105.924 18.0119 104.856 18.4908 103.972 19.43C103.069 20.3877 102.627 21.5479 102.627 22.9291ZM116.955 22.9107C116.955 25.489 115.979 27.7359 114.027 29.6512C112.075 31.5665 109.791 32.5242 107.158 32.5242C105.416 32.5242 103.832 32.1109 102.398 31.2843C101.648 30.8526 100.94 30.3083 100.27 29.6512C99.4793 28.8754 98.8488 28.0452 98.3783 27.1607C97.6873 25.8614 97.3418 24.4447 97.3418 22.9107C97.3418 20.3508 98.3179 18.104 100.27 16.1887C102.222 14.2734 104.506 13.3157 107.158 13.3157C109.791 13.3157 112.075 14.2734 114.027 16.1887C115.979 18.104 116.955 20.3508 116.955 22.9107Z" fill="var(--fill-0, white)"/>
<path d="M9.71825 15.5003C5.23542 20.6116 4.57967 25.0411 5.36473 27.7181C6.11486 30.2757 8.27319 31.7584 11.1655 31.3431C12.0973 31.2093 12.9577 30.9797 13.7505 30.678C13.5616 30.1954 13.3918 29.7111 13.2427 29.2269C12.1281 25.6085 12.0566 21.8488 12.9624 18.8577C13.8389 15.9635 15.9801 12.9905 19.6821 12.9905C22.6853 12.9906 24.6124 14.964 25.4311 17.2884C26.2088 19.4966 26.1087 22.1787 25.3735 24.7063C24.5827 27.4252 22.971 30.2368 20.4946 32.4397C21.2622 33.45 22.18 34.3845 23.2612 35.1937C25.876 37.1503 29.5914 38.5004 34.7524 38.3284L34.9214 43.4007C28.7377 43.6068 23.8587 41.9791 20.2202 39.2562C18.6146 38.0546 17.281 36.6625 16.1958 35.1663C14.8945 35.7239 13.4595 36.1396 11.8862 36.3655C6.50545 37.138 1.95783 34.1355 0.494617 29.1468C-0.933547 24.2772 0.689776 18.0987 5.90282 12.1546L9.71825 15.5003ZM19.6821 18.0647C19.2731 18.0647 18.4169 18.3537 17.8188 20.3284C17.2532 22.1961 17.227 24.8935 18.0786 27.6878C19.2566 26.3553 20.0587 24.8113 20.5014 23.2894C21.0317 21.4664 20.9748 19.9131 20.644 18.9739C20.3542 18.1512 20.0207 18.0648 19.6821 18.0647Z" fill="var(--fill-0, white)"/>
<path d="M79.6942 13.6656H84.1326V15.6686V20.9128V32.1558H79.0496V21.7873L71.0016 32.1558H66.6V20.5841V15.1372V13.6656H71.683V24.0526L79.6942 13.6656Z" fill="var(--fill-0, white)"/>
<path d="M85.273 38.4447H87.2494V42.5787H86.113V41.3558H85.5201L84.7624 42.5787H83.5395L84.4248 41.187C84.4042 41.1788 84.3754 41.1623 84.3424 41.1458C84.3095 41.1294 84.2477 41.0841 84.1613 41.01C84.0748 40.9358 83.9966 40.8576 83.9307 40.7711C83.8648 40.6847 83.803 40.5653 83.7495 40.4129C83.696 40.2606 83.6713 40.0959 83.6713 39.9229C83.6713 39.5194 83.8236 39.1736 84.1283 38.8812C84.433 38.593 84.816 38.4447 85.273 38.4447ZM86.113 39.4165H85.3553C85.1906 39.4165 85.0548 39.4659 84.9559 39.5565C84.8571 39.6512 84.8036 39.7747 84.8036 39.9229C84.8036 40.0753 84.853 40.1988 84.9518 40.2894C85.0506 40.3841 85.1865 40.4294 85.3553 40.4294H86.113V39.4165Z" fill="var(--fill-0, white)"/>
<path d="M81.4152 38.4447H82.4075V42.5787H81.2711V40.2606L79.4717 42.5787H78.4876V38.4447H79.6241V40.767L81.4152 38.4447Z" fill="var(--fill-0, white)"/>
<path d="M73.8516 41.6935V39.4165C73.4728 39.4412 73.1846 39.5524 72.9787 39.75C72.7729 39.9518 72.6699 40.2194 72.6699 40.557C72.6699 40.8947 72.7729 41.1623 72.9787 41.36C73.1846 41.5617 73.4728 41.6729 73.8516 41.6935ZM74.9881 42.7064V44.3493H73.8516V42.7064C73.1846 42.6858 72.6329 42.4676 72.1923 42.0476C71.7476 41.6317 71.5294 41.1335 71.5294 40.557C71.5294 39.9806 71.7476 39.4824 72.1923 39.0665C72.6329 38.6465 73.1846 38.4283 73.8516 38.4077V36.6783H74.9881V38.4077C75.651 38.4283 76.2028 38.6465 76.6433 39.0665C77.0839 39.4824 77.3063 39.9806 77.3063 40.557C77.3063 41.1335 77.0839 41.6317 76.6433 42.0476C76.2028 42.4676 75.651 42.6858 74.9881 42.7064ZM74.9881 39.4165V41.6935C75.3628 41.6729 75.6551 41.5617 75.861 41.36C76.0669 41.1623 76.1698 40.8947 76.1698 40.557C76.1698 40.2194 76.0669 39.9518 75.861 39.75C75.6551 39.5524 75.3628 39.4412 74.9881 39.4165Z" fill="var(--fill-0, white)"/>
<path d="M69.2115 42.5787L69.2074 42.1588C69.1745 42.1999 69.1292 42.2452 69.0715 42.3029C69.0139 42.3605 68.8821 42.4346 68.6845 42.5252C68.4868 42.6158 68.281 42.6611 68.0668 42.6611C67.6551 42.6611 67.3216 42.5499 67.0622 42.3193C66.8069 42.0888 66.6751 41.8129 66.6751 41.4835C66.6751 41.1458 66.7863 40.8658 67.0004 40.6394C67.2186 40.417 67.5192 40.2688 67.898 40.1988L69.2074 39.9641C69.2074 39.7912 69.1456 39.6512 69.018 39.54C68.8945 39.433 68.7174 39.3753 68.491 39.3753C68.3057 39.3753 68.1369 39.4124 67.9804 39.4824C67.828 39.5524 67.721 39.6224 67.6551 39.6965L67.5604 39.7953L66.9304 39.1653C66.9469 39.1447 66.9716 39.1159 67.0004 39.0788C67.0292 39.0418 67.0951 38.9759 67.1939 38.8853C67.2928 38.7947 67.4039 38.7165 67.5192 38.6465C67.6386 38.5765 67.7951 38.5106 67.9845 38.453C68.178 38.3953 68.3757 38.3624 68.5774 38.3624C69.0962 38.3624 69.5245 38.5189 69.8539 38.8318C70.1833 39.1447 70.348 39.5359 70.348 40.0053V42.5787H69.2115ZM68.3633 41.7346C68.6227 41.7346 68.8286 41.6564 68.9809 41.4917C69.1333 41.327 69.2074 41.1005 69.2074 40.8082V40.6806L68.281 40.8494C67.9721 40.8988 67.8157 41.0553 67.8157 41.3147C67.8157 41.5947 68.001 41.7346 68.3633 41.7346Z" fill="var(--fill-0, white)"/>
<path d="M63.7685 42.6611C63.5297 42.6611 63.3114 42.6158 63.1056 42.517C62.8997 42.4182 62.7556 42.3235 62.6732 42.2246L62.5456 42.0723V44.3493H61.4091V38.4447H62.5456V38.9512C62.5538 38.9347 62.5703 38.9141 62.595 38.8894C62.6197 38.8647 62.6691 38.8194 62.7432 38.7536C62.8173 38.6877 62.8997 38.6259 62.9903 38.5724C63.0767 38.5189 63.192 38.4695 63.332 38.4283C63.472 38.3871 63.6161 38.3624 63.7685 38.3624C64.3038 38.3624 64.7649 38.5724 65.1602 38.9883C65.5555 39.4041 65.7531 39.9106 65.7531 40.5117C65.7531 41.1129 65.5555 41.6235 65.1602 42.0393C64.7649 42.4552 64.3038 42.6611 63.7685 42.6611ZM63.5585 39.3753C63.2785 39.3753 63.0397 39.4824 62.842 39.6965C62.6444 39.9106 62.5456 40.1823 62.5456 40.5159C62.5456 40.8453 62.6444 41.1211 62.842 41.3352C63.0397 41.5494 63.2785 41.6564 63.5585 41.6564C63.8385 41.6564 64.0773 41.5494 64.2749 41.3352C64.4726 41.1211 64.5714 40.8453 64.5714 40.5159C64.5714 40.1823 64.4726 39.9106 64.2749 39.6965C64.0773 39.4824 63.8385 39.3753 63.5585 39.3753Z" fill="var(--fill-0, white)"/>
<path d="M60.4419 38.4447V39.4988H58.5849V42.5787H57.4484V38.4447H60.4419Z" fill="var(--fill-0, white)"/>
<path d="M53.0636 40.5159C53.0636 40.8247 53.1624 41.0841 53.3642 41.2941C53.5618 41.5041 53.8006 41.607 54.0765 41.607C54.3483 41.607 54.5871 41.5041 54.7888 41.2941C54.9865 41.0841 55.0894 40.8247 55.0894 40.5159C55.0894 40.207 54.9865 39.9476 54.7888 39.7335C54.5871 39.5235 54.3483 39.4165 54.0765 39.4165C53.8006 39.4165 53.5618 39.5235 53.3642 39.7335C53.1624 39.9476 53.0636 40.207 53.0636 40.5159ZM56.267 40.5117C56.267 41.0882 56.0488 41.5905 55.6123 42.0188C55.1759 42.447 54.6653 42.6611 54.0765 42.6611C53.4836 42.6611 52.973 42.447 52.5365 42.0188C52.1001 41.5905 51.8819 41.0882 51.8819 40.5117C51.8819 39.9394 52.1001 39.4371 52.5365 39.0088C52.973 38.5806 53.4836 38.3665 54.0765 38.3665C54.6653 38.3665 55.1759 38.5806 55.6123 39.0088C56.0488 39.4371 56.267 39.9394 56.267 40.5117Z" fill="var(--fill-0, white)"/>
<path d="M47.9623 39.4577V42.5787H46.8259V38.4447H50.7046V42.5787H49.564V39.4577H47.9623Z" fill="var(--fill-0, white)"/>
<path d="M44.401 38.4447H45.3933V42.5787H44.2569V40.2606L42.4575 42.5787H41.4734V38.4447H42.6099V40.767L44.401 38.4447Z" fill="var(--fill-0, white)"/>
<path d="M36.7098 39.5441V38.4447H40.465V39.5441H39.1556V42.5787H38.0191V39.5441H36.7098Z" fill="var(--fill-0, white)"/>
<path fill-rule="evenodd" clip-rule="evenodd" d="M51.937 2.30679C46.6208 -0.0252283 39.7213 -0.769829 31.1538 0.915185L32.1333 5.89468C39.9225 4.36274 45.7314 5.12611 49.8989 6.95425C53.4963 8.53244 55.9907 10.9558 57.5561 13.6281C57.2112 13.648 56.8683 13.6779 56.5288 13.7208C54.3433 13.9973 52.1786 14.7827 50.4057 16.3761C48.6186 17.9825 47.4287 20.2322 46.9008 23.0753C46.3323 26.1383 47.1543 29.0612 48.9057 31.1085C50.6669 33.1673 53.4186 34.3542 56.3833 33.6544C60.5711 32.6659 63.1544 29.2451 64.1753 25.3859C64.6344 23.6502 64.8005 21.7658 64.6684 19.8361C65.3202 20.0603 65.967 20.3111 66.6 20.5841V15.1372C65.5808 14.7765 64.5178 14.4589 63.435 14.2072C63.2493 13.7133 63.0438 13.2223 62.8169 12.7375C60.8362 8.50545 57.2636 4.64343 51.937 2.30679ZM57.1655 18.756C57.8769 18.666 58.6364 18.6531 59.4253 18.7062C59.7621 20.6393 59.6886 22.5018 59.269 24.088C58.5754 26.7102 57.0687 28.279 55.2173 28.716C54.3492 28.9208 53.4627 28.6286 52.7622 27.8097C52.0518 26.9793 51.5885 25.6256 51.8901 24.0011C52.2514 22.0553 52.9837 20.8827 53.7983 20.1505C54.6269 19.4058 55.7434 18.9359 57.1655 18.756Z" fill="var(--fill-0, white)"/>
<path d="M95.5457 17.0327C94.4631 15.0019 92.1835 14.6317 90.3366 14.665C88.7438 14.6938 86.7022 15.0251 84.1326 15.6686V20.9128C87.1863 20.0823 89.1828 19.7611 90.4278 19.7386C90.5629 19.7361 90.6825 19.738 90.7871 19.7413L90.778 19.7669C90.7559 19.8288 90.7321 19.8955 90.7043 19.9656C90.3525 20.8527 89.7761 21.8828 89.0897 23.1377C88.4657 24.2784 87.7131 25.67 87.3074 26.9601C86.9489 28.1007 86.5007 30.318 88.2065 31.9567C88.9815 32.7012 89.954 33.047 90.8675 33.2C91.7841 33.3535 92.8218 33.3438 93.952 33.2257C96.0359 33.0079 98.7978 32.3789 102.398 31.2843C101.648 30.8526 100.94 30.3083 100.27 29.6512C99.4793 28.8754 98.8488 28.0452 98.3783 27.1607C96.2304 27.7376 94.6155 28.0539 93.4245 28.1783C92.9241 28.2306 92.5334 28.2413 92.2341 28.2347C92.4886 27.541 92.9435 26.6678 93.5425 25.5727C94.1524 24.4577 94.925 23.0878 95.4216 21.8354C95.6746 21.1973 95.9096 20.4634 95.9975 19.7023C96.0856 18.9388 96.0452 17.9699 95.5457 17.0327Z" fill="var(--fill-0, white)"/>
</g>
</svg>
