<svg preserveAspectRatio="none" width="100%" height="100%" overflow="visible" style="display: block;" viewBox="0 0 1487.87 1125.14" fill="none" xmlns="http://www.w3.org/2000/svg">
<g id="Group 1">
<path id="Vector 274" opacity="0.2" d="M1358.86 303.33C1374.02 334.542 1355.98 354.448 1337.9 346.575C1309.76 334.327 1315.58 295.605 1330.79 299.781C1349.5 304.918 1331.63 363.859 1280.48 347.962C1255.9 340.324 1244.77 340.473 1233.5 348.277M1194.91 376.503C1186.11 342.94 1207.68 326.921 1223.88 338.159C1228.11 341.087 1231.25 344.559 1233.5 348.277M1233.5 348.277C1244.64 366.756 1233.5 391.314 1221.76 385.442C1211.55 380.338 1217.38 359.429 1233.5 348.277Z" stroke="var(--stroke-0, #D0D0D0)" stroke-width="11.9738" stroke-linecap="round"/>
<path id="Vector 397" opacity="0.2" d="M129.011 821.806C113.857 790.593 131.894 770.688 149.976 778.56C178.109 790.808 172.291 829.531 157.083 825.355C138.376 820.218 156.242 761.276 207.396 777.174C231.973 784.812 243.099 784.662 254.378 776.858M292.962 748.632C301.759 782.195 280.196 798.214 263.989 786.977C259.766 784.048 256.621 780.576 254.378 776.858M254.378 776.858C243.233 758.379 254.372 733.822 266.115 739.693C276.323 744.797 270.495 765.706 254.378 776.858Z" stroke="var(--stroke-0, #D0D0D0)" stroke-width="11.9738" stroke-linecap="round"/>
<path id="Vector 328" opacity="0.2" d="M986.896 381.549C1007.16 409.713 992.791 432.408 973.63 427.742C943.818 420.482 942.933 381.335 958.63 382.85C977.94 384.715 970.411 445.842 917.293 438.921C891.772 435.596 880.834 437.645 871.055 447.262M837.863 481.667C823.459 450.101 841.968 430.633 859.856 438.935C864.518 441.098 868.21 443.982 871.055 447.262M871.055 447.262C885.195 463.564 878.416 489.664 865.843 485.886C854.913 482.602 857.082 461.004 871.055 447.262Z" stroke="var(--stroke-0, #D0D0D0)" stroke-width="11.9738" stroke-linecap="round"/>
<path id="Vector 398" opacity="0.2" d="M500.977 743.586C480.711 715.422 495.082 692.727 514.243 697.393C544.055 704.653 544.941 743.8 529.243 742.285C509.933 740.421 517.462 679.293 570.581 686.214C596.101 689.539 607.039 687.491 616.818 677.873M650.01 643.468C664.414 675.034 645.906 694.503 628.017 686.201C623.355 684.037 619.663 681.153 616.818 677.873M616.818 677.873C602.679 661.571 609.457 635.471 622.031 639.249C632.961 642.533 630.792 664.131 616.818 677.873Z" stroke="var(--stroke-0, #D0D0D0)" stroke-width="11.9738" stroke-linecap="round"/>
<path id="Vector 301" opacity="0.2" d="M1143.01 568.412C1127.86 537.199 1145.89 517.294 1163.98 525.166C1192.11 537.414 1186.29 576.137 1171.08 571.961C1152.38 566.824 1170.24 507.882 1221.4 523.78C1245.97 531.417 1257.1 531.268 1268.38 523.464M1306.96 495.238C1315.76 528.801 1294.2 544.82 1277.99 533.583C1273.77 530.654 1270.62 527.182 1268.38 523.464M1268.38 523.464C1257.23 504.985 1268.37 480.428 1280.12 486.299C1290.32 491.403 1284.49 512.312 1268.38 523.464Z" stroke="var(--stroke-0, #D0D0D0)" stroke-width="11.9738" stroke-linecap="round"/>
<path id="Vector 399" opacity="0.2" d="M344.863 556.724C360.017 587.936 341.979 607.842 323.897 599.969C295.765 587.722 301.582 548.999 316.79 553.175C335.498 558.312 317.632 617.253 266.478 601.356C241.901 593.718 230.774 593.867 219.495 601.671M180.911 629.897C172.114 596.334 193.678 580.315 209.884 591.553C214.108 594.481 217.253 597.953 219.495 601.671M219.495 601.671C230.641 620.15 219.501 644.708 207.758 638.836C197.55 633.732 203.379 612.823 219.495 601.671Z" stroke="var(--stroke-0, #D0D0D0)" stroke-width="11.9738" stroke-linecap="round"/>
<path id="Vector 329" opacity="0.2" d="M819.525 679.622C799.259 651.459 813.63 628.763 832.791 633.43C862.603 640.689 863.489 679.837 847.791 678.321C828.481 676.457 836.01 615.329 889.129 622.25C914.649 625.575 925.587 623.527 935.366 613.91M968.558 579.505C982.962 611.071 964.453 630.539 946.565 622.237C941.903 620.073 938.211 617.19 935.366 613.91M935.366 613.91C921.226 597.607 928.005 571.507 940.579 575.286C951.509 578.57 949.34 600.167 935.366 613.91Z" stroke="var(--stroke-0, #D0D0D0)" stroke-width="11.9738" stroke-linecap="round"/>
<path id="Vector 400" opacity="0.2" d="M668.349 445.513C688.614 473.676 674.244 496.372 655.082 491.706C625.271 484.446 624.385 445.299 640.083 446.814C659.393 448.678 651.863 509.806 598.745 502.885C573.224 499.56 562.286 501.608 552.507 511.226M519.315 545.631C504.911 514.065 523.42 494.596 541.309 502.898C545.97 505.062 549.662 507.946 552.507 511.226M552.507 511.226C566.647 527.528 559.869 553.628 547.295 549.85C536.365 546.565 538.534 524.968 552.507 511.226Z" stroke="var(--stroke-0, #D0D0D0)" stroke-width="11.9738" stroke-linecap="round"/>
<path id="Vector 388" opacity="0.2" d="M1205.46 953.024C1239.26 945.203 1243.42 918.663 1225.93 909.542C1198.73 895.351 1172.26 924.207 1185.06 933.414C1200.81 944.74 1235.44 893.808 1190.93 864C1169.55 849.679 1162.67 840.929 1161.66 827.251M1159.38 779.499C1127.74 793.743 1128.82 820.584 1147.75 826.131C1152.68 827.577 1157.36 827.842 1161.66 827.251M1161.66 827.251C1183.04 824.311 1195.14 800.216 1183.2 794.769C1172.81 790.034 1160.21 807.706 1161.66 827.251Z" stroke="var(--stroke-0, #D0D0D0)" stroke-width="11.9738" stroke-linecap="round"/>
<path id="Vector 401" opacity="0.2" d="M282.415 172.111C248.611 179.933 244.458 206.472 261.944 215.593C289.148 229.784 315.618 200.929 302.814 191.721C287.064 180.395 252.434 231.327 296.942 261.135C318.325 275.456 325.2 284.206 326.215 297.885M328.498 345.636C360.136 331.392 359.05 304.552 340.126 299.004C335.194 297.558 330.517 297.293 326.215 297.885M326.215 297.885C304.836 300.824 292.73 324.919 304.676 330.366C315.06 335.101 327.665 317.429 326.215 297.885Z" stroke="var(--stroke-0, #D0D0D0)" stroke-width="11.9738" stroke-linecap="round"/>
<path id="Vector 275" opacity="0.2" d="M1242.09 288.993C1226.93 257.781 1244.97 237.875 1263.05 245.748C1291.19 257.996 1285.37 296.718 1270.16 292.542C1251.45 287.405 1269.32 228.464 1320.47 244.361C1345.05 251.999 1356.18 251.85 1367.46 244.046M1406.04 215.82C1414.84 249.383 1393.27 265.402 1377.07 254.164C1372.84 251.236 1369.7 247.764 1367.46 244.046M1367.46 244.046C1356.31 225.567 1367.45 201.009 1379.19 206.881C1389.4 211.985 1383.57 232.894 1367.46 244.046Z" stroke="var(--stroke-0, #D0D0D0)" stroke-width="11.9738" stroke-linecap="round"/>
<path id="Vector 402" opacity="0.2" d="M245.785 836.142C260.939 867.355 242.901 887.26 224.819 879.388C196.687 867.14 202.504 828.417 217.712 832.593C236.42 837.73 218.554 896.671 167.4 880.774C142.823 873.136 131.696 873.285 120.417 881.089M81.8331 909.316C73.0362 875.752 94.5998 859.733 110.806 870.971C115.03 873.899 118.174 877.371 120.417 881.089M120.417 881.089C131.563 899.568 120.423 924.126 108.68 918.254C98.4721 913.15 104.3 892.241 120.417 881.089Z" stroke="var(--stroke-0, #D0D0D0)" stroke-width="11.9738" stroke-linecap="round"/>
<path id="Vector 330" opacity="0.2" d="M869.39 387.382C849.125 359.218 863.495 336.523 882.656 341.189C912.468 348.449 913.354 387.596 897.656 386.081C878.346 384.217 885.876 323.089 938.994 330.01C964.515 333.335 975.452 331.286 985.231 321.669M1018.42 287.264C1032.83 318.83 1014.32 338.299 996.43 329.996C991.768 327.833 988.076 324.949 985.231 321.669M985.231 321.669C971.092 305.367 977.87 279.267 990.444 283.045C1001.37 286.329 999.205 307.927 985.231 321.669Z" stroke="var(--stroke-0, #D0D0D0)" stroke-width="11.9738" stroke-linecap="round"/>
<path id="Vector 403" opacity="0.2" d="M618.483 737.753C638.749 765.917 624.378 788.612 605.217 783.946C575.405 776.686 574.519 737.539 590.217 739.054C609.527 740.919 601.998 802.046 548.879 795.125C523.359 791.8 512.421 793.849 502.642 803.466M469.45 837.871C455.046 806.305 473.555 786.837 491.443 795.139C496.105 797.303 499.797 800.186 502.642 803.466M502.642 803.466C516.782 819.768 510.003 845.868 497.43 842.09C486.5 838.806 488.669 817.208 502.642 803.466Z" stroke="var(--stroke-0, #D0D0D0)" stroke-width="11.9738" stroke-linecap="round"/>
<path id="Vector 302" opacity="0.2" d="M1259.78 582.748C1274.94 613.961 1256.9 633.866 1238.82 625.994C1210.69 613.746 1216.5 575.023 1231.71 579.199C1250.42 584.336 1232.55 643.277 1181.4 627.38C1156.82 619.742 1145.7 619.891 1134.42 627.695" stroke="var(--stroke-0, #D0D0D0)" stroke-width="11.9738" stroke-linecap="round"/>
<path id="Vector 404" opacity="0.2" d="M228.089 542.387C212.935 511.175 230.973 491.269 249.055 499.142C277.187 511.39 271.369 550.113 256.161 545.936C237.454 540.799 255.32 481.858 306.474 497.755C331.051 505.393 342.178 505.244 353.456 497.44" stroke="var(--stroke-0, #D0D0D0)" stroke-width="11.9738" stroke-linecap="round"/>
<path id="Vector 331" opacity="0.2" d="M937.031 673.79C957.297 701.953 942.926 724.649 923.765 719.983C893.953 712.723 893.067 673.575 908.765 675.091C928.075 676.955 920.546 738.083 867.427 731.162C841.907 727.837 830.969 729.885 821.19 739.502M787.998 773.908C773.594 742.342 792.103 722.873 809.991 731.175C814.653 733.339 818.345 736.222 821.19 739.502M821.19 739.502C835.33 755.805 828.551 781.905 815.977 778.127C805.047 774.842 807.216 753.245 821.19 739.502Z" stroke="var(--stroke-0, #D0D0D0)" stroke-width="11.9738" stroke-linecap="round"/>
<path id="Vector 405" opacity="0.2" d="M550.842 451.345C530.577 423.182 544.947 400.487 564.109 405.153C593.92 412.412 594.806 451.56 579.108 450.044C559.798 448.18 567.328 387.053 620.446 393.973C645.967 397.299 656.904 395.25 666.683 385.633M699.876 351.228C714.279 382.794 695.771 402.262 677.882 393.96C673.22 391.796 669.528 388.913 666.683 385.633M666.683 385.633C652.544 369.331 659.322 343.231 671.896 347.009C682.826 350.293 680.657 371.891 666.683 385.633Z" stroke="var(--stroke-0, #D0D0D0)" stroke-width="11.9738" stroke-linecap="round"/>
<path id="Vector 276" opacity="0.2" d="M1054.98 356.896C1081.07 334.017 1105.04 346.138 1102.24 365.66C1097.88 396.031 1058.99 400.677 1058.99 384.906C1058.99 365.507 1120.56 367.123 1118.78 420.661" stroke="var(--stroke-0, #D0D0D0)" stroke-width="11.9738" stroke-linecap="round"/>
<path id="Vector 406" opacity="0.2" d="M432.893 768.239C406.808 791.119 382.836 778.997 385.638 759.476C389.998 729.104 428.879 724.458 428.88 740.229C428.881 759.629 367.312 758.012 369.094 704.474" stroke="var(--stroke-0, #D0D0D0)" stroke-width="11.9738" stroke-linecap="round"/>
<path id="Vector 332" opacity="0.2" d="M696.64 486.264C718.431 459.263 744.122 467.109 744.697 486.822C745.592 517.492 708.078 528.715 705.381 513.176C702.065 494.062 763.004 485.132 770.398 538.187" stroke="var(--stroke-0, #D0D0D0)" stroke-width="11.9738" stroke-linecap="round"/>
<path id="Vector 407" opacity="0.2" d="M791.233 638.871C769.443 665.872 743.752 658.026 743.176 638.313C742.281 607.643 779.796 596.421 782.492 611.959C785.809 631.073 724.87 640.003 717.475 586.948" stroke="var(--stroke-0, #D0D0D0)" stroke-width="11.9738" stroke-linecap="round"/>
<path id="Vector 303" opacity="0.2" d="M1446.89 514.845C1420.81 537.725 1396.84 525.603 1399.64 506.082C1404 475.71 1442.88 471.064 1442.88 486.835C1442.88 506.235 1381.31 504.618 1383.09 451.08" stroke="var(--stroke-0, #D0D0D0)" stroke-width="11.9738" stroke-linecap="round"/>
<path id="Vector 408" opacity="0.2" d="M40.9809 610.29C67.0653 587.411 91.0373 599.532 88.2352 619.054C83.8756 649.425 44.9948 654.071 44.9938 638.3C44.9926 618.901 106.561 620.517 104.78 674.055" stroke="var(--stroke-0, #D0D0D0)" stroke-width="11.9738" stroke-linecap="round"/>
<path id="Vector 333" opacity="0.2" d="M1109.78 574.908C1087.99 601.909 1062.3 594.062 1061.72 574.35C1060.83 543.68 1098.34 532.457 1101.04 547.996C1104.36 567.11 1043.42 576.039 1036.02 522.985" stroke="var(--stroke-0, #D0D0D0)" stroke-width="11.9738" stroke-linecap="round"/>
<path id="Vector 409" opacity="0.2" d="M378.093 550.228C399.883 523.227 425.574 531.073 426.149 550.786C427.045 581.456 389.53 592.678 386.833 577.14C383.517 558.026 444.456 549.096 451.851 602.151" stroke="var(--stroke-0, #D0D0D0)" stroke-width="11.9738" stroke-linecap="round"/>
<path id="Vector 277" opacity="0.2" d="M1255.28 26.6637C1283.26 47.1802 1276.61 73.207 1256.95 74.6947C1226.35 77.0094 1213.41 40.0545 1228.8 36.6415C1247.74 32.4432 1259.48 92.9032 1206.83 102.747C1181.53 107.477 1171.76 112.807 1165.44 124.977M1144.51 167.959C1121.05 142.395 1132.63 118.157 1152.21 120.521C1157.31 121.137 1161.72 122.737 1165.44 124.977M1165.44 124.977C1183.93 136.108 1185.55 163.025 1172.42 163.32C1161.01 163.576 1156.4 142.366 1165.44 124.977Z" stroke="var(--stroke-0, #D0D0D0)" stroke-width="11.9738" stroke-linecap="round"/>
<path id="Vector 410" opacity="0.2" d="M232.592 1098.47C204.611 1077.96 211.259 1051.93 230.925 1050.44C261.52 1048.13 274.468 1085.08 259.071 1088.49C240.131 1092.69 228.389 1032.23 281.044 1022.39C306.342 1017.66 316.11 1012.33 322.436 1000.16M343.363 957.176C366.821 982.741 355.24 1006.98 335.661 1004.61C330.559 1004 326.156 1002.4 322.436 1000.16M322.436 1000.16C303.948 989.028 302.324 962.111 315.45 961.816C326.86 961.559 331.475 982.769 322.436 1000.16Z" stroke="var(--stroke-0, #D0D0D0)" stroke-width="11.9738" stroke-linecap="round"/>
<path id="Vector 334" opacity="0.2" d="M813.917 141.395C846.224 154.048 846.474 180.909 827.849 187.391C798.87 197.476 776.877 165.079 790.883 157.831C808.113 148.915 834.97 204.34 786.601 227.361C763.363 238.421 755.289 246.079 752.296 259.464M743.095 306.376C713.864 287.684 718.84 261.286 738.371 258.549C743.46 257.836 748.126 258.253 752.296 259.464M752.296 259.464C773.02 265.48 781.495 291.08 768.884 294.732C757.922 297.907 748.02 278.59 752.296 259.464Z" stroke="var(--stroke-0, #D0D0D0)" stroke-width="11.9738" stroke-linecap="round"/>
<path id="Vector 411" opacity="0.2" d="M673.957 983.74C641.649 971.087 641.399 944.226 660.025 937.744C689.003 927.659 710.997 960.056 696.99 967.305C679.761 976.221 652.904 920.795 701.272 897.774C724.51 886.714 732.585 879.057 735.577 865.671M744.779 818.759C774.01 837.451 769.033 863.849 749.503 866.586C744.413 867.3 739.747 866.882 735.577 865.671M735.577 865.671C714.853 859.655 706.379 834.055 718.99 830.403C729.952 827.229 739.854 846.545 735.577 865.671Z" stroke="var(--stroke-0, #D0D0D0)" stroke-width="11.9738" stroke-linecap="round"/>
<path id="Vector 304" opacity="0.2" d="M1214.28 838.097C1193.3 810.465 1207.08 787.407 1226.35 791.578C1256.34 798.067 1258.24 837.179 1242.51 836.068C1223.15 834.702 1229.11 773.401 1282.39 778.951C1307.98 781.618 1318.86 779.288 1328.39 769.423M1360.69 734.174C1375.9 765.358 1357.9 785.297 1339.8 777.459C1335.09 775.416 1331.32 772.628 1328.39 769.423M1328.39 769.423C1313.84 753.49 1319.94 727.224 1332.61 730.677C1343.62 733.679 1342.01 755.325 1328.39 769.423Z" stroke="var(--stroke-0, #D0D0D0)" stroke-width="11.9738" stroke-linecap="round"/>
<path id="Vector 412" opacity="0.2" d="M273.591 287.038C294.576 314.67 280.795 337.728 261.519 333.557C231.531 327.068 229.637 287.956 245.368 289.067C264.72 290.433 258.767 351.734 205.488 346.184C179.891 343.517 169.009 345.847 159.481 355.713M127.186 390.961C111.974 359.777 129.975 339.838 148.072 347.677C152.788 349.72 156.553 352.507 159.481 355.713M159.481 355.713C174.036 371.645 167.932 397.911 155.265 394.458C144.254 391.457 145.866 369.81 159.481 355.713Z" stroke="var(--stroke-0, #D0D0D0)" stroke-width="11.9738" stroke-linecap="round"/>
<path id="Vector 335" opacity="0.2" d="M968.867 934.515C937.791 919.082 939.893 892.302 959.015 887.475C988.764 879.966 1007.84 914.164 993.25 920.158C975.307 927.532 953.404 869.968 1003.6 851.27C1027.72 842.286 1036.43 835.365 1040.59 822.293M1053.86 776.366C1081.34 797.546 1074.07 823.406 1054.38 824.423C1049.25 824.689 1044.63 823.864 1040.59 822.293M1040.59 822.293C1020.47 814.486 1014.27 788.242 1027.15 785.708C1038.35 783.505 1046.52 803.614 1040.59 822.293Z" stroke="var(--stroke-0, #D0D0D0)" stroke-width="11.9738" stroke-linecap="round"/>
<path id="Vector 413" opacity="0.2" d="M519.006 190.621C550.082 206.053 547.98 232.833 528.859 237.66C499.109 245.17 480.036 210.971 494.623 204.977C512.567 197.603 534.469 255.167 484.271 273.865C460.154 282.849 451.44 289.77 447.287 302.842M434.015 348.769C406.532 327.59 413.8 301.729 433.495 300.712C438.628 300.447 443.239 301.271 447.287 302.842M447.287 302.842C467.405 310.65 473.606 336.893 460.724 339.427C449.526 341.63 441.353 321.521 447.287 302.842Z" stroke="var(--stroke-0, #D0D0D0)" stroke-width="11.9738" stroke-linecap="round"/>
<path id="Vector 278" opacity="0.2" d="M1289.85 370.334C1310.66 398.095 1296.74 421.067 1277.49 416.778C1247.54 410.104 1245.89 370.981 1261.61 372.189C1280.95 373.674 1274.62 434.937 1221.38 429.059" stroke="var(--stroke-0, #D0D0D0)" stroke-width="11.9738" stroke-linecap="round"/>
<path id="Vector 414" opacity="0.2" d="M198.026 754.801C177.213 727.04 191.136 704.068 210.385 708.358C240.333 715.032 241.986 754.154 226.261 752.947C206.919 751.461 213.249 690.198 266.493 696.077" stroke="var(--stroke-0, #D0D0D0)" stroke-width="11.9738" stroke-linecap="round"/>
<path id="Vector 336" opacity="0.2" d="M930.347 459.363C955.599 483.158 945.807 508.173 926.108 507.236C895.46 505.778 887.145 467.514 902.845 466.016C922.157 464.174 926.39 525.618 872.925 528.926" stroke="var(--stroke-0, #D0D0D0)" stroke-width="11.9738" stroke-linecap="round"/>
<path id="Vector 527" opacity="0.2" d="M695.86 244.606C666.592 263.24 644.749 247.604 650.495 228.738C659.436 199.387 698.57 200.725 696.166 216.312C693.209 235.485 632.607 224.497 642.532 171.857" stroke="var(--stroke-0, #D0D0D0)" stroke-width="11.9738" stroke-linecap="round"/>
<path id="Vector 415" opacity="0.2" d="M557.526 665.772C532.274 641.977 542.066 616.963 561.765 617.899C592.414 619.357 600.728 657.621 585.029 659.119C565.717 660.961 561.483 599.517 614.949 596.21" stroke="var(--stroke-0, #D0D0D0)" stroke-width="11.9738" stroke-linecap="round"/>
<path id="Vector 305" opacity="0.2" d="M1212.03 501.407C1191.21 473.646 1205.14 450.674 1224.38 454.964C1254.33 461.638 1255.99 500.76 1240.26 499.553C1220.92 498.067 1227.25 436.804 1280.49 442.682" stroke="var(--stroke-0, #D0D0D0)" stroke-width="11.9738" stroke-linecap="round"/>
<path id="Vector 416" opacity="0.2" d="M275.847 623.728C296.661 651.489 282.738 674.462 263.489 670.172C233.54 663.498 231.887 624.375 247.612 625.583C266.955 627.068 260.625 688.332 207.381 682.453" stroke="var(--stroke-0, #D0D0D0)" stroke-width="11.9738" stroke-linecap="round"/>
<path id="Vector 337" opacity="0.2" d="M876.073 601.809C850.821 578.013 860.613 552.999 880.312 553.936C910.96 555.393 919.275 593.658 903.576 595.156C884.264 596.998 880.03 535.554 933.495 532.246" stroke="var(--stroke-0, #D0D0D0)" stroke-width="11.9738" stroke-linecap="round"/>
<path id="Vector 417" opacity="0.2" d="M611.8 523.327C637.052 547.122 627.26 572.136 607.561 571.199C576.913 569.742 568.598 531.477 584.298 529.98C603.61 528.138 607.843 589.582 554.378 592.889" stroke="var(--stroke-0, #D0D0D0)" stroke-width="11.9738" stroke-linecap="round"/>
<path id="Vector 279" opacity="0.2" d="M1311.1 221.989C1290.29 194.228 1304.21 171.255 1323.46 175.545C1353.41 182.219 1355.06 221.342 1339.34 220.134C1320 218.649 1326.33 157.385 1379.57 163.264C1405.15 166.088 1416.05 163.826 1425.64 154.019M1425.64 154.019C1428.54 157.242 1432.29 160.053 1437 162.125C1492.55 182.112 1438.35 77.4151 1432.35 65.0916M1425.64 154.019C1411.18 137.997 1417.45 111.769 1430.09 115.3C1441.08 118.369 1439.34 140.005 1425.64 154.019Z" stroke="var(--stroke-0, #D0D0D0)" stroke-width="11.9738" stroke-linecap="round"/>
<path id="Vector 418" opacity="0.2" d="M176.769 903.147C197.583 930.908 183.659 953.88 164.41 949.59C134.462 942.916 132.809 903.794 148.534 905.001C167.877 906.487 161.547 967.75 108.303 961.872C82.7219 959.047 71.8263 961.31 62.2376 971.117M62.2376 971.117C59.3289 967.893 55.5812 965.082 50.8779 963.01C-4.67645 943.023 49.5254 1047.72 55.5212 1060.04M62.2376 971.117C76.6941 987.139 70.4284 1013.37 57.7829 1009.84C46.7907 1006.77 48.5361 985.13 62.2376 971.117Z" stroke="var(--stroke-0, #D0D0D0)" stroke-width="11.9738" stroke-linecap="round"/>
<path id="Vector 338" opacity="0.2" d="M925.938 309.568C900.686 285.772 910.478 260.758 930.177 261.695C960.826 263.152 969.141 301.417 953.441 302.915C934.129 304.757 931.694 263.289 984.878 233.417C999.395 225.263 1009.74 221.172 1017.51 209.87M1017.51 209.87C1020.93 212.549 1025.1 214.678 1030.09 215.915C1088.25 226.114 1016.95 132.221 1008.93 121.103M1017.51 209.87C1000.53 196.554 1002.22 169.642 1015.29 170.96C1026.64 172.105 1028.62 193.721 1017.51 209.87Z" stroke="var(--stroke-0, #D0D0D0)" stroke-width="11.9738" stroke-linecap="round"/>
<path id="Vector 419" opacity="0.2" d="M561.935 815.568C587.187 839.363 577.395 864.377 557.696 863.44C527.048 861.983 518.733 823.718 534.432 822.221C553.745 820.378 556.179 861.846 502.996 891.719C488.479 899.872 478.13 903.964 470.359 915.265M470.359 915.265C466.942 912.586 462.769 910.457 457.781 909.22C399.628 899.021 470.926 992.914 478.94 1004.03M470.359 915.265C487.341 928.581 485.65 955.494 472.587 954.176C461.232 953.03 459.254 931.414 470.359 915.265Z" stroke="var(--stroke-0, #D0D0D0)" stroke-width="11.9738" stroke-linecap="round"/>
<path id="Vector 306" opacity="0.2" d="M1190.77 649.753C1211.58 677.514 1197.66 700.486 1178.41 696.196C1148.46 689.522 1146.81 650.4 1162.53 651.607" stroke="var(--stroke-0, #D0D0D0)" stroke-width="11.9738" stroke-linecap="round"/>
<path id="Vector 420" opacity="0.2" d="M297.105 475.383C276.291 447.622 290.214 424.649 309.463 428.939C339.411 435.613 341.064 474.736 325.34 473.528" stroke="var(--stroke-0, #D0D0D0)" stroke-width="11.9738" stroke-linecap="round"/>
<path id="Vector 339" opacity="0.2" d="M880.482 751.604C905.734 775.399 895.942 800.414 876.243 799.477C845.595 798.019 837.28 759.755 852.979 758.257" stroke="var(--stroke-0, #D0D0D0)" stroke-width="11.9738" stroke-linecap="round"/>
<path id="Vector 421" opacity="0.2" d="M607.391 373.531C582.14 349.736 591.931 324.722 611.631 325.659C642.279 327.116 650.594 365.381 634.894 366.878" stroke="var(--stroke-0, #D0D0D0)" stroke-width="11.9738" stroke-linecap="round"/>
<path id="Vector 280" opacity="0.2" d="M1137.87 405.701C1159.13 378.278 1184.97 385.619 1185.93 405.317C1187.43 435.963 1150.14 447.919 1147.14 432.436" stroke="var(--stroke-0, #D0D0D0)" stroke-width="11.9738" stroke-linecap="round"/>
<path id="Vector 422" opacity="0.2" d="M350.001 719.435C328.744 746.858 302.904 739.516 301.943 719.818C300.447 689.172 337.734 677.216 340.735 692.699" stroke="var(--stroke-0, #D0D0D0)" stroke-width="11.9738" stroke-linecap="round"/>
<path id="Vector 340" opacity="0.2" d="M786.653 520.183C802.911 489.531 829.625 492.348 833.939 511.592C840.651 541.532 805.955 559.684 800.353 544.942" stroke="var(--stroke-0, #D0D0D0)" stroke-width="11.9738" stroke-linecap="round"/>
<path id="Vector 536" opacity="0.2" d="M560.295 201.341C576.552 170.689 603.267 173.506 607.581 192.749C614.293 222.689 579.597 240.842 573.995 226.099" stroke="var(--stroke-0, #D0D0D0)" stroke-width="11.9738" stroke-linecap="round"/>
<path id="Vector 423" opacity="0.2" d="M701.22 604.952C684.963 635.604 658.248 632.787 653.934 613.544C647.222 583.604 681.918 565.451 687.52 580.193" stroke="var(--stroke-0, #D0D0D0)" stroke-width="11.9738" stroke-linecap="round"/>
<path id="Vector 307" opacity="0.2" d="M1364 466.041C1342.74 493.463 1316.9 486.122 1315.94 466.424C1314.45 435.778 1351.73 423.822 1354.73 439.305" stroke="var(--stroke-0, #D0D0D0)" stroke-width="11.9738" stroke-linecap="round"/>
<path id="Vector 424" opacity="0.2" d="M123.872 659.095C145.129 631.672 170.969 639.013 171.931 658.711C173.427 689.358 136.139 701.313 133.139 685.83" stroke="var(--stroke-0, #D0D0D0)" stroke-width="11.9738" stroke-linecap="round"/>
<path id="Vector 341" opacity="0.2" d="M1019.77 540.988C1003.51 571.641 976.796 568.824 972.482 549.58C965.77 519.64 1000.47 501.488 1006.07 516.23" stroke="var(--stroke-0, #D0D0D0)" stroke-width="11.9738" stroke-linecap="round"/>
<path id="Vector 425" opacity="0.2" d="M468.106 584.147C484.363 553.495 511.077 556.312 515.391 575.555C522.103 605.495 487.407 623.648 481.805 608.905" stroke="var(--stroke-0, #D0D0D0)" stroke-width="11.9738" stroke-linecap="round"/>
<path id="Vector 281" opacity="0.2" d="M1194.55 207.26C1169.21 202.747 1158.19 204.283 1147.97 213.433M1147.97 213.433C1145.28 210.024 1141.73 206.971 1137.17 204.593C1083.07 180.969 1094.88 264.851 1135.38 301.72M1147.97 213.433C1161.34 230.378 1153.35 256.133 1140.96 251.772C1130.2 247.981 1133.37 226.508 1147.97 213.433Z" stroke="var(--stroke-0, #D0D0D0)" stroke-width="11.9738" stroke-linecap="round"/>
<path id="Vector 426" opacity="0.2" d="M293.325 917.875C318.662 922.388 329.684 920.852 339.901 911.702M339.901 911.702C342.59 915.111 346.143 918.164 350.699 920.543C404.807 944.166 392.996 860.284 352.493 823.415M339.901 911.702C326.538 894.757 334.527 869.002 346.911 873.363C357.675 877.154 354.501 898.627 339.901 911.702Z" stroke="var(--stroke-0, #D0D0D0)" stroke-width="11.9738" stroke-linecap="round"/>
<path id="Vector 342" opacity="0.2" d="M808.581 314.976C782.845 314.86 772.248 318.257 763.745 329.019M763.745 329.019C760.513 326.119 756.49 323.719 751.595 322.153C694.245 308.125 759.167 406.535 766.427 418.159M763.745 329.019C779.808 343.43 776.338 370.172 763.391 367.991C752.136 366.096 751.595 344.397 763.745 329.019Z" stroke="var(--stroke-0, #D0D0D0)" stroke-width="11.9738" stroke-linecap="round"/>
<path id="Vector 427" opacity="0.2" d="M679.293 810.159C705.029 810.275 715.625 806.878 724.129 796.117M724.129 796.117C727.361 799.016 731.383 801.417 736.279 802.982C793.628 817.01 728.706 718.6 721.447 706.977M724.129 796.117C708.066 781.705 711.536 754.964 724.483 757.144C735.737 759.039 736.279 780.739 724.129 796.117Z" stroke="var(--stroke-0, #D0D0D0)" stroke-width="11.9738" stroke-linecap="round"/>
<path id="Vector 391" opacity="0.2" d="M1056.81 922.068C1082.55 922.184 1093.15 918.787 1101.65 908.025M1101.65 908.025C1104.88 910.925 1108.9 913.325 1113.8 914.891C1171.15 928.919 1106.23 830.509 1098.97 818.885M1101.65 908.025C1085.59 893.614 1089.06 866.872 1102 869.053C1113.26 870.948 1113.8 892.647 1101.65 908.025Z" stroke="var(--stroke-0, #D0D0D0)" stroke-width="11.9738" stroke-linecap="round"/>
<path id="Vector 428" opacity="0.2" d="M431.059 203.067C405.323 202.951 394.726 206.348 386.223 217.11M386.223 217.11C382.991 214.21 378.969 211.81 374.073 210.245C316.724 196.217 381.646 294.626 388.905 306.25M386.223 217.11C402.286 231.521 398.816 258.263 385.869 256.083C374.615 254.187 374.073 232.488 386.223 217.11Z" stroke="var(--stroke-0, #D0D0D0)" stroke-width="11.9738" stroke-linecap="round"/>
<path id="Vector 308" opacity="0.2" d="M1307.32 664.481C1332.66 668.994 1343.68 667.458 1353.9 658.308M1353.9 658.308C1356.59 661.717 1360.14 664.77 1364.7 667.149C1418.81 690.772 1371.66 582.715 1366.49 570.021M1353.9 658.308C1340.54 641.363 1348.53 615.608 1360.91 619.969C1371.68 623.76 1368.5 645.233 1353.9 658.308Z" stroke="var(--stroke-0, #D0D0D0)" stroke-width="11.9738" stroke-linecap="round"/>
<path id="Vector 429" opacity="0.2" d="M180.549 460.654C155.211 456.141 144.19 457.677 133.973 466.827M133.973 466.827C131.284 463.418 127.73 460.365 123.175 457.987C69.0663 434.363 116.214 542.421 121.38 555.114M133.973 466.827C147.336 483.772 139.347 509.527 126.963 505.166C116.198 501.375 119.373 479.902 133.973 466.827Z" stroke="var(--stroke-0, #D0D0D0)" stroke-width="11.9738" stroke-linecap="round"/>
<path id="Vector 343" opacity="0.2" d="M997.841 746.196C1023.58 746.312 1034.17 742.915 1042.68 732.153M1042.68 732.153C1045.91 735.053 1049.93 737.453 1054.83 739.018C1112.18 753.046 1080.88 680.351 1039.99 643.013M1042.68 732.153C1026.61 717.742 1030.08 691 1043.03 693.18C1054.28 695.076 1054.83 716.775 1042.68 732.153Z" stroke="var(--stroke-0, #D0D0D0)" stroke-width="11.9738" stroke-linecap="round"/>
<path id="Vector 430" opacity="0.2" d="M490.033 378.94C464.297 378.824 453.7 382.221 445.197 392.982M445.197 392.982C441.965 390.083 437.942 387.682 433.047 386.117C375.697 372.089 440.619 470.499 447.879 482.122M445.197 392.982C461.26 407.394 457.79 434.135 444.843 431.955C433.589 430.06 433.047 408.36 445.197 392.982Z" stroke="var(--stroke-0, #D0D0D0)" stroke-width="11.9738" stroke-linecap="round"/>
<path id="Vector 282" opacity="0.2" d="M1205.14 403.243C1208.34 403.718 1217.3 404.884 1228.5 406.843" stroke="var(--stroke-0, #D0D0D0)" stroke-width="11.9738" stroke-linecap="round"/>
<path id="Vector 431" opacity="0.2" d="M282.735 721.892C279.535 721.417 270.572 720.251 259.374 718.292" stroke="var(--stroke-0, #D0D0D0)" stroke-width="11.9738" stroke-linecap="round"/>
<path id="Vector 344" opacity="0.2" d="M852.51 506.266C855.744 506.187 864.774 505.804 876.142 505.82" stroke="var(--stroke-0, #D0D0D0)" stroke-width="11.9738" stroke-linecap="round"/>
<path id="Vector 432" opacity="0.2" d="M635.364 618.87C632.13 618.948 623.099 619.331 611.731 619.315" stroke="var(--stroke-0, #D0D0D0)" stroke-width="11.9738" stroke-linecap="round"/>
<path id="Vector 309" opacity="0.2" d="M1296.73 468.498C1293.53 468.023 1284.57 466.857 1273.37 464.898" stroke="var(--stroke-0, #D0D0D0)" stroke-width="11.9738" stroke-linecap="round"/>
<path id="Vector 433" opacity="0.2" d="M191.139 656.637C194.339 657.112 203.302 658.279 214.5 660.237" stroke="var(--stroke-0, #D0D0D0)" stroke-width="11.9738" stroke-linecap="round"/>
<path id="Vector 345" opacity="0.2" d="M953.91 554.906C950.677 554.985 941.646 555.368 930.278 555.352" stroke="var(--stroke-0, #D0D0D0)" stroke-width="11.9738" stroke-linecap="round"/>
<path id="Vector 434" opacity="0.2" d="M533.963 570.229C537.197 570.151 546.227 569.768 557.595 569.784" stroke="var(--stroke-0, #D0D0D0)" stroke-width="11.9738" stroke-linecap="round"/>
<path id="Vector 283" opacity="0.2" d="M1469.56 300.694C1492.33 326.875 1480.11 350.796 1460.6 347.911C1430.24 343.423 1425.76 304.522 1441.53 304.588C1460.93 304.669 1459.06 366.23 1405.53 364.222C1379.81 363.257 1369.1 366.303 1360.25 376.778M1330.36 414.089C1313.12 383.981 1329.76 362.894 1348.33 369.516C1353.18 371.242 1357.12 373.774 1360.25 376.778M1360.25 376.778C1375.83 391.712 1371.48 418.324 1358.61 415.718C1347.43 413.453 1347.6 391.747 1360.25 376.778Z" stroke="var(--stroke-0, #D0D0D0)" stroke-width="11.9738" stroke-linecap="round"/>
<path id="Vector 435" opacity="0.2" d="M18.3128 824.441C-4.45621 798.26 7.76692 774.34 27.2761 777.224C57.629 781.713 62.1102 820.613 46.3395 820.547C26.9399 820.466 28.8176 758.905 82.3473 760.913C108.065 761.878 118.769 758.832 127.622 748.357M157.511 711.046C174.755 741.154 158.115 762.242 139.539 755.619C134.698 753.893 130.757 751.362 127.622 748.357M127.622 748.357C112.043 733.424 116.394 706.811 129.262 709.417C140.447 711.683 140.273 733.388 127.622 748.357Z" stroke="var(--stroke-0, #D0D0D0)" stroke-width="11.9738" stroke-linecap="round"/>
<path id="Vector 346" opacity="0.2" d="M977.745 495.55C955.608 468.833 968.4 445.211 987.834 448.561C992.899 449.434 997.215 451.255 1000.82 453.68M1000.82 453.68C1018.72 465.731 1018.98 492.696 1005.86 492.327C994.449 492.007 990.911 470.591 1000.82 453.68Z" stroke="var(--stroke-0, #D0D0D0)" stroke-width="11.9738" stroke-linecap="round"/>
<path id="Vector 528" opacity="0.2" d="M649.14 281.664C680.477 266.768 700.233 284.969 692.212 302.985C690.122 307.681 687.297 311.417 684.061 314.313M684.061 314.313C667.983 328.707 641.78 322.338 645.36 309.706C648.473 298.726 670.102 300.557 684.061 314.313Z" stroke="var(--stroke-0, #D0D0D0)" stroke-width="11.9738" stroke-linecap="round"/>
<path id="Vector 436" opacity="0.2" d="M510.128 629.585C532.265 656.303 519.474 679.924 500.039 676.574C494.974 675.701 490.658 673.88 487.056 671.455M487.056 671.455C469.155 659.404 468.893 632.44 482.017 632.808C493.425 633.129 496.963 654.545 487.056 671.455Z" stroke="var(--stroke-0, #D0D0D0)" stroke-width="11.9738" stroke-linecap="round"/>
<path id="Vector 310" opacity="0.2" d="M1171.51 457.652C1188.76 487.76 1172.12 508.848 1153.54 502.225C1148.7 500.5 1144.76 497.968 1141.62 494.963M1141.62 494.963C1126.04 480.03 1130.39 453.417 1143.26 456.023C1154.45 458.289 1154.27 479.994 1141.62 494.963Z" stroke="var(--stroke-0, #D0D0D0)" stroke-width="11.9738" stroke-linecap="round"/>
<path id="Vector 437" opacity="0.2" d="M316.362 667.483C299.118 637.375 315.758 616.287 334.334 622.91C339.175 624.636 343.116 627.168 346.251 630.172M346.251 630.172C361.83 645.106 357.479 671.718 344.611 669.112C333.426 666.847 333.6 645.141 346.251 630.172Z" stroke="var(--stroke-0, #D0D0D0)" stroke-width="11.9738" stroke-linecap="round"/>
<path id="Vector 347" opacity="0.2" d="M828.676 565.622C850.813 592.339 838.022 615.961 818.587 612.611C813.522 611.737 809.206 609.916 805.604 607.492M805.604 607.492C787.703 595.441 787.44 568.476 800.564 568.845C811.973 569.165 815.511 590.581 805.604 607.492Z" stroke="var(--stroke-0, #D0D0D0)" stroke-width="11.9738" stroke-linecap="round"/>
<path id="Vector 438" opacity="0.2" d="M659.197 559.514C637.061 532.796 649.852 509.175 669.287 512.525C674.351 513.398 678.667 515.219 682.269 517.644M682.269 517.644C700.171 529.695 700.433 556.659 687.309 556.291C675.901 555.97 672.363 534.554 682.269 517.644Z" stroke="var(--stroke-0, #D0D0D0)" stroke-width="11.9738" stroke-linecap="round"/>
<path id="Vector 390" opacity="0.2" d="M1113.06 755.417C1132.77 779.206 1121.38 800.238 1104.08 797.255C1099.57 796.478 1095.73 794.857 1092.52 792.698M1092.52 792.698C1076.58 781.968 1076.35 757.959 1088.03 758.287C1098.19 758.572 1101.34 777.641 1092.52 792.698Z" stroke="var(--stroke-0, #D0D0D0)" stroke-width="11.9738" stroke-linecap="round"/>
<path id="Vector 439" opacity="0.2" d="M374.81 369.718C355.099 345.929 366.489 324.897 383.793 327.88C388.303 328.657 392.146 330.279 395.353 332.438M395.353 332.438C411.292 343.168 411.525 367.177 399.84 366.848C389.682 366.563 386.532 347.495 395.353 332.438Z" stroke="var(--stroke-0, #D0D0D0)" stroke-width="11.9738" stroke-linecap="round"/>
<path id="Vector 385" opacity="0.2" d="M1106.67 527.057C1084.34 514.292 1087.06 494.566 1101.42 491.822C1105.16 491.107 1108.63 491.245 1111.76 491.988M1111.76 491.988C1127.32 495.681 1134.54 514.322 1125.33 517.489C1117.34 520.242 1109.3 506.305 1111.76 491.988Z" stroke="var(--stroke-0, #D0D0D0)" stroke-width="11.9738" stroke-linecap="round"/>
<path id="Vector 521" opacity="0.2" d="M805.67 850.057C783.342 837.292 786.057 817.566 800.416 814.822C804.158 814.107 807.627 814.245 810.759 814.988M810.759 814.988C826.323 818.681 833.537 837.322 824.334 840.489C816.335 843.242 808.295 829.305 810.759 814.988Z" stroke="var(--stroke-0, #D0D0D0)" stroke-width="11.9738" stroke-linecap="round"/>
<path id="Vector 440" opacity="0.2" d="M381.204 598.078C403.532 610.844 400.816 630.569 386.458 633.313C382.716 634.028 379.246 633.89 376.115 633.147M376.115 633.147C360.551 629.454 353.337 610.813 362.539 607.646C370.538 604.893 378.578 618.83 376.115 633.147Z" stroke="var(--stroke-0, #D0D0D0)" stroke-width="11.9738" stroke-linecap="round"/>
<path id="Vector 284" opacity="0.2" d="M1204.44 130.065C1239.13 130.878 1248.57 156.027 1233.3 168.5C1209.53 187.906 1177.77 165.01 1188.44 153.4C1201.57 139.119 1245.8 181.982 1208.25 220.186C1190.21 238.541 1185.25 248.502 1187.02 262.103M1194.46 309.327C1160.59 301.786 1156.22 275.282 1173.63 266.016C1178.17 263.601 1182.69 262.395 1187.02 262.103M1187.02 262.103C1208.56 260.651 1225.29 281.796 1214.7 289.549C1205.49 296.289 1189.56 281.536 1187.02 262.103Z" stroke="var(--stroke-0, #D0D0D0)" stroke-width="11.9738" stroke-linecap="round"/>
<path id="Vector 441" opacity="0.2" d="M283.429 995.07C248.741 994.257 239.3 969.109 254.575 956.635C278.342 937.229 310.107 960.126 299.433 971.735C286.303 986.017 242.076 943.154 279.625 904.949C297.665 886.594 302.625 876.633 300.849 863.033M293.413 815.808C327.281 823.349 331.653 849.854 314.244 859.119C309.707 861.534 305.181 862.741 300.849 863.033M300.849 863.033C279.318 864.484 262.582 843.34 273.178 835.586C282.388 828.847 298.31 843.599 300.849 863.033Z" stroke="var(--stroke-0, #D0D0D0)" stroke-width="11.9738" stroke-linecap="round"/>
<path id="Vector 348" opacity="0.2" d="M805.138 237.226C839.454 232.098 853.055 255.263 840.136 270.164C820.036 293.346 784.824 276.216 793.357 262.952C803.853 246.637 854.755 281.311 824.289 325.37C809.651 346.539 806.466 357.201 810.541 370.298M825.938 415.556C791.28 413.915 782.442 388.548 798.011 376.443C802.069 373.288 806.322 371.326 810.541 370.298M810.541 370.298C831.507 365.188 851.61 383.161 842.495 392.611C834.573 400.825 816.363 389.011 810.541 370.298Z" stroke="var(--stroke-0, #D0D0D0)" stroke-width="11.9738" stroke-linecap="round"/>
<path id="Vector 442" opacity="0.2" d="M682.735 887.91C648.419 893.037 634.819 869.872 647.738 854.972C667.838 831.789 703.049 848.92 694.516 862.183C684.021 878.498 633.118 843.825 663.585 799.765C678.222 778.597 681.407 767.934 677.333 754.838M661.936 709.579C696.594 711.221 705.432 736.588 689.862 748.692C685.805 751.847 681.551 753.81 677.333 754.838M677.333 754.838C656.367 759.948 636.264 741.974 645.378 732.524C653.301 724.31 671.51 736.124 677.333 754.838Z" stroke="var(--stroke-0, #D0D0D0)" stroke-width="11.9738" stroke-linecap="round"/>
<path id="Vector 311" opacity="0.2" d="M1297.43 741.676C1262.74 740.863 1253.3 715.715 1268.58 703.241C1292.34 683.835 1324.11 706.732 1313.43 718.341C1300.3 732.623 1256.08 689.76 1293.62 651.555C1311.66 633.2 1316.63 623.239 1314.85 609.639M1307.41 562.414C1341.28 569.955 1345.65 596.46 1328.24 605.725C1323.71 608.14 1319.18 609.347 1314.85 609.639M1314.85 609.639C1293.32 611.09 1276.58 589.946 1287.18 582.192C1296.39 575.453 1312.31 590.205 1314.85 609.639Z" stroke="var(--stroke-0, #D0D0D0)" stroke-width="11.9738" stroke-linecap="round"/>
<path id="Vector 443" opacity="0.2" d="M190.445 383.459C225.132 384.272 234.574 409.421 219.298 421.894C195.532 441.3 163.766 418.404 174.44 406.794C187.57 392.513 231.797 435.376 194.249 473.58C176.209 491.935 171.248 501.896 173.025 515.497M180.46 562.721C146.593 555.18 142.22 528.676 159.629 519.41C164.166 516.995 168.693 515.789 173.025 515.497M173.025 515.497C194.556 514.045 211.291 535.19 200.696 542.943C191.486 549.683 175.563 534.93 173.025 515.497Z" stroke="var(--stroke-0, #D0D0D0)" stroke-width="11.9738" stroke-linecap="round"/>
<path id="Vector 349" opacity="0.2" d="M1001.28 823.946C966.967 829.073 953.366 805.909 966.286 791.008C986.385 767.825 1021.6 784.956 1013.06 798.219C1002.57 814.535 951.666 779.861 982.133 735.801C996.77 714.633 999.955 703.971 995.881 690.874M980.484 645.615C1015.14 647.257 1023.98 672.624 1008.41 684.729C1004.35 687.883 1000.1 689.846 995.881 690.874M995.881 690.874C974.914 695.984 954.811 678.011 963.926 668.561C971.849 660.346 990.058 672.16 995.881 690.874Z" stroke="var(--stroke-0, #D0D0D0)" stroke-width="11.9738" stroke-linecap="round"/>
<path id="Vector 444" opacity="0.2" d="M493.88 307.413C528.196 302.286 541.797 325.451 528.878 340.351C508.778 363.534 473.567 346.403 482.099 333.14C492.595 316.825 536.208 345.274 505.741 389.334C491.104 410.502 487.918 421.165 491.993 434.261M507.39 479.52C472.732 477.878 463.894 452.511 479.464 440.406C483.521 437.252 487.775 435.289 491.993 434.261M491.993 434.261C512.959 429.151 533.062 447.124 523.948 456.574C516.025 464.789 497.815 452.975 491.993 434.261Z" stroke="var(--stroke-0, #D0D0D0)" stroke-width="11.9738" stroke-linecap="round"/>
<path id="Vector 285" opacity="0.2" d="M1023.12 250.85C1042.34 221.96 1068.64 227.411 1071.03 246.988C1074.74 277.445 1038.41 292.069 1034.3 276.844C1029.24 258.116 1089.1 243.622 1101.34 295.772C1107.22 320.827 1112.99 330.342 1125.44 336.104M1169.33 355.043C1144.87 379.647 1120.13 369.186 1121.59 349.519C1121.97 344.394 1123.37 339.923 1125.44 336.104M1125.44 336.104C1135.71 317.127 1162.53 314.273 1163.42 327.372C1164.2 338.758 1143.22 344.339 1125.44 336.104Z" stroke="var(--stroke-0, #D0D0D0)" stroke-width="11.9738" stroke-linecap="round"/>
<path id="Vector 445" opacity="0.2" d="M464.752 874.285C445.537 903.175 419.233 897.724 416.848 878.148C413.137 847.69 449.461 833.066 453.574 848.291C458.634 867.019 398.774 881.513 386.533 829.363C380.652 804.308 374.88 794.794 362.434 789.031M318.539 770.092C343.005 745.489 367.747 755.95 366.281 775.616C365.899 780.742 364.501 785.213 362.434 789.031M362.434 789.031C352.16 808.008 325.346 810.862 324.451 797.763C323.673 786.377 344.649 780.796 362.434 789.031Z" stroke="var(--stroke-0, #D0D0D0)" stroke-width="11.9738" stroke-linecap="round"/>
<path id="Vector 350" opacity="0.2" d="M731.872 418.116C741.948 441.797 749.261 450.185 762.509 453.736M808.995 464.895C789.094 493.317 762.928 487.239 761.012 467.611C760.512 462.496 761.125 457.851 762.509 453.736M762.509 453.736C769.389 433.282 795.321 425.887 798.441 438.64C801.154 449.726 781.44 458.81 762.509 453.736Z" stroke="var(--stroke-0, #D0D0D0)" stroke-width="11.9738" stroke-linecap="round"/>
<path id="Vector 446" opacity="0.2" d="M756.003 707.02C745.926 683.338 738.613 674.95 725.365 671.399M678.88 660.241C698.78 631.818 724.946 637.897 726.863 657.524C727.362 662.64 726.749 667.284 725.365 671.399M725.365 671.399C718.486 691.853 692.554 699.248 689.433 686.495C686.721 675.409 706.435 666.325 725.365 671.399Z" stroke="var(--stroke-0, #D0D0D0)" stroke-width="11.9738" stroke-linecap="round"/>
<path id="Vector 312" opacity="0.2" d="M1478.75 620.891C1459.54 649.781 1433.23 644.33 1430.85 624.754C1427.14 594.296 1463.46 579.672 1467.57 594.897C1472.63 613.625 1412.77 628.119 1400.53 575.969C1394.65 550.914 1388.88 541.4 1376.43 535.637M1332.54 516.698C1357 492.095 1381.75 502.555 1380.28 522.222C1379.9 527.347 1378.5 531.819 1376.43 535.637M1376.43 535.637C1366.16 554.614 1339.35 557.468 1338.45 544.369C1337.67 532.983 1358.65 527.402 1376.43 535.637Z" stroke="var(--stroke-0, #D0D0D0)" stroke-width="11.9738" stroke-linecap="round"/>
<path id="Vector 447" opacity="0.2" d="M9.1211 504.244C28.3367 475.354 54.6403 480.805 57.0256 500.382C60.7368 530.839 24.4127 545.463 20.2992 530.238C15.2392 511.51 75.0991 497.016 87.3404 549.166C93.2216 574.221 98.9931 583.736 111.439 589.498M155.334 608.437C130.869 633.041 106.127 622.58 107.593 602.913C107.975 597.788 109.372 593.317 111.439 589.498M111.439 589.498C121.713 570.521 148.528 567.667 149.423 580.766C150.201 592.152 129.224 597.733 111.439 589.498Z" stroke="var(--stroke-0, #D0D0D0)" stroke-width="11.9738" stroke-linecap="round"/>
<path id="Vector 351" opacity="0.2" d="M1159.3 673.949C1145.3 705.698 1118.45 704.822 1112.76 685.942C1103.89 656.566 1137.18 635.949 1143.84 650.247C1152.03 667.835 1095.52 692.347 1074.55 643.056C1064.47 619.375 1057.16 610.987 1043.91 607.436M997.427 596.277C1017.33 567.855 1043.49 573.933 1045.41 593.561C1045.91 598.676 1045.3 603.32 1043.91 607.436M1043.91 607.436C1037.03 627.89 1011.1 635.284 1007.98 622.531C1005.27 611.446 1024.98 602.362 1043.91 607.436Z" stroke="var(--stroke-0, #D0D0D0)" stroke-width="11.9738" stroke-linecap="round"/>
<path id="Vector 448" opacity="0.2" d="M328.577 451.187C342.573 419.437 369.421 420.313 375.117 439.194C383.979 468.569 350.689 489.186 344.034 474.888C335.847 457.3 392.349 432.789 413.323 482.079C423.4 505.761 430.713 514.149 443.961 517.7M490.447 528.858C470.546 557.281 444.38 551.202 442.463 531.574C441.964 526.459 442.577 521.815 443.961 517.7M443.961 517.7C450.84 497.245 476.772 489.851 479.893 502.604C482.605 513.69 462.891 522.773 443.961 517.7Z" stroke="var(--stroke-0, #D0D0D0)" stroke-width="11.9738" stroke-linecap="round"/>
<path id="Vector 286" opacity="0.2" d="M1420.79 5.98749C1449.51 25.46 1443.82 51.7139 1424.23 53.9246C1393.74 57.3639 1379.44 20.9108 1394.7 16.9333C1413.47 12.0406 1427.43 72.0274 1375.17 83.803C1350.07 89.4606 1340.5 95.1469 1334.63 107.541M1315.3 151.265C1290.92 126.581 1301.6 101.934 1321.25 103.575C1326.37 104.003 1330.83 105.44 1334.63 107.541M1334.63 107.541C1353.51 117.984 1356.13 144.823 1343.02 145.601C1331.63 146.278 1326.24 125.252 1334.63 107.541Z" stroke="var(--stroke-0, #D0D0D0)" stroke-width="11.9738" stroke-linecap="round"/>
<path id="Vector 449" opacity="0.2" d="M67.0809 1119.15C38.3633 1099.68 44.0489 1073.42 63.6459 1071.21C94.1354 1067.77 108.435 1104.22 93.1739 1108.2C74.4013 1113.09 60.4417 1053.11 112.699 1041.33C137.805 1035.67 147.371 1029.99 153.244 1017.59M172.574 973.87C196.958 998.554 186.277 1023.2 166.624 1021.56C161.503 1021.13 157.044 1019.7 153.244 1017.59M153.244 1017.59C134.359 1007.15 131.745 980.312 144.851 979.534C156.244 978.858 161.637 999.883 153.244 1017.59Z" stroke="var(--stroke-0, #D0D0D0)" stroke-width="11.9738" stroke-linecap="round"/>
<path id="Vector 352" opacity="0.2" d="M997.096 77.9979C1028.72 92.2759 1027.6 119.115 1008.67 124.643C979.221 133.242 958.901 99.7694 973.258 93.2422C990.918 85.2131 1014.92 141.931 965.449 162.465C941.679 172.33 933.226 179.568 929.557 192.784M917.984 239.168C889.74 219.015 896.052 192.904 915.696 191.163C920.816 190.709 925.454 191.363 929.557 192.784M929.557 192.784C949.949 199.845 957.112 225.842 944.332 228.849C933.222 231.463 924.315 211.668 929.557 192.784Z" stroke="var(--stroke-0, #D0D0D0)" stroke-width="11.9738" stroke-linecap="round"/>
<path id="Vector 450" opacity="0.2" d="M490.777 1047.14C459.154 1032.86 460.269 1006.02 479.2 1000.49C508.653 991.893 528.972 1025.37 514.615 1031.89C496.955 1039.92 472.949 983.204 522.424 962.67C546.195 952.805 554.648 945.568 558.316 932.352M569.889 885.967C598.133 906.121 591.822 932.231 572.177 933.973C567.058 934.427 562.419 933.772 558.316 932.352M558.316 932.352C537.924 925.29 530.762 899.293 543.542 896.286C554.651 893.673 563.559 913.467 558.316 932.352Z" stroke="var(--stroke-0, #D0D0D0)" stroke-width="11.9738" stroke-linecap="round"/>
<path id="Vector 313" opacity="0.2" d="M1186.57 720.476C1210.96 745.16 1200.28 769.808 1180.62 768.166C1175.5 767.739 1171.04 766.301 1167.24 764.2M1167.24 764.2C1148.36 753.757 1145.75 726.919 1158.85 726.14C1170.24 725.464 1175.64 746.489 1167.24 764.2Z" stroke="var(--stroke-0, #D0D0D0)" stroke-width="11.9738" stroke-linecap="round"/>
<path id="Vector 451" opacity="0.2" d="M301.299 404.659C276.915 379.975 287.596 355.328 307.249 356.969C312.37 357.397 316.829 358.834 320.629 360.935M320.629 360.935C339.514 371.378 342.128 398.217 329.022 398.995C317.629 399.671 312.236 378.646 320.629 360.935Z" stroke="var(--stroke-0, #D0D0D0)" stroke-width="11.9738" stroke-linecap="round"/>
<path id="Vector 353" opacity="0.2" d="M888.437 822.004C916.681 842.157 910.37 868.268 890.726 870.009C885.606 870.463 880.968 869.809 876.865 868.388M876.865 868.388C856.473 861.327 849.31 835.33 862.09 832.323C873.2 829.709 882.107 849.504 876.865 868.388Z" stroke="var(--stroke-0, #D0D0D0)" stroke-width="11.9738" stroke-linecap="round"/>
<path id="Vector 452" opacity="0.2" d="M599.436 303.131C571.192 282.978 577.504 256.868 597.148 255.126C602.267 254.672 606.906 255.326 611.009 256.747M611.009 256.747C631.401 263.809 638.564 289.806 625.783 292.812C614.674 295.426 605.766 275.632 611.009 256.747Z" stroke="var(--stroke-0, #D0D0D0)" stroke-width="11.9738" stroke-linecap="round"/>
<path id="Vector 387" opacity="0.2" d="M1094.55 609.351C1082.9 620.526 1087.55 632.128 1096.72 631.613C1110.97 630.811 1114.69 612.97 1107.38 612.337" stroke="var(--stroke-0, #D0D0D0)" stroke-width="11.9738" stroke-linecap="round"/>
<path id="Vector 453" opacity="0.2" d="M393.322 515.784C404.978 504.609 400.32 493.007 391.157 493.522C376.899 494.324 373.184 512.165 380.496 512.799" stroke="var(--stroke-0, #D0D0D0)" stroke-width="11.9738" stroke-linecap="round"/>
<path id="Vector 287" opacity="0.2" d="M1294.31 311.932C1305.97 323.108 1301.31 334.709 1292.15 334.194C1277.89 333.392 1274.17 315.551 1281.49 314.918" stroke="var(--stroke-0, #D0D0D0)" stroke-width="11.9738" stroke-linecap="round"/>
<path id="Vector 454" opacity="0.2" d="M193.561 813.203C181.905 802.028 186.563 790.426 195.727 790.941C209.984 791.743 213.7 809.584 206.387 810.218" stroke="var(--stroke-0, #D0D0D0)" stroke-width="11.9738" stroke-linecap="round"/>
<path id="Vector 354" opacity="0.2" d="M924.766 401.058C938.16 410.076 935.554 422.304 926.437 423.362C912.252 425.009 905.542 408.066 912.639 406.191" stroke="var(--stroke-0, #D0D0D0)" stroke-width="11.9738" stroke-linecap="round"/>
<path id="Vector 455" opacity="0.2" d="M563.108 724.078C549.713 715.059 552.32 702.832 561.437 701.773C575.621 700.126 582.331 717.07 575.235 718.944" stroke="var(--stroke-0, #D0D0D0)" stroke-width="11.9738" stroke-linecap="round"/>
<path id="Vector 380" opacity="0.2" d="M1066.46 302.329C1079.86 311.348 1077.25 323.575 1068.14 324.634C1053.95 326.28 1047.24 309.337 1054.34 307.463" stroke="var(--stroke-0, #D0D0D0)" stroke-width="11.9738" stroke-linecap="round"/>
<path id="Vector 456" opacity="0.2" d="M421.409 822.806C408.014 813.787 410.62 801.56 419.737 800.502C433.922 798.855 440.632 815.798 433.536 817.673" stroke="var(--stroke-0, #D0D0D0)" stroke-width="11.9738" stroke-linecap="round"/>
<path id="Vector 396" opacity="0.2" d="M978.465 188.329C991.859 197.348 989.253 209.575 980.136 210.634C965.952 212.28 959.241 195.337 966.338 193.463" stroke="var(--stroke-0, #D0D0D0)" stroke-width="11.9738" stroke-linecap="round"/>
<path id="Vector 457" opacity="0.2" d="M509.409 936.806C496.014 927.787 498.62 915.56 507.737 914.502C521.922 912.855 528.632 929.798 521.536 931.673" stroke="var(--stroke-0, #D0D0D0)" stroke-width="11.9738" stroke-linecap="round"/>
<path id="Vector 314" opacity="0.2" d="M1207.56 559.809C1195.91 548.634 1200.56 537.032 1209.73 537.547C1223.98 538.349 1227.7 556.19 1220.39 556.824" stroke="var(--stroke-0, #D0D0D0)" stroke-width="11.9738" stroke-linecap="round"/>
<path id="Vector 540" opacity="0.2" d="M755.552 210.346C743.895 199.171 748.553 187.569 757.717 188.084C771.974 188.886 775.69 206.727 768.377 207.361" stroke="var(--stroke-0, #D0D0D0)" stroke-width="11.9738" stroke-linecap="round"/>
<path id="Vector 458" opacity="0.2" d="M280.312 565.326C291.968 576.502 287.311 588.103 278.147 587.588C263.889 586.787 260.174 568.946 267.486 568.312" stroke="var(--stroke-0, #D0D0D0)" stroke-width="11.9738" stroke-linecap="round"/>
<path id="Vector 355" opacity="0.2" d="M881.656 660.114C868.261 651.095 870.867 638.868 879.984 637.81C894.169 636.163 900.879 653.106 893.783 654.98" stroke="var(--stroke-0, #D0D0D0)" stroke-width="11.9738" stroke-linecap="round"/>
<path id="Vector 459" opacity="0.2" d="M606.218 465.021C619.612 474.04 617.006 486.267 607.889 487.326C593.704 488.973 586.994 472.029 594.091 470.155" stroke="var(--stroke-0, #D0D0D0)" stroke-width="11.9738" stroke-linecap="round"/>
<path id="Vector 288" opacity="0.2" d="M1306.64 280.391C1294.98 269.216 1299.64 257.614 1308.8 258.129C1323.06 258.931 1326.78 276.772 1319.47 277.405" stroke="var(--stroke-0, #D0D0D0)" stroke-width="11.9738" stroke-linecap="round"/>
<path id="Vector 460" opacity="0.2" d="M181.234 844.744C192.89 855.92 188.232 867.522 179.069 867.006C164.811 866.205 161.096 848.364 168.408 847.73" stroke="var(--stroke-0, #D0D0D0)" stroke-width="11.9738" stroke-linecap="round"/>
<path id="Vector 356" opacity="0.2" d="M931.521 367.874C918.126 358.855 920.733 346.628 929.85 345.569C944.034 343.922 950.744 360.866 943.648 362.74" stroke="var(--stroke-0, #D0D0D0)" stroke-width="11.9738" stroke-linecap="round"/>
<path id="Vector 461" opacity="0.2" d="M556.352 757.262C569.747 766.281 567.141 778.508 558.024 779.566C543.839 781.213 537.129 764.27 544.225 762.395" stroke="var(--stroke-0, #D0D0D0)" stroke-width="11.9738" stroke-linecap="round"/>
<path id="Vector 381" opacity="0.2" d="M1022.12 394.596C1008.72 385.577 1011.33 373.35 1020.44 372.291C1034.63 370.644 1041.34 387.588 1034.24 389.462" stroke="var(--stroke-0, #D0D0D0)" stroke-width="11.9738" stroke-linecap="round"/>
<path id="Vector 462" opacity="0.2" d="M465.758 730.54C479.152 739.559 476.546 751.786 467.429 752.844C453.245 754.491 446.534 737.548 453.631 735.673" stroke="var(--stroke-0, #D0D0D0)" stroke-width="11.9738" stroke-linecap="round"/>
<path id="Vector 315" opacity="0.2" d="M1195.23 591.35C1206.89 602.526 1202.23 614.127 1193.07 613.612C1178.81 612.811 1175.1 594.97 1182.41 594.336" stroke="var(--stroke-0, #D0D0D0)" stroke-width="11.9738" stroke-linecap="round"/>
<path id="Vector 463" opacity="0.2" d="M292.639 533.785C280.983 522.61 285.641 511.008 294.805 511.523C309.062 512.325 312.778 530.166 305.465 530.799" stroke="var(--stroke-0, #D0D0D0)" stroke-width="11.9738" stroke-linecap="round"/>
<path id="Vector 386" opacity="0.2" d="M1092.55 474.346C1080.9 463.171 1085.55 451.569 1094.72 452.084C1108.97 452.886 1112.69 470.727 1105.38 471.361" stroke="var(--stroke-0, #D0D0D0)" stroke-width="11.9738" stroke-linecap="round"/>
<path id="Vector 464" opacity="0.2" d="M395.322 650.789C406.978 661.965 402.32 673.566 393.157 673.051C378.899 672.25 375.184 654.409 382.496 653.775" stroke="var(--stroke-0, #D0D0D0)" stroke-width="11.9738" stroke-linecap="round"/>
<path id="Vector 357" opacity="0.2" d="M874.9 693.298C888.295 702.317 885.689 714.544 876.572 715.603C862.387 717.249 855.677 700.306 862.773 698.432" stroke="var(--stroke-0, #D0D0D0)" stroke-width="11.9738" stroke-linecap="round"/>
<path id="Vector 465" opacity="0.2" d="M612.973 431.837C599.579 422.818 602.185 410.591 611.302 409.533C625.486 407.886 632.197 424.829 625.1 426.704" stroke="var(--stroke-0, #D0D0D0)" stroke-width="11.9738" stroke-linecap="round"/>
<path id="Vector 389" opacity="0.2" d="M1120.46 719.329C1133.86 728.348 1131.25 740.575 1122.14 741.634C1107.95 743.28 1101.24 726.337 1108.34 724.463" stroke="var(--stroke-0, #D0D0D0)" stroke-width="11.9738" stroke-linecap="round"/>
<path id="Vector 544" opacity="0.2" d="M1313.46 826.329C1326.86 835.348 1324.25 847.575 1315.14 848.634C1300.95 850.28 1294.24 833.337 1301.34 831.463" stroke="var(--stroke-0, #D0D0D0)" stroke-width="11.9738" stroke-linecap="round"/>
<path id="Vector 466" opacity="0.2" d="M367.409 405.806C354.014 396.787 356.62 384.56 365.737 383.502C379.922 381.855 386.632 398.798 379.536 400.673" stroke="var(--stroke-0, #D0D0D0)" stroke-width="11.9738" stroke-linecap="round"/>
<path id="Vector 524" opacity="0.2" d="M705.116 454.596C691.721 445.577 694.327 433.35 703.444 432.291C717.629 430.644 724.339 447.588 717.243 449.462" stroke="var(--stroke-0, #D0D0D0)" stroke-width="11.9738" stroke-linecap="round"/>
<path id="Vector 384" opacity="0.2" d="M1055.46 443.329C1068.86 452.348 1066.25 464.575 1057.14 465.634C1042.95 467.28 1036.24 450.337 1043.34 448.463" stroke="var(--stroke-0, #D0D0D0)" stroke-width="11.9738" stroke-linecap="round"/>
<path id="Vector 467" opacity="0.2" d="M432.409 681.806C419.014 672.787 421.62 660.56 430.737 659.502C444.922 657.855 451.632 674.798 444.536 676.673" stroke="var(--stroke-0, #D0D0D0)" stroke-width="11.9738" stroke-linecap="round"/>
<path id="Vector 289" opacity="0.2" d="M1080.37 416.863C1088.06 402.663 1100.48 404.082 1102.41 413.055C1105.42 427.015 1089.2 435.323 1086.65 428.44" stroke="var(--stroke-0, #D0D0D0)" stroke-width="11.9738" stroke-linecap="round"/>
<path id="Vector 468" opacity="0.2" d="M407.5 708.272C399.811 722.472 387.39 721.054 385.46 712.081C382.457 698.12 398.677 689.812 401.225 696.695" stroke="var(--stroke-0, #D0D0D0)" stroke-width="11.9738" stroke-linecap="round"/>
<path id="Vector 358" opacity="0.2" d="M731.908 541.009C737.057 525.704 749.538 524.978 752.973 533.489C758.318 546.731 743.757 557.689 740.07 551.343" stroke="var(--stroke-0, #D0D0D0)" stroke-width="11.9738" stroke-linecap="round"/>
<path id="Vector 469" opacity="0.2" d="M755.966 584.127C750.816 599.432 738.336 600.157 734.9 591.646C729.555 578.404 744.117 567.446 747.803 573.793" stroke="var(--stroke-0, #D0D0D0)" stroke-width="11.9738" stroke-linecap="round"/>
<path id="Vector 316" opacity="0.2" d="M1421.5 454.878C1413.81 469.078 1401.39 467.66 1399.46 458.687C1396.46 444.726 1412.68 436.418 1415.22 443.301" stroke="var(--stroke-0, #D0D0D0)" stroke-width="11.9738" stroke-linecap="round"/>
<path id="Vector 470" opacity="0.2" d="M66.373 670.257C74.0622 656.057 86.4832 657.476 88.4135 666.449C91.4166 680.409 75.1968 688.717 72.6489 681.834" stroke="var(--stroke-0, #D0D0D0)" stroke-width="11.9738" stroke-linecap="round"/>
<path id="Vector 359" opacity="0.2" d="M1074.51 520.163C1069.36 535.468 1056.88 536.193 1053.45 527.682C1048.1 514.44 1062.66 503.482 1066.35 509.829" stroke="var(--stroke-0, #D0D0D0)" stroke-width="11.9738" stroke-linecap="round"/>
<path id="Vector 471" opacity="0.2" d="M413.36 604.972C418.509 589.667 430.99 588.942 434.425 597.453C439.77 610.695 425.209 621.653 421.522 615.306" stroke="var(--stroke-0, #D0D0D0)" stroke-width="11.9738" stroke-linecap="round"/>
<path id="Vector 290" opacity="0.2" d="M1202.23 64.4283C1217.75 68.8633 1219.06 81.297 1210.71 85.1229C1197.73 91.0752 1186.11 77.0372 1192.28 73.0604" stroke="var(--stroke-0, #D0D0D0)" stroke-width="11.9738" stroke-linecap="round"/>
<path id="Vector 472" opacity="0.2" d="M285.646 1060.71C270.119 1056.27 268.817 1043.84 277.16 1040.01C290.14 1034.06 301.76 1048.1 295.591 1052.07" stroke="var(--stroke-0, #D0D0D0)" stroke-width="11.9738" stroke-linecap="round"/>
<path id="Vector 317" opacity="0.2" d="M1275.89 816.995C1262.27 808.324 1264.56 796.034 1273.65 794.741C1287.78 792.729 1294.93 809.494 1287.88 811.551" stroke="var(--stroke-0, #D0D0D0)" stroke-width="11.9738" stroke-linecap="round"/>
<path id="Vector 473" opacity="0.2" d="M211.983 308.14C225.606 316.811 223.315 329.101 214.228 330.395C200.091 332.406 192.947 315.641 199.992 313.585" stroke="var(--stroke-0, #D0D0D0)" stroke-width="11.9738" stroke-linecap="round"/>
<path id="Vector 360" opacity="0.2" d="M1014.69 888.238C998.63 886.522 995.221 874.494 1002.79 869.299C1014.56 861.215 1028.41 873.061 1023.01 878.033" stroke="var(--stroke-0, #D0D0D0)" stroke-width="11.9738" stroke-linecap="round"/>
<path id="Vector 474" opacity="0.2" d="M473.187 236.897C489.244 238.613 492.652 250.641 485.086 255.837C473.314 263.92 459.465 252.074 464.864 247.102" stroke="var(--stroke-0, #D0D0D0)" stroke-width="11.9738" stroke-linecap="round"/>
<path id="Vector 291" opacity="0.2" d="M1265.16 180.986C1280.69 185.421 1281.99 197.855 1273.65 201.681C1260.67 207.633 1249.04 193.595 1255.21 189.618" stroke="var(--stroke-0, #D0D0D0)" stroke-width="11.9738" stroke-linecap="round"/>
<path id="Vector 475" opacity="0.2" d="M222.715 944.149C207.188 939.714 205.885 927.28 214.228 923.454C227.208 917.502 238.829 931.54 232.66 935.517" stroke="var(--stroke-0, #D0D0D0)" stroke-width="11.9738" stroke-linecap="round"/>
<path id="Vector 361" opacity="0.2" d="M873.662 277.021C889.718 278.737 893.127 290.765 885.56 295.961C873.789 304.044 859.94 292.199 865.338 287.226" stroke="var(--stroke-0, #D0D0D0)" stroke-width="11.9738" stroke-linecap="round"/>
<path id="Vector 535" opacity="0.2" d="M726.496 214.772C742.552 216.488 745.961 228.516 738.394 233.712C726.623 241.795 712.774 229.949 718.172 224.977" stroke="var(--stroke-0, #D0D0D0)" stroke-width="11.9738" stroke-linecap="round"/>
<path id="Vector 476" opacity="0.2" d="M614.212 848.114C598.155 846.398 594.747 834.37 602.313 829.175C614.085 821.091 627.934 832.937 622.535 837.909" stroke="var(--stroke-0, #D0D0D0)" stroke-width="11.9738" stroke-linecap="round"/>
<path id="Vector 318" opacity="0.2" d="M1236.71 690.755C1221.19 686.32 1219.89 673.886 1228.23 670.06C1241.21 664.108 1252.83 678.146 1246.66 682.123" stroke="var(--stroke-0, #D0D0D0)" stroke-width="11.9738" stroke-linecap="round"/>
<path id="Vector 477" opacity="0.2" d="M251.159 434.38C266.686 438.815 267.988 451.249 259.645 455.075C246.665 461.027 235.045 446.989 241.214 443.013" stroke="var(--stroke-0, #D0D0D0)" stroke-width="11.9738" stroke-linecap="round"/>
<path id="Vector 362" opacity="0.2" d="M932.759 784.151C916.703 782.435 913.295 770.406 920.861 765.211C932.633 757.128 946.482 768.973 941.083 773.946" stroke="var(--stroke-0, #D0D0D0)" stroke-width="11.9738" stroke-linecap="round"/>
<path id="Vector 478" opacity="0.2" d="M555.114 340.985C571.17 342.701 574.579 354.729 567.013 359.924C555.241 368.008 541.392 356.162 546.79 351.19" stroke="var(--stroke-0, #D0D0D0)" stroke-width="11.9738" stroke-linecap="round"/>
<path id="Vector 542" opacity="0.2" d="M317.496 224.772C333.553 226.488 336.961 238.516 329.395 243.712C317.623 251.795 303.774 239.949 309.173 234.977" stroke="var(--stroke-0, #D0D0D0)" stroke-width="11.9738" stroke-linecap="round"/>
<path id="Vector 292" opacity="0.2" d="M1320.9 359.273C1320.87 359.287 1320.85 359.301 1320.5 359.529C1320.16 359.757 1319.48 360.198 1318.31 361.328C1317.14 362.457 1315.49 364.261 1313.79 366.119" stroke="var(--stroke-0, #D0D0D0)" stroke-width="11.9738" stroke-linecap="round"/>
<path id="Vector 479" opacity="0.2" d="M166.977 765.863C167 765.848 167.023 765.834 167.37 765.606C167.718 765.378 168.389 764.937 169.561 763.808C170.733 762.678 172.386 760.874 174.088 759.016" stroke="var(--stroke-0, #D0D0D0)" stroke-width="11.9738" stroke-linecap="round"/>
<path id="Vector 363" opacity="0.2" d="M959.05 443.158C959.03 443.176 959.009 443.194 958.706 443.478C958.403 443.762 957.817 444.312 956.855 445.625C955.893 446.938 954.573 448.997 953.214 451.119" stroke="var(--stroke-0, #D0D0D0)" stroke-width="11.9738" stroke-linecap="round"/>
<path id="Vector 529" opacity="0.2" d="M704.519 276.409C704.507 276.385 704.494 276.361 704.293 275.998C704.093 275.634 703.704 274.931 702.667 273.676C701.631 272.421 699.958 270.636 698.235 268.796" stroke="var(--stroke-0, #D0D0D0)" stroke-width="11.9738" stroke-linecap="round"/>
<path id="Vector 480" opacity="0.2" d="M528.824 681.977C528.844 681.959 528.864 681.941 529.167 681.657C529.471 681.373 530.057 680.824 531.018 679.511C531.98 678.198 533.3 676.138 534.66 674.016" stroke="var(--stroke-0, #D0D0D0)" stroke-width="11.9738" stroke-linecap="round"/>
<path id="Vector 382" opacity="0.2" d="M1036.07 342.851C1036.05 342.869 1036.03 342.887 1035.73 343.171C1035.43 343.455 1034.84 344.005 1033.88 345.318C1032.92 346.631 1031.6 348.69 1030.24 350.813" stroke="var(--stroke-0, #D0D0D0)" stroke-width="11.9738" stroke-linecap="round"/>
<path id="Vector 525" opacity="0.2" d="M1040.07 487.851C1040.05 487.869 1040.03 487.887 1039.73 488.171C1039.43 488.455 1038.84 489.005 1037.88 490.318C1036.92 491.631 1035.6 493.69 1034.24 495.813" stroke="var(--stroke-0, #D0D0D0)" stroke-width="11.9738" stroke-linecap="round"/>
<path id="Vector 537" opacity="0.2" d="M627.075 226.851C627.055 226.869 627.035 226.887 626.732 227.171C626.428 227.455 625.842 228.005 624.88 229.318C623.919 230.631 622.599 232.69 621.239 234.813" stroke="var(--stroke-0, #D0D0D0)" stroke-width="11.9738" stroke-linecap="round"/>
<path id="Vector 541" opacity="0.2" d="M717.075 190.851C717.055 190.869 717.035 190.887 716.732 191.171C716.428 191.455 715.842 192.005 714.88 193.318C713.919 194.631 712.599 196.69 711.239 198.813" stroke="var(--stroke-0, #D0D0D0)" stroke-width="11.9738" stroke-linecap="round"/>
<path id="Vector 526" opacity="0.2" d="M994.075 254.851C994.055 254.869 994.035 254.887 993.732 255.171C993.428 255.455 992.842 256.005 991.88 257.318C990.919 258.631 989.599 260.69 988.239 262.813" stroke="var(--stroke-0, #D0D0D0)" stroke-width="11.9738" stroke-linecap="round"/>
<path id="Vector 481" opacity="0.2" d="M451.799 782.284C451.819 782.266 451.839 782.248 452.142 781.964C452.445 781.68 453.031 781.131 453.993 779.818C454.955 778.505 456.275 776.445 457.635 774.323" stroke="var(--stroke-0, #D0D0D0)" stroke-width="11.9738" stroke-linecap="round"/>
<path id="Vector 319" opacity="0.2" d="M1180.98 512.469C1181 512.454 1181.02 512.44 1181.37 512.212C1181.72 511.984 1182.39 511.543 1183.56 510.414C1184.73 509.284 1186.39 507.48 1188.09 505.622" stroke="var(--stroke-0, #D0D0D0)" stroke-width="11.9738" stroke-linecap="round"/>
<path id="Vector 482" opacity="0.2" d="M306.896 612.667C306.873 612.681 306.851 612.695 306.503 612.923C306.156 613.151 305.484 613.593 304.312 614.722C303.14 615.851 301.488 617.655 299.785 619.513" stroke="var(--stroke-0, #D0D0D0)" stroke-width="11.9738" stroke-linecap="round"/>
<path id="Vector 364" opacity="0.2" d="M847.372 618.014C847.392 617.996 847.412 617.978 847.715 617.694C848.018 617.41 848.605 616.86 849.566 615.547C850.528 614.234 851.848 612.174 853.208 610.052" stroke="var(--stroke-0, #D0D0D0)" stroke-width="11.9738" stroke-linecap="round"/>
<path id="Vector 520" opacity="0.2" d="M776.239 682.813C776.259 682.795 776.279 682.777 776.582 682.493C776.886 682.209 777.472 681.659 778.434 680.346C779.395 679.033 780.715 676.973 782.075 674.851" stroke="var(--stroke-0, #D0D0D0)" stroke-width="11.9738" stroke-linecap="round"/>
<path id="Vector 522" opacity="0.2" d="M840.239 814.813C840.259 814.795 840.279 814.777 840.582 814.493C840.886 814.209 841.472 813.659 842.434 812.346C843.395 811.033 844.715 808.973 846.075 806.851" stroke="var(--stroke-0, #D0D0D0)" stroke-width="11.9738" stroke-linecap="round"/>
<path id="Vector 523" opacity="0.2" d="M772.239 722.813C772.259 722.795 772.279 722.777 772.582 722.493C772.886 722.209 773.472 721.659 774.434 720.346C775.395 719.033 776.715 716.973 778.075 714.851" stroke="var(--stroke-0, #D0D0D0)" stroke-width="11.9738" stroke-linecap="round"/>
<path id="Vector 483" opacity="0.2" d="M640.502 507.122C640.482 507.14 640.462 507.158 640.158 507.442C639.855 507.726 639.269 508.275 638.307 509.588C637.345 510.901 636.025 512.961 634.666 515.083" stroke="var(--stroke-0, #D0D0D0)" stroke-width="11.9738" stroke-linecap="round"/>
<path id="Vector 293" opacity="0.2" d="M1280.06 233.05C1280.08 233.036 1280.1 233.022 1280.45 232.794C1280.8 232.565 1281.47 232.124 1282.64 230.995C1283.81 229.866 1285.46 228.062 1287.17 226.203" stroke="var(--stroke-0, #D0D0D0)" stroke-width="11.9738" stroke-linecap="round"/>
<path id="Vector 484" opacity="0.2" d="M207.818 892.085C207.795 892.1 207.773 892.114 207.425 892.342C207.078 892.57 206.406 893.011 205.234 894.141C204.062 895.27 202.41 897.074 200.707 898.932" stroke="var(--stroke-0, #D0D0D0)" stroke-width="11.9738" stroke-linecap="round"/>
<path id="Vector 365" opacity="0.2" d="M897.237 325.773C897.257 325.755 897.277 325.737 897.58 325.453C897.884 325.169 898.47 324.619 899.432 323.306C900.393 321.993 901.713 319.933 903.073 317.811" stroke="var(--stroke-0, #D0D0D0)" stroke-width="11.9738" stroke-linecap="round"/>
<path id="Vector 485" opacity="0.2" d="M590.636 799.363C590.616 799.381 590.596 799.399 590.293 799.683C589.99 799.967 589.404 800.516 588.442 801.829C587.48 803.142 586.16 805.202 584.8 807.324" stroke="var(--stroke-0, #D0D0D0)" stroke-width="11.9738" stroke-linecap="round"/>
<path id="Vector 320" opacity="0.2" d="M1221.82 638.691C1221.8 638.706 1221.77 638.72 1221.43 638.948C1221.08 639.176 1220.41 639.617 1219.23 640.746C1218.06 641.876 1216.41 643.68 1214.71 645.538" stroke="var(--stroke-0, #D0D0D0)" stroke-width="11.9738" stroke-linecap="round"/>
<path id="Vector 486" opacity="0.2" d="M266.055 486.444C266.078 486.43 266.101 486.416 266.448 486.188C266.796 485.96 267.467 485.518 268.639 484.389C269.811 483.26 271.464 481.456 273.166 479.597" stroke="var(--stroke-0, #D0D0D0)" stroke-width="11.9738" stroke-linecap="round"/>
<path id="Vector 366" opacity="0.2" d="M909.184 735.399C909.164 735.417 909.144 735.435 908.841 735.719C908.538 736.003 907.952 736.553 906.99 737.866C906.028 739.179 904.708 741.238 903.348 743.36" stroke="var(--stroke-0, #D0D0D0)" stroke-width="11.9738" stroke-linecap="round"/>
<path id="Vector 487" opacity="0.2" d="M578.689 389.736C578.709 389.718 578.729 389.7 579.033 389.416C579.336 389.132 579.922 388.583 580.884 387.27C581.846 385.957 583.165 383.897 584.525 381.775" stroke="var(--stroke-0, #D0D0D0)" stroke-width="11.9738" stroke-linecap="round"/>
<path id="Vector 294" opacity="0.2" d="M1113.88 441.352C1113.9 441.371 1113.92 441.389 1114.23 441.663C1114.54 441.938 1115.14 442.469 1116.54 443.3C1117.94 444.131 1120.12 445.246 1122.36 446.396" stroke="var(--stroke-0, #D0D0D0)" stroke-width="11.9738" stroke-linecap="round"/>
<path id="Vector 488" opacity="0.2" d="M373.996 683.783C373.976 683.765 373.956 683.746 373.644 683.472C373.333 683.197 372.729 682.667 371.33 681.836C369.93 681.005 367.753 679.889 365.51 678.739" stroke="var(--stroke-0, #D0D0D0)" stroke-width="11.9738" stroke-linecap="round"/>
<path id="Vector 367" opacity="0.2" d="M763.425 496.799C763.447 496.813 763.47 496.828 763.824 497.045C764.178 497.262 764.863 497.682 766.384 498.262C767.905 498.841 770.241 499.569 772.647 500.318" stroke="var(--stroke-0, #D0D0D0)" stroke-width="11.9738" stroke-linecap="round"/>
<path id="Vector 489" opacity="0.2" d="M724.449 628.337C724.426 628.322 724.404 628.307 724.05 628.09C723.695 627.873 723.01 627.453 721.489 626.874C719.968 626.294 717.633 625.567 715.226 624.818" stroke="var(--stroke-0, #D0D0D0)" stroke-width="11.9738" stroke-linecap="round"/>
<path id="Vector 321" opacity="0.2" d="M1382.89 493.051C1382.87 493.033 1382.85 493.015 1382.54 492.74C1382.23 492.466 1381.62 491.935 1380.23 491.104C1378.83 490.273 1376.65 489.157 1374.41 488.008" stroke="var(--stroke-0, #D0D0D0)" stroke-width="11.9738" stroke-linecap="round"/>
<path id="Vector 490" opacity="0.2" d="M104.982 632.084C105.002 632.102 105.022 632.121 105.334 632.395C105.645 632.67 106.249 633.2 107.648 634.031C109.048 634.862 111.225 635.978 113.468 637.128" stroke="var(--stroke-0, #D0D0D0)" stroke-width="11.9738" stroke-linecap="round"/>
<path id="Vector 368" opacity="0.2" d="M1043 564.373C1042.97 564.358 1042.95 564.344 1042.6 564.127C1042.24 563.909 1041.56 563.49 1040.04 562.91C1038.52 562.33 1036.18 561.603 1033.77 560.854" stroke="var(--stroke-0, #D0D0D0)" stroke-width="11.9738" stroke-linecap="round"/>
<path id="Vector 491" opacity="0.2" d="M444.878 560.762C444.9 560.777 444.923 560.791 445.277 561.009C445.631 561.226 446.316 561.646 447.837 562.225C449.358 562.805 451.694 563.532 454.1 564.281" stroke="var(--stroke-0, #D0D0D0)" stroke-width="11.9738" stroke-linecap="round"/>
<path id="Vector 539" opacity="0.2" d="M443.878 637.567C443.9 637.581 443.923 637.596 444.277 637.813C444.631 638.031 445.316 638.45 446.837 639.03C448.358 639.61 450.694 640.337 453.1 641.086" stroke="var(--stroke-0, #D0D0D0)" stroke-width="11.9738" stroke-linecap="round"/>
<path id="Vector 295" opacity="0.2" d="M1243.23 218.851C1243.22 218.874 1243.2 218.897 1243 219.261C1242.8 219.625 1242.41 220.329 1241.91 221.875C1241.4 223.421 1240.78 225.788 1240.14 228.227" stroke="var(--stroke-0, #D0D0D0)" stroke-width="11.9738" stroke-linecap="round"/>
<path id="Vector 492" opacity="0.2" d="M244.643 906.285C244.657 906.261 244.67 906.238 244.871 905.874C245.072 905.51 245.459 904.806 245.968 903.26C246.476 901.714 247.094 899.347 247.731 896.909" stroke="var(--stroke-0, #D0D0D0)" stroke-width="11.9738" stroke-linecap="round"/>
<path id="Vector 369" opacity="0.2" d="M858.527 318.076C858.518 318.101 858.508 318.126 858.373 318.519C858.237 318.912 857.976 319.672 857.739 321.282C857.502 322.892 857.298 325.33 857.087 327.842" stroke="var(--stroke-0, #D0D0D0)" stroke-width="11.9738" stroke-linecap="round"/>
<path id="Vector 493" opacity="0.2" d="M629.346 807.059C629.356 807.034 629.365 807.009 629.501 806.616C629.636 806.223 629.897 805.463 630.134 803.853C630.371 802.243 630.576 799.805 630.787 797.294" stroke="var(--stroke-0, #D0D0D0)" stroke-width="11.9738" stroke-linecap="round"/>
<path id="Vector 393" opacity="0.2" d="M839.494 331.482C839.503 331.507 839.511 331.533 839.657 331.922C839.802 332.312 840.083 333.064 840.924 334.458C841.765 335.851 843.157 337.863 844.591 339.935" stroke="var(--stroke-0, #D0D0D0)" stroke-width="11.9738" stroke-linecap="round"/>
<path id="Vector 494" opacity="0.2" d="M648.38 793.653C648.371 793.628 648.362 793.602 648.217 793.213C648.072 792.824 647.79 792.071 646.949 790.678C646.108 789.284 644.716 787.273 643.282 785.2" stroke="var(--stroke-0, #D0D0D0)" stroke-width="11.9738" stroke-linecap="round"/>
<path id="Vector 394" opacity="0.2" d="M832.878 351.124C832.894 351.145 832.911 351.166 833.177 351.485C833.444 351.804 833.959 352.42 835.215 353.455C836.471 354.49 838.452 355.925 840.493 357.404" stroke="var(--stroke-0, #D0D0D0)" stroke-width="11.9738" stroke-linecap="round"/>
<path id="Vector 495" opacity="0.2" d="M654.996 774.012C654.979 773.991 654.962 773.97 654.696 773.651C654.43 773.332 653.914 772.715 652.658 771.68C651.402 770.645 649.421 769.21 647.38 767.731" stroke="var(--stroke-0, #D0D0D0)" stroke-width="11.9738" stroke-linecap="round"/>
<path id="Vector 392" opacity="0.2" d="M879.232 313.851C879.223 313.876 879.213 313.902 879.078 314.294C878.943 314.687 878.681 315.447 878.444 317.057C878.207 318.668 878.003 321.105 877.792 323.617" stroke="var(--stroke-0, #D0D0D0)" stroke-width="11.9738" stroke-linecap="round"/>
<path id="Vector 496" opacity="0.2" d="M608.641 811.284C608.651 811.259 608.66 811.234 608.795 810.841C608.931 810.448 609.192 809.688 609.429 808.078C609.666 806.468 609.871 804.03 610.082 801.518" stroke="var(--stroke-0, #D0D0D0)" stroke-width="11.9738" stroke-linecap="round"/>
<path id="Vector 322" opacity="0.2" d="M1258.64 652.891C1258.66 652.867 1258.67 652.844 1258.87 652.48C1259.07 652.116 1259.46 651.412 1259.97 649.866C1260.48 648.32 1261.09 645.953 1261.73 643.515" stroke="var(--stroke-0, #D0D0D0)" stroke-width="11.9738" stroke-linecap="round"/>
<path id="Vector 497" opacity="0.2" d="M229.23 472.245C229.217 472.268 229.203 472.291 229.003 472.655C228.802 473.019 228.415 473.723 227.906 475.269C227.397 476.815 226.779 479.182 226.142 481.621" stroke="var(--stroke-0, #D0D0D0)" stroke-width="11.9738" stroke-linecap="round"/>
<path id="Vector 370" opacity="0.2" d="M947.894 743.096C947.904 743.07 947.913 743.045 948.048 742.652C948.184 742.26 948.445 741.5 948.682 739.89C948.919 738.279 949.124 735.842 949.335 733.33" stroke="var(--stroke-0, #D0D0D0)" stroke-width="11.9738" stroke-linecap="round"/>
<path id="Vector 498" opacity="0.2" d="M539.979 382.04C539.97 382.065 539.961 382.09 539.825 382.483C539.69 382.876 539.428 383.636 539.191 385.246C538.954 386.856 538.75 389.294 538.539 391.805" stroke="var(--stroke-0, #D0D0D0)" stroke-width="11.9738" stroke-linecap="round"/>
<path id="Vector 538" opacity="0.2" d="M458.232 205.851C458.223 205.876 458.213 205.902 458.078 206.294C457.943 206.687 457.681 207.447 457.444 209.057C457.207 210.668 457.003 213.105 456.792 215.617" stroke="var(--stroke-0, #D0D0D0)" stroke-width="11.9738" stroke-linecap="round"/>
<path id="Vector 546" opacity="0.2" d="M341.232 269.851C341.223 269.876 341.213 269.902 341.078 270.294C340.943 270.687 340.681 271.447 340.444 273.057C340.207 274.668 340.003 277.105 339.792 279.617" stroke="var(--stroke-0, #D0D0D0)" stroke-width="11.9738" stroke-linecap="round"/>
<path id="Vector 531" opacity="0.2" d="M459.232 356.851C459.223 356.876 459.213 356.902 459.078 357.294C458.943 357.687 458.681 358.447 458.444 360.057C458.207 361.668 458.003 364.105 457.792 366.617" stroke="var(--stroke-0, #D0D0D0)" stroke-width="11.9738" stroke-linecap="round"/>
<path id="Vector 545" opacity="0.2" d="M331.232 195.851C331.223 195.876 331.213 195.902 331.078 196.294C330.943 196.687 330.681 197.447 330.444 199.057C330.207 200.668 330.003 203.105 329.792 205.617" stroke="var(--stroke-0, #D0D0D0)" stroke-width="11.9738" stroke-linecap="round"/>
<path id="Vector 532" opacity="0.2" d="M520.232 409.851C520.223 409.876 520.213 409.902 520.078 410.294C519.943 410.687 519.681 411.447 519.444 413.057C519.207 414.668 519.003 417.105 518.792 419.617" stroke="var(--stroke-0, #D0D0D0)" stroke-width="11.9738" stroke-linecap="round"/>
<path id="Vector 533" opacity="0.2" d="M711.232 401.851C711.223 401.876 711.213 401.902 711.078 402.294C710.943 402.687 710.681 403.447 710.444 405.057C710.207 406.668 710.003 409.105 709.792 411.617" stroke="var(--stroke-0, #D0D0D0)" stroke-width="11.9738" stroke-linecap="round"/>
<path id="Vector 534" opacity="0.2" d="M708.232 315.851C708.223 315.876 708.213 315.902 708.078 316.294C707.943 316.687 707.681 317.447 707.444 319.057C707.207 320.668 707.003 323.105 706.792 325.617" stroke="var(--stroke-0, #D0D0D0)" stroke-width="11.9738" stroke-linecap="round"/>
<path id="Vector 296" opacity="0.2" d="M1258.33 321.842C1244.43 328.394 1225.12 320.142 1223.13 304.242" stroke="var(--stroke-0, #D0D0D0)" stroke-width="11.9738" stroke-linecap="round"/>
<path id="Vector 499" opacity="0.2" d="M229.544 803.293C243.445 796.741 262.754 804.994 264.742 820.893" stroke="var(--stroke-0, #D0D0D0)" stroke-width="11.9738" stroke-linecap="round"/>
<path id="Vector 371" opacity="0.2" d="M891.005 416.971C878.43 425.803 857.994 420.972 853.318 405.646" stroke="var(--stroke-0, #D0D0D0)" stroke-width="11.9738" stroke-linecap="round"/>
<path id="Vector 500" opacity="0.2" d="M596.868 708.164C609.444 699.332 629.88 704.163 634.555 719.489" stroke="var(--stroke-0, #D0D0D0)" stroke-width="11.9738" stroke-linecap="round"/>
<path id="Vector 383" opacity="0.2" d="M1054.99 421.176C1042.41 430.008 1021.98 425.177 1017.3 409.851" stroke="var(--stroke-0, #D0D0D0)" stroke-width="11.9738" stroke-linecap="round"/>
<path id="Vector 501" opacity="0.2" d="M432.885 703.959C445.46 695.127 465.896 699.958 470.572 715.284" stroke="var(--stroke-0, #D0D0D0)" stroke-width="11.9738" stroke-linecap="round"/>
<path id="Vector 323" opacity="0.2" d="M1243.54 549.899C1257.44 543.347 1276.75 551.6 1278.74 567.499" stroke="var(--stroke-0, #D0D0D0)" stroke-width="11.9738" stroke-linecap="round"/>
<path id="Vector 502" opacity="0.2" d="M244.329 575.236C230.429 581.788 211.119 573.536 209.132 557.636" stroke="var(--stroke-0, #D0D0D0)" stroke-width="11.9738" stroke-linecap="round"/>
<path id="Vector 372" opacity="0.2" d="M915.415 644.2C927.991 635.369 948.427 640.2 953.102 655.525" stroke="var(--stroke-0, #D0D0D0)" stroke-width="11.9738" stroke-linecap="round"/>
<path id="Vector 503" opacity="0.2" d="M572.459 480.935C559.883 489.766 539.447 484.936 534.771 469.61" stroke="var(--stroke-0, #D0D0D0)" stroke-width="11.9738" stroke-linecap="round"/>
<path id="Vector 530" opacity="0.2" d="M448.231 249.236C432.941 250.767 417.498 236.537 420.937 220.887" stroke="var(--stroke-0, #D0D0D0)" stroke-width="11.9738" stroke-linecap="round"/>
<path id="Vector 297" opacity="0.2" d="M1295.01 155.451C1281.11 162.003 1261.8 153.751 1259.81 137.851" stroke="var(--stroke-0, #D0D0D0)" stroke-width="11.9738" stroke-linecap="round"/>
<path id="Vector 504" opacity="0.2" d="M192.868 969.685C206.768 963.132 226.077 971.385 228.065 987.284" stroke="var(--stroke-0, #D0D0D0)" stroke-width="11.9738" stroke-linecap="round"/>
<path id="Vector 373" opacity="0.2" d="M898.705 246.76C886.129 255.591 865.693 250.761 861.017 235.435" stroke="var(--stroke-0, #D0D0D0)" stroke-width="11.9738" stroke-linecap="round"/>
<path id="Vector 505" opacity="0.2" d="M589.169 878.375C601.745 869.544 622.181 874.375 626.856 889.701" stroke="var(--stroke-0, #D0D0D0)" stroke-width="11.9738" stroke-linecap="round"/>
<path id="Vector 324" opacity="0.2" d="M1206.87 716.291C1220.77 709.738 1240.08 717.991 1242.06 733.89" stroke="var(--stroke-0, #D0D0D0)" stroke-width="11.9738" stroke-linecap="round"/>
<path id="Vector 506" opacity="0.2" d="M281.006 408.845C267.106 415.397 247.796 407.145 245.809 391.245" stroke="var(--stroke-0, #D0D0D0)" stroke-width="11.9738" stroke-linecap="round"/>
<path id="Vector 374" opacity="0.2" d="M907.716 814.412C920.292 805.58 940.727 810.411 945.403 825.737" stroke="var(--stroke-0, #D0D0D0)" stroke-width="11.9738" stroke-linecap="round"/>
<path id="Vector 507" opacity="0.2" d="M580.158 310.724C567.582 319.555 547.146 314.724 542.47 299.398" stroke="var(--stroke-0, #D0D0D0)" stroke-width="11.9738" stroke-linecap="round"/>
<path id="Vector 298" opacity="0.2" d="M1342.62 270.481C1356.52 263.929 1375.83 272.181 1377.82 288.081" stroke="var(--stroke-0, #D0D0D0)" stroke-width="11.9738" stroke-linecap="round"/>
<path id="Vector 508" opacity="0.2" d="M145.25 854.654C131.35 861.206 112.04 852.954 110.053 837.055" stroke="var(--stroke-0, #D0D0D0)" stroke-width="11.9738" stroke-linecap="round"/>
<path id="Vector 375" opacity="0.2" d="M965.282 351.96C977.858 343.128 998.294 347.959 1002.97 363.285" stroke="var(--stroke-0, #D0D0D0)" stroke-width="11.9738" stroke-linecap="round"/>
<path id="Vector 509" opacity="0.2" d="M522.591 773.175C510.016 782.007 489.58 777.176 484.904 761.85" stroke="var(--stroke-0, #D0D0D0)" stroke-width="11.9738" stroke-linecap="round"/>
<path id="Vector 395" opacity="0.2" d="M1076.51 216.973C1071.48 202.451 1081.75 184.136 1097.77 183.863" stroke="var(--stroke-0, #D0D0D0)" stroke-width="11.9738" stroke-linecap="round"/>
<path id="Vector 510" opacity="0.2" d="M411.368 908.163C416.394 922.685 406.12 940.999 390.099 941.272" stroke="var(--stroke-0, #D0D0D0)" stroke-width="11.9738" stroke-linecap="round"/>
<path id="Vector 325" opacity="0.2" d="M1159.25 601.26C1145.35 607.812 1126.04 599.56 1124.05 583.66" stroke="var(--stroke-0, #D0D0D0)" stroke-width="11.9738" stroke-linecap="round"/>
<path id="Vector 511" opacity="0.2" d="M328.623 523.875C342.524 517.323 361.833 525.575 363.821 541.475" stroke="var(--stroke-0, #D0D0D0)" stroke-width="11.9738" stroke-linecap="round"/>
<path id="Vector 376" opacity="0.2" d="M841.139 709.212C828.563 718.044 808.127 713.213 803.452 697.887" stroke="var(--stroke-0, #D0D0D0)" stroke-width="11.9738" stroke-linecap="round"/>
<path id="Vector 512" opacity="0.2" d="M646.734 415.923C659.31 407.092 679.746 411.923 684.422 427.248" stroke="var(--stroke-0, #D0D0D0)" stroke-width="11.9738" stroke-linecap="round"/>
<path id="Vector 299" opacity="0.2" d="M1175.04 90.002C1165.81 102.289 1144.89 104.015 1135.7 90.8859" stroke="var(--stroke-0, #D0D0D0)" stroke-width="11.9738" stroke-linecap="round"/>
<path id="Vector 513" opacity="0.2" d="M312.83 1035.13C322.059 1022.85 342.987 1021.12 352.173 1034.25" stroke="var(--stroke-0, #D0D0D0)" stroke-width="11.9738" stroke-linecap="round"/>
<path id="Vector 326" opacity="0.2" d="M1309.23 800.216C1321.57 791.064 1342.13 795.367 1347.2 810.567" stroke="var(--stroke-0, #D0D0D0)" stroke-width="11.9738" stroke-linecap="round"/>
<path id="Vector 543" opacity="0.2" d="M1340.47 705.202C1352.81 714.354 1373.36 710.052 1378.43 694.851" stroke="var(--stroke-0, #D0D0D0)" stroke-width="11.9738" stroke-linecap="round"/>
<path id="Vector 514" opacity="0.2" d="M178.645 324.919C166.301 334.071 145.747 329.768 140.678 314.568" stroke="var(--stroke-0, #D0D0D0)" stroke-width="11.9738" stroke-linecap="round"/>
<path id="Vector 377" opacity="0.2" d="M1037.1 858.395C1044.09 844.711 1064.42 839.434 1075.71 850.8" stroke="var(--stroke-0, #D0D0D0)" stroke-width="11.9738" stroke-linecap="round"/>
<path id="Vector 515" opacity="0.2" d="M450.775 266.741C443.782 280.424 423.456 285.701 412.162 274.335" stroke="var(--stroke-0, #D0D0D0)" stroke-width="11.9738" stroke-linecap="round"/>
<path id="Vector 300" opacity="0.2" d="M1280.75 110.922C1271.52 123.209 1250.59 124.935 1241.4 111.806" stroke="var(--stroke-0, #D0D0D0)" stroke-width="11.9738" stroke-linecap="round"/>
<path id="Vector 516" opacity="0.2" d="M207.127 1014.21C216.356 1001.93 237.284 1000.2 246.47 1013.33" stroke="var(--stroke-0, #D0D0D0)" stroke-width="11.9738" stroke-linecap="round"/>
<path id="Vector 378" opacity="0.2" d="M877.045 205.324C870.052 219.007 849.727 224.284 838.433 212.918" stroke="var(--stroke-0, #D0D0D0)" stroke-width="11.9738" stroke-linecap="round"/>
<path id="Vector 517" opacity="0.2" d="M610.828 919.812C617.821 906.128 638.147 900.851 649.441 912.217" stroke="var(--stroke-0, #D0D0D0)" stroke-width="11.9738" stroke-linecap="round"/>
<path id="Vector 327" opacity="0.2" d="M1221.13 760.819C1230.36 748.532 1251.28 746.807 1260.47 759.936" stroke="var(--stroke-0, #D0D0D0)" stroke-width="11.9738" stroke-linecap="round"/>
<path id="Vector 518" opacity="0.2" d="M266.746 364.316C257.518 376.603 236.589 378.329 227.404 365.2" stroke="var(--stroke-0, #D0D0D0)" stroke-width="11.9738" stroke-linecap="round"/>
<path id="Vector 379" opacity="0.2" d="M929.376 855.848C936.369 842.164 956.694 836.888 967.989 848.253" stroke="var(--stroke-0, #D0D0D0)" stroke-width="11.9738" stroke-linecap="round"/>
<path id="Vector 519" opacity="0.2" d="M558.497 269.287C551.504 282.971 531.179 288.248 519.885 276.882" stroke="var(--stroke-0, #D0D0D0)" stroke-width="11.9738" stroke-linecap="round"/>
</g>
</svg>
