<svg preserveAspectRatio="none" width="100%" height="100%" overflow="visible" style="display: block;" viewBox="0 0 14.8414 14.8414" fill="none" xmlns="http://www.w3.org/2000/svg">
<path id="Icon" d="M13.1029 9.37002L13.8779 10.145C14.1105 10.3776 14.2269 10.494 14.3102 10.598C15.1072 11.593 14.9955 13.0358 14.0547 13.8962C13.9564 13.9861 13.8235 14.0832 13.5578 14.2772C13.4575 14.3505 13.7083 14.1673 13.5565 14.2618C12.5073 14.9151 9.98721 15.045 8.87646 14.503C8.71575 14.4246 9.5612 14.9175 9.22302 14.7204C7.94449 13.975 6.1978 12.7305 4.15432 10.6871C2.11085 8.64359 0.866399 6.8969 0.121036 5.61837C-0.0761173 5.28019 0.416766 6.12564 0.33835 5.96493C-0.203614 4.85418 -0.073733 2.33405 0.579545 1.28491C0.674066 1.13311 0.490888 1.38392 0.564159 1.2836C0.758227 1.01787 0.855262 0.885011 0.945172 0.786703C1.8056 -0.154097 3.24841 -0.265849 4.24344 0.531237C4.34741 0.614528 4.46375 0.730864 4.69642 0.963535L5.47137 1.73849C6.18343 2.45054 6.35167 3.54203 5.88709 4.43546C5.42251 5.32888 5.59076 6.42037 6.30281 7.13243L7.70896 8.53858C8.42102 9.25063 9.51251 9.41888 10.4059 8.9543C11.2994 8.48972 12.3908 8.65796 13.1029 9.37002Z" fill="var(--fill-0, white)"/>
</svg>
