<svg preserveAspectRatio="none" width="100%" height="100%" overflow="visible" style="display: block;" viewBox="0 0 10 12" fill="none" xmlns="http://www.w3.org/2000/svg">
<g id="Icon">
<path d="M0.714286 5.25H9.28571L8.91031 8.79755C8.79048 9.93001 8.73056 10.4962 8.48177 10.9236C8.26262 11.3 7.94291 11.6004 7.56241 11.7876C7.13046 12 6.58788 12 5.50271 12H4.49729C3.41212 12 2.86954 12 2.43759 11.7876C2.05709 11.6004 1.73738 11.3 1.51823 10.9236C1.26944 10.4962 1.20952 9.93001 1.08969 8.79755L0.714286 5.25Z" fill="var(--fill-0, #ED5C68)"/>
<path d="M0 2.625C0 2.00368 0.479695 1.5 1.07143 1.5C1.66316 1.5 2.11764 0.96565 2.49694 0.511471C2.75877 0.197946 3.14309 0 3.57143 0H6.42857C6.85691 0 7.24123 0.197946 7.50306 0.511471C7.88236 0.96565 8.33684 1.5 8.92857 1.5C9.52031 1.5 10 2.00368 10 2.625C10 3.24632 9.52031 3.75 8.92857 3.75H1.07143C0.479695 3.75 0 3.24632 0 2.625Z" fill="#ED5C68"/>
</g>
</svg>
