<svg preserveAspectRatio="none" width="100%" height="100%" overflow="visible" style="display: block;" viewBox="0 0 16 16" fill="none" xmlns="http://www.w3.org/2000/svg">
<path id="Icon" fill-rule="evenodd" clip-rule="evenodd" d="M8 16C12.4183 16 16 12.4183 16 8C16 3.58172 12.4183 0 8 0C3.58172 0 0 3.58172 0 8C0 12.4183 3.58172 16 8 16ZM7 7.5V4H9V7.5H7ZM9.25 11C9.25 11.6904 8.69036 12.25 8 12.25C7.30964 12.25 6.75 11.6904 6.75 11C6.75 10.3096 7.30964 9.75 8 9.75C8.69036 9.75 9.25 10.3096 9.25 11Z" fill="var(--fill-0, white)"/>
</svg>
