<svg preserveAspectRatio="none" width="100%" height="100%" overflow="visible" style="display: block;" viewBox="0 0 24.0001 19.0805" fill="none" xmlns="http://www.w3.org/2000/svg">
<path id="Vector" fill-rule="evenodd" clip-rule="evenodd" d="M21.6764 9.95699L20.3968 18.9142L3.68524 19.0805L2.25209 10.3562L0.0332698 8.39077L0 6.83989L24.0001 6.80662L23.8517 8.75673L21.6764 9.95699ZM8.63985 11.4132C8.63985 9.77785 6.50804 9.78553 6.51827 11.3108C6.51827 11.7791 6.54642 15.6768 6.55154 16.1067C6.55154 17.5808 8.65264 17.5348 8.6424 15.9941C8.63984 15.5795 8.64496 11.9557 8.63985 11.4132ZM13.0903 11.4132C13.0903 9.77785 10.9585 9.78553 10.9687 11.3108C10.9687 11.7791 10.9969 15.6768 11.002 16.1067C11.002 17.5808 13.1031 17.5348 13.0928 15.9941C13.0903 15.5795 13.0954 11.9557 13.0903 11.4132ZM17.5407 11.4132C17.5407 9.77785 15.4089 9.78553 15.4192 11.3108C15.4192 11.7791 15.4473 15.6768 15.4524 16.1067C15.4524 17.5808 17.5535 17.5348 17.5433 15.9941C17.5407 15.5795 17.5458 11.9557 17.5407 11.4132ZM13.0186 2.11562C11.8107 0.920473 13.4025 -0.740444 14.5695 0.408635L19.6879 5.47328L16.3609 5.46816L13.0186 2.11562ZM7.48565 5.48096H4.19452C5.58416 4.08876 8.97254 0.70806 9.24382 0.431666C10.4338 -0.776274 12.0999 0.815546 10.961 1.96718L7.48565 5.48096Z" fill="var(--fill-0, white)"/>
</svg>
