<svg preserveAspectRatio="none" width="100%" height="100%" overflow="visible" style="display: block;" viewBox="0 0 12.0001 9.54027" fill="none" xmlns="http://www.w3.org/2000/svg">
<path id="Vector" fill-rule="evenodd" clip-rule="evenodd" d="M10.8382 4.9785L10.1984 9.45709L1.84262 9.54026L1.12605 5.17811L0.0166349 4.19538L0 3.41995L12.0001 3.40331L11.9259 4.37837L10.8382 4.9785ZM4.31992 5.70659C4.31992 4.88892 3.25402 4.89276 3.25914 5.6554C3.25914 5.88957 3.27321 7.8384 3.27577 8.05337C3.27577 8.79042 4.32632 8.76739 4.3212 7.99707C4.31992 7.78977 4.32248 5.97786 4.31992 5.70659ZM6.54514 5.70659C6.54514 4.88892 5.47924 4.89276 5.48436 5.6554C5.48436 5.88957 5.49843 7.8384 5.50099 8.05337C5.50099 8.79042 6.55154 8.76739 6.54642 7.99707C6.54514 7.78977 6.5477 5.97786 6.54514 5.70659ZM8.77036 5.70659C8.77036 4.88892 7.70446 4.89276 7.70958 5.6554C7.70958 5.88957 7.72365 7.8384 7.72621 8.05337C7.72621 8.79042 8.77676 8.76739 8.77164 7.99707C8.77036 7.78977 8.77292 5.97786 8.77036 5.70659ZM6.50931 1.05781C5.90534 0.460237 6.70125 -0.370222 7.28475 0.204317L9.84395 2.73664L8.18047 2.73408L6.50931 1.05781ZM3.74282 2.74048H2.09726C2.79208 2.04438 4.48627 0.35403 4.62191 0.215833C5.21692 -0.388137 6.04994 0.407773 5.48052 0.983592L3.74282 2.74048Z" fill="var(--fill-0, white)"/>
</svg>
