<svg preserveAspectRatio="none" width="100%" height="100%" overflow="visible" style="display: block;" viewBox="0 0 9.48148 16" fill="none" xmlns="http://www.w3.org/2000/svg">
<g id="Group 97">
<path id="Ellipse 1" d="M4.74132 9.6301C6.29585 9.63016 7.55577 10.89 7.55577 12.4446C7.55571 13.999 6.29581 15.2589 4.74132 15.259C3.18678 15.259 1.92692 13.9991 1.92687 12.4446C1.92687 10.89 3.18674 9.6301 4.74132 9.6301Z" stroke="var(--stroke-0, #DE7AFF)" stroke-width="1.48148"/>
<path id="Rectangle 55" d="M0 8.29639H9.48148C9.48148 9.27823 8.68554 10.0742 7.7037 10.0742H1.77778C0.79594 10.0742 0 9.27823 0 8.29639Z" fill="var(--fill-0, #DE7AFF)"/>
<path id="Rectangle 57" d="M2.96387 7.5L2.96387 1.57407L6.51942 1.57407L6.51942 7.5L2.96387 7.5Z" fill="var(--fill-0, #DE7AFF)"/>
<path id="Rectangle 56" d="M1.77825 2.96296C1.77825 1.32656 3.10481 0 4.74121 0C6.37761 0 7.70417 1.32656 7.70417 2.96296C7.70417 4.59936 6.37761 5.92593 4.74121 5.92593C3.10481 5.92593 1.77825 4.59936 1.77825 2.96296Z" fill="var(--fill-0, #DE7AFF)"/>
</g>
</svg>
