<svg preserveAspectRatio="none" width="100%" height="100%" overflow="visible" style="display: block;" viewBox="0 0 16 16" fill="none" xmlns="http://www.w3.org/2000/svg">
<g id="Vector">
<path d="M2.5 1C2.5 0.447715 2.94772 0 3.5 0C4.05228 0 4.5 0.447715 4.5 1V3C4.5 3.55228 4.05228 4 3.5 4C2.94772 4 2.5 3.55228 2.5 3V1Z" fill="var(--fill-0, #DE7AFF)"/>
<path d="M11.5 1C11.5 0.447715 11.9477 0 12.5 0C13.0523 0 13.5 0.447715 13.5 1V3C13.5 3.55228 13.0523 4 12.5 4C11.9477 4 11.5 3.55228 11.5 3V1Z" fill="var(--fill-0, #DE7AFF)"/>
<path fill-rule="evenodd" clip-rule="evenodd" d="M1.75 3C1.75 3.9665 2.5335 4.75 3.5 4.75C4.4665 4.75 5.25 3.9665 5.25 3V2H10.75V3C10.75 3.9665 11.5335 4.75 12.5 4.75C13.4665 4.75 14.25 3.9665 14.25 3V2H15C15.5523 2 16 2.44772 16 3V15C16 15.5523 15.5523 16 15 16H1C0.447715 16 2.41598e-08 15.5523 0 15V3C1.93278e-07 2.44772 0.447715 2 1 2H1.75V3ZM1 6V15H15V7C15 6.44772 14.5523 6 14 6H1Z" fill="var(--fill-0, #DE7AFF)"/>
<path d="M6.5 7.25C6.5 7.11193 6.61193 7 6.75 7H9.25C9.38807 7 9.5 7.11193 9.5 7.25V9.75C9.5 9.88807 9.38807 10 9.25 10H6.75C6.61193 10 6.5 9.88807 6.5 9.75V7.25Z" fill="var(--fill-0, #DE7AFF)"/>
<path d="M11 7.25C11 7.11193 11.1119 7 11.25 7H13.75C13.8881 7 14 7.11193 14 7.25V9.75C14 9.88807 13.8881 10 13.75 10H11.25C11.1119 10 11 9.88807 11 9.75V7.25Z" fill="var(--fill-0, #DE7AFF)"/>
<path d="M2 11.25C2 11.1119 2.11193 11 2.25 11H4.75C4.88807 11 5 11.1119 5 11.25V13.75C5 13.8881 4.88807 14 4.75 14H2.25C2.11193 14 2 13.8881 2 13.75V11.25Z" fill="var(--fill-0, #DE7AFF)"/>
<path d="M6.5 11.25C6.5 11.1119 6.61193 11 6.75 11H9.25C9.38807 11 9.5 11.1119 9.5 11.25V13.75C9.5 13.8881 9.38807 14 9.25 14H6.75C6.61193 14 6.5 13.8881 6.5 13.75V11.25Z" fill="var(--fill-0, #DE7AFF)"/>
<path d="M11 11.25C11 11.1119 11.1119 11 11.25 11H13.75C13.8881 11 14 11.1119 14 11.25V13.75C14 13.8881 13.8881 14 13.75 14H11.25C11.1119 14 11 13.8881 11 13.75V11.25Z" fill="var(--fill-0, #DE7AFF)"/>
</g>
</svg>
