<svg preserveAspectRatio="none" width="100%" height="100%" overflow="visible" style="display: block;" viewBox="0 0 11.3928 11.3914" fill="none" xmlns="http://www.w3.org/2000/svg">
<path id="Vector" fill-rule="evenodd" clip-rule="evenodd" d="M3.12895 7.8887L1.18606 1.56247C1.18606 1.56247 0.742464 1.52035 0.494996 1.51377C-0.0104701 1.50192 -0.253989 0.176387 0.380477 0.140846C0.572659 0.130315 2.17857 0 2.17857 0L2.80645 2.54971L11.3928 3.01042L10.3516 7.65176L3.12895 7.8887ZM3.28033 8.6469C5.04551 8.6469 5.08895 11.344 3.40274 11.344C1.40194 11.348 1.54805 8.6469 3.28033 8.6469ZM9.23798 8.6956C11.0032 8.6956 11.0479 11.3914 9.3604 11.3914C7.3596 11.3914 7.50702 8.6956 9.23798 8.6956Z" fill="var(--fill-0, white)"/>
</svg>
