<svg preserveAspectRatio="none" width="100%" height="100%" overflow="visible" style="display: block;" viewBox="0 0 15.1904 15.1886" fill="none" xmlns="http://www.w3.org/2000/svg">
<path id="Vector" fill-rule="evenodd" clip-rule="evenodd" d="M4.17193 10.5183L1.58142 2.08329C1.58142 2.08329 0.989952 2.02713 0.659995 2.01835C-0.0139601 2.00256 -0.338652 0.235182 0.507302 0.187795C0.763545 0.173754 2.90476 0 2.90476 0L3.74194 3.39961L15.1904 4.01389L13.8021 10.2023L4.17193 10.5183ZM4.37377 11.5292C6.72735 11.5292 6.78526 15.1254 4.53699 15.1254C1.86925 15.1306 2.06407 11.5292 4.37377 11.5292ZM12.3173 11.5941C14.6709 11.5941 14.7306 15.1886 12.4805 15.1886C9.8128 15.1886 10.0094 11.5941 12.3173 11.5941Z" fill="var(--fill-0, white)"/>
</svg>
