<svg preserveAspectRatio="none" width="100%" height="100%" overflow="visible" style="display: block;" viewBox="0 0 12.6054 16" fill="none" xmlns="http://www.w3.org/2000/svg">
<g id="Vector">
<path d="M0.0799577 1.19199C0.00647975 0.886046 -0.0721971 0.540199 0.12107 0.291913C0.259068 0.114631 0.478482 0 0.725575 0H11.8798C12.1269 0 12.3463 0.114631 12.4843 0.291913C12.6776 0.540199 12.5989 0.886046 12.5254 1.19199L11.7466 4.43466C11.6731 4.7406 11.6773 5.0863 11.4842 5.33474C11.4001 5.44301 11.2848 5.52897 11.1478 5.57918L6.57066 6.62345C6.398 6.68674 6.20737 6.68674 6.03472 6.62345L1.4576 5.57918C1.32063 5.52897 1.20527 5.44301 1.12113 5.33474C0.928061 5.0863 0.932232 4.7406 0.858754 4.43466L0.0799577 1.19199Z" fill="var(--fill-0, #DE7AFF)"/>
<path fill-rule="evenodd" clip-rule="evenodd" d="M5.81591 6.01019C6.03635 5.65595 6.56733 5.65595 6.78777 6.01019L8.26255 8.38069C8.34172 8.50795 8.47094 8.59878 8.62053 8.63232L11.4071 9.25646C11.8235 9.34976 11.9877 9.83835 11.7074 10.1506L9.8324 12.2399C9.73175 12.352 9.68253 12.4989 9.69578 12.6468L9.94299 15.4033C9.9799 15.8152 9.55029 16.1171 9.15668 15.9558L6.52302 14.8766C6.38162 14.8187 6.22206 14.8187 6.08066 14.8766L3.44701 15.9558C3.0534 16.1171 2.62379 15.8152 2.66069 15.4033L2.90809 12.6468C2.92134 12.4989 2.87193 12.352 2.77128 12.2399L0.896243 10.1506C0.616017 9.83835 0.780155 9.34976 1.19663 9.25646L3.98315 8.63232C4.13275 8.59879 4.26196 8.50796 4.34114 8.38069L5.81591 6.01019ZM6.78869 8.69393C6.56826 8.33963 6.03709 8.33963 5.81665 8.69393L5.26832 9.57523C5.18913 9.7025 5.05994 9.79334 4.91033 9.82685L3.87441 10.0588C3.45797 10.1522 3.29398 10.6407 3.57421 10.953L4.27117 11.7296C4.37184 11.8418 4.42125 11.9888 4.40797 12.1368L4.31603 13.1615C4.27908 13.5735 4.70871 13.8754 5.10234 13.7141L6.0814 13.3128C6.22281 13.2548 6.38254 13.2548 6.52394 13.3128L7.503 13.7141C7.89663 13.8754 8.32626 13.5735 8.28932 13.1615L8.19737 12.1368C8.18409 11.9888 8.2335 11.8418 8.33418 11.7296L9.03113 10.953C9.31138 10.6407 9.14723 10.1521 8.73075 10.0588L7.69483 9.82685C7.54523 9.79332 7.41602 9.7025 7.33684 9.57523L6.78869 8.69393Z" fill="var(--fill-0, #DE7AFF)"/>
</g>
</svg>
