<svg preserveAspectRatio="none" width="100%" height="100%" overflow="visible" style="display: block;" viewBox="0 0 16 14.6108" fill="none" xmlns="http://www.w3.org/2000/svg">
<path id="Icon" fill-rule="evenodd" clip-rule="evenodd" d="M1.36569 0.234315C1.6781 -0.0781048 2.18464 -0.0781048 2.49706 0.234315L15.5078 13.2451C15.8202 13.5575 15.8202 14.064 15.5078 14.3764C15.1954 14.6889 14.6889 14.6889 14.3764 14.3764L12.873 12.873C11.6128 13.7678 9.9822 14.4 8 14.4C2.78172 14.4 0 10.0183 0 8C0 6.74838 1.06978 4.58784 3.12704 3.12704L1.36569 1.36569C1.05327 1.05327 1.05327 0.546734 1.36569 0.234315ZM5.17157 5.17157C4.44772 5.89543 4 6.89543 4 8C4 10.2091 5.79086 12 8 12C9.10457 12 10.1046 11.5523 10.8284 10.8284L9.69706 9.69706C9.24697 10.1471 8.63652 10.4 8 10.4C7.36348 10.4 6.75303 10.1471 6.30294 9.69706C5.85286 9.24697 5.6 8.63652 5.6 8C5.6 7.36348 5.85286 6.75303 6.30294 6.30294L5.17157 5.17157ZM6.12973 1.79836L8.34614 4.01477C10.2791 4.18045 11.8195 5.72086 11.9852 7.65386L15.0075 10.6761C15.6643 9.68737 16 8.70109 16 8C16 5.98172 13.2183 1.6 8 1.6C7.33701 1.6 6.71335 1.67073 6.12973 1.79836Z" fill="var(--fill-0, white)"/>
</svg>
