<svg preserveAspectRatio="none" width="100%" height="100%" overflow="visible" style="display: block;" viewBox="0 0 61.8148 16.8825" fill="none" xmlns="http://www.w3.org/2000/svg">
<g id="Vector">
<path d="M0 0.00250663H5.8C6.33 0.00250663 7.91 -0.167493 8.61 2.29251C9.14 3.87251 9.84 6.33251 10.89 10.0225H11.24C12.29 6.15251 13.17 3.52251 13.52 2.29251C14.24 -0.167493 15.99 0.00250663 16.7 0.00250663H22.15V16.8725H16.53V6.86251H16.18L13.19 16.8825H8.97L5.98 6.86251H5.45V16.8825H0M24.43 0.00250663H30.05V10.0225H30.58L34.27 1.76251C34.97 0.182507 36.56 0.00250663 36.56 0.00250663H41.83V16.8725H36.21V6.86251H35.86L32.17 15.1225C31.47 16.7025 29.71 16.8825 29.71 16.8825H24.44M49.39 11.7825V16.8825H44.12V8.09251H61.34C60.64 10.2025 58.18 11.7825 55.36 11.7825" fill="var(--fill-0, #04121B)" fill-opacity="0.24"/>
<path d="M61.68 7.03251C62.39 3.87251 60.28 0.00250663 55.71 0.00250663H43.76C44.11 3.69251 47.27 7.03251 50.61 7.03251" fill="var(--fill-0, #04121B)" fill-opacity="0.24"/>
</g>
</svg>
