<svg preserveAspectRatio="none" width="100%" height="100%" overflow="visible" style="display: block;" viewBox="0 0 16 15" fill="none" xmlns="http://www.w3.org/2000/svg">
<path id="Vector" d="M5.6987 3.2574C5.5995 3.00645 5.50414 2.7657 5.38793 2.52142C5.32566 2.39052 5.26865 2.25333 5.20759 2.12167C5.08421 1.81448 5.10684 1.39485 5.23363 1.0906C5.41822 0.647653 5.76246 0.336019 6.20164 0.160362C6.76427 -0.0630875 7.39054 -0.0526621 7.9457 0.189395C8.3575 0.37343 8.69531 0.693228 8.86055 1.12315C8.98789 1.45445 8.99156 1.8716 8.84125 2.19525C8.67852 2.54554 8.51344 2.90152 8.37687 3.26461C9.32445 3.27269 10.2908 3.26247 11.2395 3.25884L12.0366 3.25564C12.1907 3.25498 12.3565 3.24671 12.5091 3.26357C12.8607 3.30243 12.8024 3.68615 12.8023 3.9411L12.8021 4.66736L12.8029 7.10031C13.0921 6.99951 13.3369 6.87034 13.615 6.74485C13.71 6.70201 13.8309 6.6361 13.9248 6.60165C14.2763 6.47506 14.6629 6.49805 14.9974 6.66543C15.4205 6.87617 15.7271 7.25446 15.8764 7.70693C15.9073 7.79923 15.9314 7.89367 15.9487 7.98963C15.9596 8.04851 15.9826 8.20302 16 8.24742V8.70118C15.9634 8.79992 15.9387 9.01403 15.9077 9.13155C15.6831 9.98227 14.8351 10.6592 13.9576 10.3522C13.8427 10.3119 13.7362 10.2518 13.6246 10.1996L13.0773 9.94638C12.9969 9.90867 12.8512 9.86395 12.7898 9.83069C12.7942 10.1405 12.7909 10.4592 12.792 10.7701L12.7981 13.0811L12.8002 14.1382C12.8005 14.2333 12.8005 14.3288 12.8017 14.4253C12.8047 14.637 12.8247 14.8703 12.5928 14.9677C12.5702 14.9771 12.4954 14.99 12.4701 14.9916C12.3056 15.0025 12.1359 14.9982 11.9711 14.9982L11.4954 14.9981L11.0198 14.998L9.35492 14.9982C9.05852 14.9983 8.76133 14.9999 8.46547 14.9974C8.25898 14.9957 8.06828 14.9453 7.92273 14.7926C7.67253 14.5301 7.71543 14.2397 7.84727 13.9313C7.94078 13.7125 8.03797 13.4902 8.13711 13.2729C8.185 13.1611 8.25016 13.035 8.28414 12.9211C8.36836 12.639 8.26867 12.3492 8.07539 12.1397C7.84156 11.8861 7.42566 11.7671 7.09238 11.7605C6.73984 11.7535 6.30291 11.8501 6.04051 12.1035C5.8779 12.2605 5.76977 12.4772 5.76555 12.7067C5.76203 12.8985 5.8317 13.023 5.9068 13.1913L6.13804 13.7059C6.30582 14.0773 6.48762 14.4557 6.14816 14.7999C6.04705 14.9024 5.9096 14.9707 5.76817 14.9853C5.5609 15.0067 5.326 14.9985 5.11603 14.9984L3.96061 14.9981L1.53094 14.998C1.15924 14.998 0.787102 14.998 0.41548 14.9994C0.303859 14.9998 0.169111 14.975 0.091282 14.8882C0.0332213 14.8235 0.0350815 14.7887 0 14.7276V9.74015C0.00979687 9.72265 0.043071 9.62613 0.050991 9.6021C0.10498 9.43844 0.226653 9.30835 0.382817 9.23785C0.48833 9.19091 0.604539 9.17468 0.718557 9.19099C1.05528 9.23801 1.63473 9.59112 1.97684 9.72065C2.16398 9.79322 2.3722 9.78415 2.55256 9.69551C3.37148 9.30166 3.40452 7.79724 2.6568 7.30386C2.30315 7.0705 2.03616 7.19319 1.69314 7.35191C1.46061 7.45948 0.95893 7.72221 0.717674 7.75571C0.621356 7.7686 0.523401 7.75801 0.431884 7.72483C0.266488 7.66627 0.132827 7.53969 0.0634802 7.37594C0.0399255 7.31921 0.0224379 7.2471 0 7.1995V3.51652C0.0491797 3.41957 0.0908422 3.31723 0.20283 3.28164C0.364929 3.23014 0.894148 3.25427 1.1013 3.25442L2.44405 3.2548L4.57613 3.2547C4.92859 3.25471 5.35159 3.24438 5.6987 3.2574Z" fill="var(--fill-0, #DE7AFF)"/>
</svg>
