<svg width="16" height="16" viewBox="0 0 16 16" fill="none" xmlns="http://www.w3.org/2000/svg">
  <g transform="translate(1 1)">
    <path
      fill-rule="evenodd"
      clip-rule="evenodd"
      d="M10.3336 2.84883L10.7947 5.34531L9.29702 5.6215L8.53556 1.49857C8.49706 1.29009 8.54734 1.07502 8.67428 0.905166C8.80123 0.735312 8.99334 0.626081 9.20431 0.603791L13.3923 0.161318L13.5525 1.67468L11.5521 1.88602C11.6061 1.93395 11.6592 1.98271 11.7116 2.03228C13.0295 3.27946 13.8531 5.04683 13.8531 7.0052C13.8531 10.7873 10.7849 13.8533 6.99999 13.8533C3.21511 13.8533 0.146847 10.7873 0.146847 7.0052C0.146847 4.13004 1.91977 1.67049 4.4299 0.655167L5.00132 2.06578C3.04651 2.85649 1.66977 4.7711 1.66977 7.0052C1.66977 9.94684 4.05619 12.3315 6.99999 12.3315C9.9438 12.3315 12.3302 9.94684 12.3302 7.0052C12.3302 5.4819 11.6913 4.10896 10.6644 3.13721C10.5582 3.03665 10.4478 2.94043 10.3336 2.84883Z"
      fill="#30010B"
    />
  </g>
</svg>
