<svg preserveAspectRatio="none" width="100%" height="100%" overflow="visible" style="display: block;" viewBox="0 0 14 14" fill="none" xmlns="http://www.w3.org/2000/svg">
<g id="Vector">
<path fill-rule="evenodd" clip-rule="evenodd" d="M10.3336 2.84883L10.7947 5.34531L9.29702 5.6215L8.53556 1.49857C8.49706 1.29009 8.54734 1.07502 8.67428 0.905166C8.80123 0.735312 8.99334 0.626081 9.20431 0.603791L13.3923 0.161318L13.5525 1.67468L11.5521 1.88602C11.6061 1.93395 11.6592 1.98271 11.7116 2.03228C13.0295 3.27946 13.8531 5.04683 13.8531 7.0052C13.8531 10.7873 10.7849 13.8533 6.99999 13.8533C3.21511 13.8533 0.146847 10.7873 0.146847 7.0052C0.146847 4.13004 1.91977 1.67049 4.4299 0.655167L5.00132 2.06578C3.04651 2.85649 1.66977 4.7711 1.66977 7.0052C1.66977 9.94684 4.05619 12.3315 6.99999 12.3315C9.9438 12.3315 12.3302 9.94684 12.3302 7.0052C12.3302 5.4819 11.6913 4.10896 10.6644 3.13721C10.5582 3.03665 10.4478 2.94043 10.3336 2.84883Z" fill="var(--fill-0, white)"/>
<path fill-rule="evenodd" clip-rule="evenodd" d="M13.523 0L13.714 1.80514L11.8879 1.99807C13.1899 3.26735 14 5.04244 14 7.0052C14 10.8683 10.866 14 7 14C3.13396 14 0 10.8683 0 7.0052C0 4.06824 1.81113 1.55617 4.37479 0.519189L4.51094 0.464119L5.19253 2.14671L5.05645 2.20175C3.15523 2.97078 1.81663 4.83282 1.81663 7.0052C1.81663 9.86586 4.13735 12.1848 7 12.1848C9.86266 12.1848 12.1834 9.86586 12.1834 7.0052C12.1834 5.52381 11.5622 4.18889 10.5634 3.24371C10.5604 3.24081 10.5573 3.23792 10.5542 3.23503L10.9657 5.46294L9.17926 5.79239L8.39115 1.52518C8.34523 1.27653 8.40519 1.02 8.55662 0.817399C8.70804 0.614797 8.9372 0.484494 9.18887 0.457903L13.523 0ZM13.2618 0.322633L9.21976 0.749676C9.04949 0.767665 8.89444 0.855824 8.79196 0.992928C8.68949 1.13004 8.6489 1.30365 8.67998 1.47195L9.4148 5.4506L10.6236 5.22767L10.1175 2.48739L10.4255 2.73444C10.5429 2.82855 10.6563 2.9274 10.7654 3.03071C11.8203 4.02903 12.4771 5.43999 12.4771 7.0052C12.4771 10.0278 10.0249 12.4782 7 12.4782C3.97505 12.4782 1.52292 10.0278 1.52292 7.0052C1.52292 4.76129 2.87452 2.83134 4.81087 1.98668L4.34948 0.847711C1.96485 1.87398 0.293706 4.24387 0.293706 7.0052C0.293706 10.7063 3.29626 13.7066 7 13.7066C10.7037 13.7066 13.7063 10.7063 13.7063 7.0052C13.7063 5.08877 12.9005 3.35941 11.6106 2.13878C11.5594 2.09026 11.5073 2.04254 11.4545 1.99564L11.2063 1.77505L13.391 1.54422L13.2618 0.322633Z" fill="var(--fill-0, white)"/>
</g>
</svg>
