<svg preserveAspectRatio="none" width="100%" height="100%" overflow="visible" style="display: block;" viewBox="0 0 11.2017 13.0476" fill="none" xmlns="http://www.w3.org/2000/svg">
<path id="Vector" fill-rule="evenodd" clip-rule="evenodd" d="M6.42095 8.14105H6.06518L1.94593 8.03431V8.02348L0.23048 7.97863L0 5.69239L1.92582 5.70476L1.8887 2.38369L1.67987 0.0634206C1.67987 0.0634206 3.8733 0 6.37455 0C13.094 0 12.5062 8.14105 6.42095 8.14105ZM6.25235 2.36049C5.9832 2.36049 4.6096 2.37595 4.6096 2.37595L4.72252 5.69239L7.22686 5.67692C8.15342 5.07365 9.3646 2.36049 6.25235 2.36049ZM8.99955 11.3322L4.62197 11.2471V13.0476L1.99234 13.0028L1.97532 11.1961L0.550676 11.1698L0.354228 9.22229L9.34913 9.18053L8.99955 11.3322Z" fill="var(--fill-0, white)"/>
</svg>
