<svg preserveAspectRatio="none" width="100%" height="100%" overflow="visible" style="display: block;" viewBox="0 0 8.40127 9.78573" fill="none" xmlns="http://www.w3.org/2000/svg">
<path id="Vector" fill-rule="evenodd" clip-rule="evenodd" d="M4.81572 6.10578H4.54888L1.45945 6.02573V6.01761L0.17286 5.98397L0 4.26929L1.44437 4.27857L1.41652 1.78777L1.25991 0.0475655C1.25991 0.0475655 2.90497 0 4.78091 0C9.82053 0 9.37968 6.10578 4.81572 6.10578ZM4.68926 1.77036C4.4874 1.77036 3.4572 1.78197 3.4572 1.78197L3.54189 4.26929L5.42014 4.25769C6.11506 3.80524 7.02345 1.77036 4.68926 1.77036ZM6.74966 8.49914L3.46648 8.43533V9.78573L1.49425 9.75208L1.48149 8.39705L0.413007 8.37733L0.265671 6.91672L7.01185 6.88539L6.74966 8.49914Z" fill="var(--fill-0, white)"/>
</svg>
