<svg preserveAspectRatio="none" width="100%" height="100%" overflow="visible" style="display: block;" viewBox="0 0 16 12" fill="none" xmlns="http://www.w3.org/2000/svg">
<g id="Icon">
<path fill-rule="evenodd" clip-rule="evenodd" d="M8 12C12.4183 12 16 8.31371 16 6C16 3.68629 12.4183 0 8 0C3.58172 0 0 3.68629 0 6C0 8.31371 3.58172 12 8 12ZM8 10C10.2091 10 12 8.20914 12 6C12 3.79086 10.2091 2 8 2C5.79086 2 4 3.79086 4 6C4 8.20914 5.79086 10 8 10Z" fill="var(--fill-0, white)"/>
<path d="M10 6C10 7.10457 9.10457 8 8 8C6.89543 8 6 7.10457 6 6C6.5 6 8 6 8 6C8 6 8 4.5 8 4C9.10457 4 10 4.89543 10 6Z" fill="white"/>
</g>
</svg>
