<svg preserveAspectRatio="none" width="100%" height="100%" overflow="visible" style="display: block;" viewBox="0 0 12 12" fill="none" xmlns="http://www.w3.org/2000/svg">
<path id="Icon" d="M4.81878 6.77969H3.20614C1.56853 6.77969 0.749716 6.77969 0.403265 6.48025C0.103201 6.22091 -0.0436189 5.83522 0.0113598 5.45074C0.0748376 5.00681 0.699905 4.49786 1.95004 3.47996L4.35664 1.52043C5.61253 0.497844 6.24047 -0.0134486 6.70665 0.000268838C7.11037 0.0121488 7.48159 0.216258 7.69721 0.54492C7.94619 0.924419 7.80726 1.70459 7.52941 3.26494L7.18122 5.22031H8.79385C10.4315 5.22031 11.2503 5.22031 11.5967 5.51975C11.8968 5.77909 12.0436 6.16477 11.9886 6.54926C11.9252 6.99319 11.3001 7.50214 10.05 8.52004L7.64336 10.4796C6.38747 11.5022 5.75953 12.0134 5.29335 11.9997C4.88963 11.9879 4.51841 11.7837 4.30279 11.4551C4.05381 11.0756 4.19274 10.2954 4.47059 8.73506L4.81878 6.77969Z" fill="var(--fill-0, #0ABD5D)"/>
</svg>
